SplineFontDB: 3.0
FontName: Vazir-Thin
FullName: Vazir Thin
FamilyName: Vazir Thin
Weight: Thin
Copyright: Copyright (c) 2003 by Bitstream, Inc. All Rights Reserved.\nDejaVu changes are in public domain\nChanges by Saber Rastikerdar are in public domain.\nNon-Arabic(Latin) glyphs and data in extended version are imported from Roboto font under the Apache License, Version 2.0.
Version: 20.1.0
ItalicAngle: 0
UnderlinePosition: -500
UnderlineWidth: 100
Ascent: 1638
Descent: 410
InvalidEm: 0
LayerCount: 2
Layer: 0 1 "Back" 1
Layer: 1 1 "Fore" 0
PreferredKerning: 4
XUID: [1021 502 1027637223 11226098]
UniqueID: 4097506
UseUniqueID: 1
FSType: 0
OS2Version: 1
OS2_WeightWidthSlopeOnly: 0
OS2_UseTypoMetrics: 1
CreationTime: 1431850356
ModificationTime: 1559032407
PfmFamily: 33
TTFWeight: 100
TTFWidth: 5
LineGap: 0
VLineGap: 0
Panose: 2 11 6 3 3 8 4 2 2 4
OS2TypoAscent: 2100
OS2TypoAOffset: 0
OS2TypoDescent: -1100
OS2TypoDOffset: 0
OS2TypoLinegap: 0
OS2WinAscent: 2100
OS2WinAOffset: 0
OS2WinDescent: 1100
OS2WinDOffset: 0
HheadAscent: 2100
HheadAOffset: 0
HheadDescent: -1100
HheadDOffset: 0
OS2SubXSize: 1331
OS2SubYSize: 1433
OS2SubXOff: 0
OS2SubYOff: 286
OS2SupXSize: 1331
OS2SupYSize: 1433
OS2SupXOff: 0
OS2SupYOff: 983
OS2StrikeYSize: 102
OS2StrikeYPos: 530
OS2CapHeight: 1638
OS2XHeight: 1082
OS2Vendor: '    '
OS2CodePages: 00000041.20080000
OS2UnicodeRanges: 80002003.80000000.00000008.00000000
Lookup: 1 9 0 "'fina' Terminal Forms in Arabic lookup 9" { "'fina' Terminal Forms in Arabic lookup 9 subtable"  } ['fina' ('arab' <'KUR ' 'SND ' 'URD ' 'dflt' > ) ]
Lookup: 1 9 0 "'medi' Medial Forms in Arabic lookup 11" { "'medi' Medial Forms in Arabic lookup 11 subtable"  } ['medi' ('arab' <'KUR ' 'SND ' 'URD ' 'dflt' > ) ]
Lookup: 1 9 0 "'init' Initial Forms in Arabic lookup 13" { "'init' Initial Forms in Arabic lookup 13 subtable"  } ['init' ('arab' <'KUR ' 'SND ' 'URD ' 'dflt' > ) ]

StartChar: exclam
Encoding: 33 33 1
GlifName: exclam
Width: 641
VWidth: 2764
GlyphClass: 2
Flags: W
LayerCount: 2
Fore
SplineSet
215.091796875 140.493164062 m 0,0,1
 215.091796875 183.94154082 215.091796875 183.94154082 245.961511507 214.810495264 c 0,2,3
 276.829943567 245.6796875 276.829943567 245.6796875 320.278320312 245.6796875 c 0,4,5
 363.72767362 245.6796875 363.72767362 245.6796875 394.596105674 214.81049527 c 0,6,7
 425.463867188 183.941973579 425.463867188 183.941973579 425.463867188 140.493164062 c 0,8,9
 425.463867188 97.0443545455 425.463867188 97.0443545455 394.59610568 66.1758328608 c 0,10,11
 363.72767362 35.306640625 363.72767362 35.306640625 320.278320312 35.306640625 c 0,12,13
 312.400893865 35.306640625 312.400893865 35.306640625 305.146808018 36.2224490811 c 0,14,15
 297.892722171 37.1382575372 297.892722171 37.1382575372 291.146741789 38.9766404122 c 0,16,17
 284.400761406 40.8150232872 284.400761406 40.8150232872 278.068740519 43.6273500709 c 0,18,19
 271.736719632 46.4396768545 271.736719632 46.4396768545 265.799850256 50.1830722942 c 0,20,21
 259.86298088 53.9264677338 259.86298088 53.9264677338 254.130689895 58.7019425347 c 0,22,23
 232.385248362 76.8174643979 232.385248362 76.8174643979 222.692851159 100.16794877 c 0,24,25
 215.091796875 118.478454132 215.091796875 118.478454132 215.091796875 140.493164062 c 0,0,1
243.978271401 1377.07128906 m 1,26,-1
 399.834499891 1377.07128906 l 1,27,-1
 376.852874976 479.32421875 l 1,28,-1
 268.106872179 479.32421875 l 1,29,-1
 243.978271401 1377.07128906 l 1,26,-1
EndSplineSet
EndChar

StartChar: period
Encoding: 46 46 2
GlifName: period
Width: 641
VWidth: 2764
GlyphClass: 2
Flags: W
LayerCount: 2
Fore
SplineSet
215.091796875 140.493164062 m 0,0,1
 215.091796875 183.94154082 215.091796875 183.94154082 245.961511507 214.810495264 c 128,-1,2
 276.829943567 245.6796875 276.829943567 245.6796875 320.278320312 245.6796875 c 128,-1,3
 363.72767362 245.6796875 363.72767362 245.6796875 394.596105674 214.81049527 c 128,-1,4
 425.463867188 183.941973579 425.463867188 183.941973579 425.463867188 140.493164062 c 128,-1,5
 425.463867188 97.0443545455 425.463867188 97.0443545455 394.59610568 66.1758328608 c 128,-1,6
 363.72767362 35.306640625 363.72767362 35.306640625 320.278320312 35.306640625 c 0,7,8
 312.400893865 35.306640625 312.400893865 35.306640625 305.146808018 36.2224490811 c 128,-1,9
 297.892722171 37.1382575372 297.892722171 37.1382575372 291.146741789 38.9766404122 c 128,-1,10
 284.400761406 40.8150232872 284.400761406 40.8150232872 278.068740519 43.6273500709 c 128,-1,11
 271.736719632 46.4396768545 271.736719632 46.4396768545 265.799850256 50.1830722942 c 128,-1,12
 259.86298088 53.9264677338 259.86298088 53.9264677338 254.130689895 58.7019425347 c 0,13,14
 232.385248362 76.8174643979 232.385248362 76.8174643979 222.692851159 100.16794877 c 0,15,16
 215.091796875 118.478454132 215.091796875 118.478454132 215.091796875 140.493164062 c 0,0,1
EndSplineSet
EndChar

StartChar: colon
Encoding: 58 58 3
GlifName: colon
Width: 641
VWidth: 2764
GlyphClass: 2
Flags: W
LayerCount: 2
Fore
SplineSet
215.091796875 1010.49316406 m 0,0,1
 215.091796875 1053.94154082 215.091796875 1053.94154082 245.961511507 1084.81049526 c 0,2,3
 261.851735172 1100.70111025 261.851735172 1100.70111025 279.894053932 1108.19039887 c 128,-1,4
 297.936372692 1115.6796875 297.936372692 1115.6796875 320.278320312 1115.6796875 c 0,5,6
 363.72767362 1115.6796875 363.72767362 1115.6796875 394.596105673 1084.81049527 c 128,-1,7
 425.463867188 1053.94197358 425.463867188 1053.94197358 425.463867188 1010.49316406 c 0,8,9
 425.463867188 988.148818079 425.463867188 988.148818079 417.974234806 970.106769484 c 128,-1,10
 410.484602424 952.064720889 410.484602424 952.064720889 394.59610568 936.175832861 c 0,11,12
 363.72767362 905.306640625 363.72767362 905.306640625 320.278320312 905.306640625 c 0,13,14
 282.213484554 905.306640625 282.213484554 905.306640625 254.130689895 928.701942535 c 0,15,16
 246.67733662 934.911123617 246.67733662 934.911123617 240.726607847 941.606225529 c 128,-1,17
 234.775879075 948.30132744 234.775879075 948.30132744 230.343719227 955.35745507 c 128,-1,18
 225.91155938 962.413582699 225.91155938 962.413582699 222.692851159 970.16794877 c 0,19,20
 215.091796875 988.478454132 215.091796875 988.478454132 215.091796875 1010.49316406 c 0,0,1
215.091796875 140.493164062 m 0,21,22
 215.091796875 183.94154082 215.091796875 183.94154082 245.961511507 214.810495264 c 128,-1,23
 276.829943567 245.6796875 276.829943567 245.6796875 320.278320312 245.6796875 c 128,-1,24
 363.72767362 245.6796875 363.72767362 245.6796875 394.596105674 214.81049527 c 128,-1,25
 425.463867188 183.941973579 425.463867188 183.941973579 425.463867188 140.493164062 c 128,-1,26
 425.463867188 97.0443545455 425.463867188 97.0443545455 394.59610568 66.1758328608 c 128,-1,27
 363.72767362 35.306640625 363.72767362 35.306640625 320.278320312 35.306640625 c 0,28,29
 312.400893865 35.306640625 312.400893865 35.306640625 305.146808018 36.2224490811 c 128,-1,30
 297.892722171 37.1382575372 297.892722171 37.1382575372 291.146741789 38.9766404122 c 128,-1,31
 284.400761406 40.8150232872 284.400761406 40.8150232872 278.068740519 43.6273500709 c 128,-1,32
 271.736719632 46.4396768545 271.736719632 46.4396768545 265.799850256 50.1830722942 c 128,-1,33
 259.86298088 53.9264677338 259.86298088 53.9264677338 254.130689895 58.7019425347 c 0,34,35
 232.385248362 76.8174643979 232.385248362 76.8174643979 222.692851159 100.16794877 c 0,36,37
 215.091796875 118.478454132 215.091796875 118.478454132 215.091796875 140.493164062 c 0,21,22
EndSplineSet
EndChar

StartChar: afii57388
Encoding: 1548 1548 5
GlifName: afii57388
Width: 739
VWidth: 2772
GlyphClass: 2
Flags: W
LayerCount: 2
Fore
SplineSet
264.910637075 284.082651121 m 0,0,1
 307.841957006 496.571002293 307.841957006 496.571002293 467.365692841 633.966496181 c 1,2,3
 340.587549519 493.420020635 340.587549519 493.420020635 326.067386861 291.349380759 c 2,4,-1
 323.725590812 258.759647625 l 1,5,-1
 356.396358593 259.201967824 l 2,6,7
 470.732674817 260.749934573 470.732674817 260.749934573 495.831417445 211.428529251 c 0,8,9
 511.830053453 179.28769214 511.830053453 179.28769214 511.092323882 148.585517716 c 0,10,11
 510.208059667 89.6886383177 510.208059667 89.6886383177 483.746492647 64.3178153633 c 128,-1,12
 457.284925628 38.9469924089 457.284925628 38.9469924089 395.927557331 38.9071858777 c 0,13,14
 370.73522181 38.8018625783 370.73522181 38.8018625783 350.135348973 42.8601864058 c 0,15,16
 286.295285382 55.4371403164 286.295285382 55.4371403164 264.017436633 111.934799505 c 128,-1,17
 241.739587883 168.432458694 241.739587883 168.432458694 264.910637075 284.082651121 c 0,0,1
EndSplineSet
EndChar

StartChar: uni0615
Encoding: 1557 1557 6
GlifName: uni0615
Width: -29
VWidth: 2714
GlyphClass: 4
Flags: W
AnchorPoint: "Anchor-10" 658.199 1624.46 mark 0
AnchorPoint: "Anchor-9" 658.199 1624.46 mark 0
AnchorPoint: "Anchor-1" 672.366 2447.86 basemark 0
AnchorPoint: "Anchor-1" 658.199 1624.46 mark 0
LayerCount: 2
Fore
SplineSet
912.769755624 1920.01350395 m 0,0,1
 912.769755624 1994.96856117 912.769755624 1994.96856117 836.782727051 1994.96856117 c 4,2,3
 730.412315598 1994.96856117 730.412315598 1994.96856117 541.2421875 1790.00390625 c 1,4,-1
 677.703125 1790.00390625 l 2,5,6
 781.798204784 1790.00390625 781.798204784 1790.00390625 845.899102392 1824.50195312 c 0,7,8
 912.769755624 1860.49063684 912.769755624 1860.49063684 912.769755624 1920.01350395 c 0,0,1
991.1328125 1928.79980469 m 0,9,10
 991.00004589 1714.07421875 991.00004589 1714.07421875 668.384765625 1714.07421875 c 2,11,-1
 354.936523438 1714.07421875 l 1,12,-1
 354.936523438 1790.00390625 l 1,13,-1
 462.987304688 1790.00390625 l 1,14,-1
 462.987304688 2322.15039062 l 1,15,-1
 540.234375 2321.18359375 l 1,16,-1
 539.275390625 1893.90234375 l 1,17,18
 703.078829305 2080.07964876 703.078829305 2080.07964876 840.555998274 2080.07964876 c 4,19,20
 990.947121021 2080.07964876 990.947121021 2080.07964876 991.1328125 1928.79980469 c 0,9,10
EndSplineSet
EndChar

StartChar: uni061B
Encoding: 1563 1563 7
GlifName: uni061B_
Width: 739
VWidth: 2772
GlyphClass: 2
Flags: W
LayerCount: 2
Fore
SplineSet
292.091796875 140.493164062 m 0,0,1
 292.091796875 183.94154082 292.091796875 183.94154082 322.961511507 214.810495264 c 128,-1,2
 353.829943567 245.6796875 353.829943567 245.6796875 397.278320312 245.6796875 c 128,-1,3
 440.72767362 245.6796875 440.72767362 245.6796875 471.596105674 214.81049527 c 128,-1,4
 502.463867188 183.941973579 502.463867188 183.941973579 502.463867188 140.493164062 c 128,-1,5
 502.463867188 97.0443545455 502.463867188 97.0443545455 471.59610568 66.1758328608 c 128,-1,6
 440.72767362 35.306640625 440.72767362 35.306640625 397.278320312 35.306640625 c 0,7,8
 377.694340471 35.306640625 377.694340471 35.306640625 361.57452748 41.0377401022 c 128,-1,9
 345.454714489 46.7688395795 345.454714489 46.7688395795 331.130689895 58.7019425347 c 0,10,11
 309.385248362 76.8174643979 309.385248362 76.8174643979 299.692851159 100.16794877 c 0,12,13
 295.906486782 109.28908416 295.906486782 109.28908416 293.999141828 119.281198249 c 128,-1,14
 292.091796875 129.273312338 292.091796875 129.273312338 292.091796875 140.493164062 c 0,0,1
264.910637075 724.082651121 m 0,15,16
 307.841957006 936.571002293 307.841957006 936.571002293 467.365692842 1073.96649618 c 1,17,18
 340.587549519 933.420020634 340.587549519 933.420020634 326.067386861 731.349380759 c 2,19,-1
 323.725590812 698.759647625 l 1,20,-1
 356.396358593 699.201967824 l 2,21,22
 470.732674817 700.749934573 470.732674817 700.749934573 495.831417445 651.428529251 c 0,23,24
 511.830053453 619.28769214 511.830053453 619.28769214 511.092323882 588.585517716 c 0,25,26
 510.208059667 529.688638318 510.208059667 529.688638318 483.746492647 504.317815363 c 128,-1,27
 457.284925628 478.946992409 457.284925628 478.946992409 395.927557331 478.907185877 c 0,28,29
 389.5127426 478.880367028 389.5127426 478.880367028 383.42028671 479.120941631 c 128,-1,30
 377.327830819 479.361516235 377.327830819 479.361516235 371.616238435 479.864090065 c 128,-1,31
 365.90464605 480.366663894 365.90464605 480.366663894 360.5568732 481.113642305 c 128,-1,32
 355.209100349 481.860620716 355.209100349 481.860620716 350.135348973 482.860186405 c 0,33,34
 286.295285382 495.437140316 286.295285382 495.437140316 264.017436633 551.934799505 c 128,-1,35
 241.739587883 608.432458694 241.739587883 608.432458694 264.910637075 724.082651121 c 0,15,16
EndSplineSet
EndChar

StartChar: uni061F
Encoding: 1567 1567 8
GlifName: uni061F_
Width: 964
VWidth: 2764
GlyphClass: 2
Flags: W
LayerCount: 2
Fore
SplineSet
438.091796875 140.493164062 m 0,0,1
 438.091796875 183.94154082 438.091796875 183.94154082 468.961511507 214.810495264 c 128,-1,2
 499.829943567 245.6796875 499.829943567 245.6796875 543.278320312 245.6796875 c 128,-1,3
 586.72767362 245.6796875 586.72767362 245.6796875 617.596105674 214.81049527 c 128,-1,4
 648.463867188 183.941973579 648.463867188 183.941973579 648.463867188 140.493164062 c 128,-1,5
 648.463867188 97.0443545455 648.463867188 97.0443545455 617.59610568 66.1758328608 c 128,-1,6
 586.72767362 35.306640625 586.72767362 35.306640625 543.278320312 35.306640625 c 0,7,8
 523.694340471 35.306640625 523.694340471 35.306640625 507.57452748 41.0377401022 c 128,-1,9
 491.454714489 46.7688395795 491.454714489 46.7688395795 477.130689895 58.7019425347 c 0,10,11
 455.385248362 76.8174643979 455.385248362 76.8174643979 445.692851159 100.16794877 c 0,12,13
 441.906486782 109.28908416 441.906486782 109.28908416 439.999141828 119.281198249 c 128,-1,14
 438.091796875 129.273312338 438.091796875 129.273312338 438.091796875 140.493164062 c 0,0,1
472.335374627 476.33051167 m 1,15,16
 470.367508869 647.454695136 470.367508869 647.454695136 257.221367432 824.078148637 c 0,17,18
 132.280891706 927.848002909 132.280891706 927.848002909 134.992015023 1064.30787658 c 0,19,20
 136.384662378 1124.65592859 136.384662378 1124.65592859 153.770851432 1172.98201111 c 128,-1,21
 171.157040486 1221.30809363 171.157040486 1221.30809363 204.462112477 1259.11385102 c 0,22,23
 316.43422916 1384.96680861 316.43422916 1384.96680861 498.82526408 1384.51685764 c 0,24,25
 666.719094093 1383.82314424 666.719094093 1383.82314424 748.797899857 1301.46457753 c 128,-1,26
 830.876705622 1219.10601081 830.876705622 1219.10601081 835.732085938 1046.24963098 c 1,27,-1
 735.245593316 1046.24840588 l 1,28,29
 729.80306624 1145.44246866 729.80306624 1145.44246866 670.566196124 1198.19605777 c 128,-1,30
 611.329326007 1250.94964688 611.329326007 1250.94964688 507.627491086 1250.89451919 c 0,31,32
 375.922923604 1251.01263693 375.922923604 1251.01263693 311.356839523 1173.21993376 c 0,33,34
 290.663537657 1148.55038253 290.663537657 1148.55038253 280.227015317 1117.12791933 c 128,-1,35
 269.790492977 1085.70545613 269.790492977 1085.70545613 269.511338552 1049.18916001 c 0,36,37
 268.917547772 955.018256717 268.917547772 955.018256717 394.638225415 837.967970635 c 0,38,39
 614.98046875 635.827912619 614.98046875 635.827912619 614.98046875 477 c 1,40,41
 592.269584341 476.99967164 592.269584341 476.99967164 543.681454404 476.665091655 c 128,-1,42
 495.093324467 476.33051167 495.093324467 476.33051167 472.335374627 476.33051167 c 1,15,16
EndSplineSet
EndChar

StartChar: uni0621
Encoding: 1569 1569 9
GlifName: uni0621
Width: 868
VWidth: 2952
GlyphClass: 2
Flags: W
AnchorPoint: "Anchor-7" 501.326 0.354 basechar 0
AnchorPoint: "Anchor-10" 467.848 1181.06 basechar 0
LayerCount: 2
Fore
SplineSet
147.76953125 62.3591824075 m 1,0,-1
 147.76953125 173.380096647 l 1,1,2
 275 245 275 245 389.915039062 287.118164062 c 5,3,4
 167 370 167 370 168.256703447 540.515592538 c 4,5,6
 169 604 169 604 184.834161613 652.804682157 c 0,7,8
 201 702 201 702 232.701780041 738.756443224 c 0,9,10
 326 846 326 846 475.256526 846.105474681 c 0,11,12
 617 846 617 846 697.008697809 777.858662529 c 1,13,-1
 661.916832387 692.375619764 l 1,14,15
 622 714 622 714 579.284379845 724.516452818 c 0,16,17
 536 735 536 735 486.873268469 734.73602385 c 0,18,19
 390 734 390 734 328.823451777 676.840398312 c 0,20,21
 315 664 315 664 304.835220837 648.189503691 c 0,22,23
 294 633 294 633 287.634283031 615.586752521 c 0,24,25
 281 598 281 598 277.297877563 579.611628296 c 0,26,27
 274 561 274 561 273.731275719 540.579120154 c 0,28,29
 274.000715871 430.708085456 274.000715871 430.708085456 464.028274291 344.052764393 c 2,30,-1
 473.226227918 339.858364216 l 1,31,-1
 483.086865247 342.086182711 l 1,32,-1
 704.666235695 392.147715567 l 1,33,-1
 722.50020992 281.512543516 l 1,34,35
 487 245 487 245 147.76953125 62.3591824075 c 1,0,-1
EndSplineSet
EndChar

StartChar: uni0627
Encoding: 1575 1575 15
GlifName: uni0627
Width: 477
VWidth: 2952
GlyphClass: 2
Flags: W
AnchorPoint: "Anchor-10" 229.871 1525.46 basechar 0
AnchorPoint: "Anchor-7" 233.587 -236.365 basechar 0
LayerCount: 2
Fore
SplineSet
180.890625 1360.15039062 m 5,0,-1
 294.205078125 1360.15039062 l 5,1,-1
 294.205078125 30.751953125 l 1,2,-1
 180.890625 30.751953125 l 1,3,-1
 180.890625 1360.15039062 l 5,0,-1
EndSplineSet
Substitution2: "'fina' Terminal Forms in Arabic lookup 9 subtable" uniFE8E
EndChar

StartChar: uni062D
Encoding: 1581 1581 21
GlifName: uni062D_
Width: 1386
VWidth: 2952
GlyphClass: 2
Flags: W
AnchorPoint: "Anchor-7" 580.833 -810.619 basechar 0
AnchorPoint: "Anchor-10" 649.478 1262.07 basechar 0
LayerCount: 2
Fore
SplineSet
154.987304708 -144.851950345 m 0,0,1
 154.987304708 135.957960969 154.987304708 135.957960969 326.021296549 313.363130624 c 128,-1,2
 497.05528839 490.768300279 497.05528839 490.768300279 847.495496549 568.48799877 c 2,3,-1
 857.495496549 570.705772207 l 1,4,-1
 954.6464056 592.251642755 l 1,5,-1
 861.774868768 627.992394196 l 2,6,7
 858.945258631 629.08134347 858.945258631 629.08134347 855.330557351 630.486854509 c 128,-1,8
 851.715856071 631.892365547 851.715856071 631.892365547 847.31677984 633.614200427 c 128,-1,9
 842.917703609 635.336035306 842.917703609 635.336035306 837.747918518 637.368790104 c 128,-1,10
 832.578133426 639.401544902 832.578133426 639.401544902 826.625229266 641.750202408 c 128,-1,11
 820.672325105 644.098859915 820.672325105 644.098859915 813.96396946 646.752447445 c 128,-1,12
 807.255613815 649.406034975 807.255613815 649.406034975 799.765394982 652.375104081 c 128,-1,13
 792.275176149 655.344173188 792.275176149 655.344173188 784.044763208 658.612182424 c 128,-1,14
 775.814350266 661.88019166 775.814350266 661.88019166 766.803330018 665.46326134 c 128,-1,15
 757.792309769 669.04633102 757.792309769 669.04633102 748.055477695 672.922698983 c 0,16,17
 680.803625653 700.15687828 680.803625653 700.15687828 630.026657429 717.646659511 c 128,-1,18
 579.249689204 735.136440742 579.249689204 735.136440742 538.535106071 744.473100704 c 128,-1,19
 497.820522938 753.809760666 497.820522938 753.809760666 469.528023806 753.687752923 c 0,20,21
 427.545142533 753.804291754 427.545142533 753.804291754 389.701070772 741.863999629 c 128,-1,22
 351.856999012 729.923707504 351.856999012 729.923707504 319.275108995 706.457728821 c 128,-1,23
 286.693218978 682.991750139 286.693218978 682.991750139 259.94175455 648.533895416 c 2,24,-1
 246.931496747 631.77572599 l 1,25,-1
 144.346917741 682.421136162 l 1,26,27
 261.405925788 875.064249624 261.405925788 875.064249624 471.160198282 875.840983806 c 0,28,29
 510.773994552 875.890639367 510.773994552 875.890639367 555.794035492 866.946795355 c 128,-1,30
 600.814076432 858.002951342 600.814076432 858.002951342 652.527288054 839.523249601 c 128,-1,31
 704.240499676 821.04354786 704.240499676 821.04354786 761.850380812 793.060452191 c 0,32,33
 1052.59569329 651.391989715 1052.59569329 651.391989715 1225.75681022 633.031228943 c 1,34,-1
 1216.94420308 515.141986381 l 1,35,36
 1055.92268244 503.792950472 1055.92268244 503.792950472 945.993153523 478.80947015 c 0,37,38
 610.528756135 400.99076743 610.528756135 400.99076743 437.822818739 248.966901261 c 128,-1,39
 265.116881343 96.9430350925 265.116881343 96.9430350925 265.249030281 -129.282471948 c 0,40,41
 265.114686688 -328.187907681 265.114686688 -328.187907681 409.101367603 -428.041292114 c 128,-1,42
 553.088048519 -527.894676547 553.088048519 -527.894676547 826.353764056 -527.7831881 c 0,43,44
 1030.83492908 -527.987839808 1030.83492908 -527.987839808 1221.56973045 -445.172015337 c 1,45,-1
 1245.18289498 -558.999938431 l 1,46,47
 1058.68688072 -643.019793028 1058.68688072 -643.019793028 811.547450043 -643.249029537 c 0,48,49
 434.131648575 -643.008367399 434.131648575 -643.008367399 276.011845807 -471.923347364 c 0,50,51
 154.987304708 -341.229376405 154.987304708 -341.229376405 154.987304708 -144.851950345 c 0,0,1
EndSplineSet
Substitution2: "'fina' Terminal Forms in Arabic lookup 9 subtable" uniFEA2
Substitution2: "'medi' Medial Forms in Arabic lookup 11 subtable" uniFEA4
Substitution2: "'init' Initial Forms in Arabic lookup 13 subtable" uniFEA3
EndChar

StartChar: uni062F
Encoding: 1583 1583 23
GlifName: uni062F_
Width: 974
VWidth: 2952
GlyphClass: 2
Flags: W
AnchorPoint: "Anchor-10" 376.137 1211.03 basechar 0
AnchorPoint: "Anchor-7" 437.24 -239.316 basechar 0
LayerCount: 2
Fore
SplineSet
130.982421875 174.740575569 m 1,0,1
 237.854909725 155.012329083 237.854909725 155.012329083 321.65438398 155.107423137 c 0,2,3
 722.007590969 154.991294578 722.007590969 154.991294578 721.954100674 366.373559198 c 0,4,5
 721.96270894 401.749134599 721.96270894 401.749134599 710.127615091 438.185959425 c 0,6,7
 698.292521243 474.62278425 698.292521243 474.62278425 674.778126891 511.706700435 c 0,8,9
 651.26373254 548.79061662 651.26373254 548.79061662 617.360029124 586.645689397 c 0,10,11
 583.456325707 624.500762174 583.456325707 624.500762174 538.07864423 663.88247238 c 0,12,13
 492.700962752 703.264182586 492.700962752 703.264182586 438.471636633 743.048980625 c 0,14,15
 384.242310514 782.833778665 384.242310514 782.833778665 318.827600149 824.946784276 c 1,16,-1
 386.425330933 927.503272939 l 1,17,18
 842.038861054 648.409194639 842.038861054 648.409194639 842.479517947 368.935798099 c 0,19,20
 842.259076836 200.719027333 842.259076836 200.719027333 719.059677511 116.66926753 c 0,21,22
 595.860278185 32.6195077265 595.860278185 32.6195077265 334.749093371 32.2597026827 c 0,23,24
 225.347095719 32.0355976773 225.347095719 32.0355976773 130.982421875 50.254616188 c 1,25,-1
 130.982421875 174.740575569 l 1,0,1
EndSplineSet
Substitution2: "'fina' Terminal Forms in Arabic lookup 9 subtable" uniFEAA
EndChar

StartChar: uni0631
Encoding: 1585 1585 25
GlifName: uni0631
Width: 775
VWidth: 2144
GlyphClass: 2
Flags: W
AnchorPoint: "Anchor-10" 467.256 926.2 basechar 0
AnchorPoint: "Anchor-7" 322.969 -667.998 basechar 0
LayerCount: 2
Fore
SplineSet
584.011843839 493.566246397 m 1,0,1
 654.038169385 312.365191639 654.038169385 312.365191639 654.375019727 156.958759983 c 0,2,3
 654.571219281 -14.1251046329 654.571219281 -14.1251046329 590.647290871 -140.178341436 c 128,-1,4
 526.72336246 -266.231578239 526.72336246 -266.231578239 396.440203517 -349.536478216 c 128,-1,5
 266.157044574 -432.841378193 266.157044574 -432.841378193 67.7642497643 -473.722854238 c 1,6,-1
 27.8985793754 -372.265970036 l 1,7,8
 280.367859278 -318.251647453 280.367859278 -318.251647453 411.233952394 -186.391370429 c 128,-1,9
 542.10004551 -54.5310934042 542.10004551 -54.5310934042 543.250519949 152.077644875 c 0,10,11
 543.614223425 217.997121798 543.614223425 217.997121798 526.339235813 293.704866164 c 128,-1,12
 509.064248201 369.41261053 509.064248201 369.41261053 474.823019102 454.410198219 c 1,13,-1
 584.011843839 493.566246397 l 1,0,1
EndSplineSet
PairPos2: "'kern' Horizontal Kerning lookup 15-5" uni06C0 dx=-178 dy=0 dh=-178 dv=0 dx=0 dy=0 dh=0 dv=0
PairPos2: "'kern' Horizontal Kerning lookup 15-2" uniFBFE dx=60 dy=0 dh=60 dv=0 dx=0 dy=0 dh=0 dv=0
PairPos2: "'kern' Horizontal Kerning lookup 15-1" uniFEE7 dx=-178 dy=0 dh=-178 dv=0 dx=0 dy=0 dh=0 dv=0
PairPos2: "'kern' Horizontal Kerning lookup 15-2" uniFB90 dx=-226 dy=0 dh=-226 dv=0 dx=0 dy=0 dh=0 dv=0
PairPos2: "'kern' Horizontal Kerning lookup 15-2" uniFB8E dx=-226 dy=0 dh=-226 dv=0 dx=0 dy=0 dh=0 dv=0
PairPos2: "'kern' Horizontal Kerning lookup 15-2" uni06A9 dx=-226 dy=0 dh=-226 dv=0 dx=0 dy=0 dh=0 dv=0
PairPos2: "'kern' Horizontal Kerning lookup 15-2" uni064A dx=-60 dy=0 dh=-60 dv=0 dx=0 dy=0 dh=0 dv=0
PairPos2: "'kern' Horizontal Kerning lookup 15-2" afii57414 dx=-60 dy=0 dh=-60 dv=0 dx=0 dy=0 dh=0 dv=0
PairPos2: "'kern' Horizontal Kerning lookup 15-2" uni0649 dx=-60 dy=0 dh=-60 dv=0 dx=0 dy=0 dh=0 dv=0
PairPos2: "'kern' Horizontal Kerning lookup 15-2" uniFEEB dx=-178 dy=0 dh=-178 dv=0 dx=0 dy=0 dh=0 dv=0
PairPos2: "'kern' Horizontal Kerning lookup 15-2" uni0647 dx=-178 dy=0 dh=-178 dv=0 dx=0 dy=0 dh=0 dv=0
PairPos2: "'kern' Horizontal Kerning lookup 15-2" uni0646 dx=-60 dy=0 dh=-60 dv=0 dx=0 dy=0 dh=0 dv=0
PairPos2: "'kern' Horizontal Kerning lookup 15-2" uniFEE3 dx=-178 dy=0 dh=-178 dv=0 dx=0 dy=0 dh=0 dv=0
PairPos2: "'kern' Horizontal Kerning lookup 15-2" uni0645 dx=-178 dy=0 dh=-178 dv=0 dx=0 dy=0 dh=0 dv=0
PairPos2: "'kern' Horizontal Kerning lookup 15-2" uniFEFB dx=-143 dy=0 dh=-143 dv=0 dx=0 dy=0 dh=0 dv=0
PairPos2: "'kern' Horizontal Kerning lookup 15-2" uniFEDF dx=-143 dy=0 dh=-143 dv=0 dx=0 dy=0 dh=0 dv=0
PairPos2: "'kern' Horizontal Kerning lookup 15-2" uni0644 dx=-60 dy=0 dh=-60 dv=0 dx=0 dy=0 dh=0 dv=0
PairPos2: "'kern' Horizontal Kerning lookup 15-2" uniFEDB dx=-226 dy=0 dh=-226 dv=0 dx=0 dy=0 dh=0 dv=0
PairPos2: "'kern' Horizontal Kerning lookup 15-2" uni0643 dx=-143 dy=0 dh=-143 dv=0 dx=0 dy=0 dh=0 dv=0
PairPos2: "'kern' Horizontal Kerning lookup 15-2" uniFED7 dx=-178 dy=0 dh=-178 dv=0 dx=0 dy=0 dh=0 dv=0
PairPos2: "'kern' Horizontal Kerning lookup 15-2" uni0642 dx=-60 dy=0 dh=-60 dv=0 dx=0 dy=0 dh=0 dv=0
PairPos2: "'kern' Horizontal Kerning lookup 15-2" uniFED3 dx=-178 dy=0 dh=-178 dv=0 dx=0 dy=0 dh=0 dv=0
PairPos2: "'kern' Horizontal Kerning lookup 15-2" uni0641 dx=-178 dy=0 dh=-178 dv=0 dx=0 dy=0 dh=0 dv=0
PairPos2: "'kern' Horizontal Kerning lookup 15-2" uniFECF dx=-178 dy=0 dh=-178 dv=0 dx=0 dy=0 dh=0 dv=0
PairPos2: "'kern' Horizontal Kerning lookup 15-2" uniFECB dx=-178 dy=0 dh=-178 dv=0 dx=0 dy=0 dh=0 dv=0
PairPos2: "'kern' Horizontal Kerning lookup 15-2" uniFEC7 dx=-178 dy=0 dh=-178 dv=0 dx=0 dy=0 dh=0 dv=0
PairPos2: "'kern' Horizontal Kerning lookup 15-2" uni0638 dx=-178 dy=0 dh=-178 dv=0 dx=0 dy=0 dh=0 dv=0
PairPos2: "'kern' Horizontal Kerning lookup 15-2" uniFEC3 dx=-178 dy=0 dh=-178 dv=0 dx=0 dy=0 dh=0 dv=0
PairPos2: "'kern' Horizontal Kerning lookup 15-2" uni0637 dx=-178 dy=0 dh=-178 dv=0 dx=0 dy=0 dh=0 dv=0
PairPos2: "'kern' Horizontal Kerning lookup 15-2" uniFEBF dx=-178 dy=0 dh=-178 dv=0 dx=0 dy=0 dh=0 dv=0
PairPos2: "'kern' Horizontal Kerning lookup 15-2" uni0636 dx=-178 dy=0 dh=-178 dv=0 dx=0 dy=0 dh=0 dv=0
PairPos2: "'kern' Horizontal Kerning lookup 15-2" uniFEBB dx=-178 dy=0 dh=-178 dv=0 dx=0 dy=0 dh=0 dv=0
PairPos2: "'kern' Horizontal Kerning lookup 15-2" uni0635 dx=-178 dy=0 dh=-178 dv=0 dx=0 dy=0 dh=0 dv=0
PairPos2: "'kern' Horizontal Kerning lookup 15-2" uniFEB7 dx=-178 dy=0 dh=-178 dv=0 dx=0 dy=0 dh=0 dv=0
PairPos2: "'kern' Horizontal Kerning lookup 15-2" uni0634 dx=-178 dy=0 dh=-178 dv=0 dx=0 dy=0 dh=0 dv=0
PairPos2: "'kern' Horizontal Kerning lookup 15-2" uniFEB3 dx=-178 dy=0 dh=-178 dv=0 dx=0 dy=0 dh=0 dv=0
PairPos2: "'kern' Horizontal Kerning lookup 15-2" uni0633 dx=-178 dy=0 dh=-178 dv=0 dx=0 dy=0 dh=0 dv=0
PairPos2: "'kern' Horizontal Kerning lookup 15-2" uni0630 dx=-178 dy=0 dh=-178 dv=0 dx=0 dy=0 dh=0 dv=0
PairPos2: "'kern' Horizontal Kerning lookup 15-2" uni062F dx=-178 dy=0 dh=-178 dv=0 dx=0 dy=0 dh=0 dv=0
PairPos2: "'kern' Horizontal Kerning lookup 15-2" uniFEA7 dx=-178 dy=0 dh=-178 dv=0 dx=0 dy=0 dh=0 dv=0
PairPos2: "'kern' Horizontal Kerning lookup 15-2" uniFEA3 dx=-178 dy=0 dh=-178 dv=0 dx=0 dy=0 dh=0 dv=0
PairPos2: "'kern' Horizontal Kerning lookup 15-2" uniFE9F dx=-178 dy=0 dh=-178 dv=0 dx=0 dy=0 dh=0 dv=0
PairPos2: "'kern' Horizontal Kerning lookup 15-2" uniFE9B dx=-178 dy=0 dh=-178 dv=0 dx=0 dy=0 dh=0 dv=0
PairPos2: "'kern' Horizontal Kerning lookup 15-2" uni062B dx=-178 dy=0 dh=-178 dv=0 dx=0 dy=0 dh=0 dv=0
PairPos2: "'kern' Horizontal Kerning lookup 15-2" uniFE97 dx=-178 dy=0 dh=-178 dv=0 dx=0 dy=0 dh=0 dv=0
PairPos2: "'kern' Horizontal Kerning lookup 15-2" uni062A dx=-178 dy=0 dh=-178 dv=0 dx=0 dy=0 dh=0 dv=0
PairPos2: "'kern' Horizontal Kerning lookup 15-2" uni0629 dx=-178 dy=0 dh=-178 dv=0 dx=0 dy=0 dh=0 dv=0
PairPos2: "'kern' Horizontal Kerning lookup 15-2" uni0628 dx=-178 dy=0 dh=-178 dv=0 dx=0 dy=0 dh=0 dv=0
PairPos2: "'kern' Horizontal Kerning lookup 15-2" uni0627 dx=-143 dy=0 dh=-143 dv=0 dx=0 dy=0 dh=0 dv=0
PairPos2: "'kern' Horizontal Kerning lookup 15-2" uni0623 dx=-143 dy=0 dh=-143 dv=0 dx=0 dy=0 dh=0 dv=0
PairPos2: "'kern' Horizontal Kerning lookup 15-2" uni0622 dx=-143 dy=0 dh=-143 dv=0 dx=0 dy=0 dh=0 dv=0
PairPos2: "'kern' Horizontal Kerning lookup 15-2" uni0621 dx=-178 dy=0 dh=-178 dv=0 dx=0 dy=0 dh=0 dv=0
PairPos2: "'kern' Horizontal Kerning lookup 15-2" uniFB94 dx=-226 dy=0 dh=-226 dv=0 dx=0 dy=0 dh=0 dv=0
PairPos2: "'kern' Horizontal Kerning lookup 15-2" uniFB92 dx=-226 dy=0 dh=-226 dv=0 dx=0 dy=0 dh=0 dv=0
PairPos2: "'kern' Horizontal Kerning lookup 15-2" uni06AF dx=-226 dy=0 dh=-226 dv=0 dx=0 dy=0 dh=0 dv=0
PairPos2: "'kern' Horizontal Kerning lookup 15-2" afii57506 dx=-178 dy=0 dh=-178 dv=0 dx=0 dy=0 dh=0 dv=0
PairPos2: "'kern' Horizontal Kerning lookup 15-2" afii57440 dx=-178 dy=0 dh=-178 dv=0 dx=0 dy=0 dh=0 dv=0
PairPos2: "'kern' Horizontal Kerning lookup 15-2" uniFE8B dx=-178 dy=0 dh=-178 dv=0 dx=0 dy=0 dh=0 dv=0
Substitution2: "'fina' Terminal Forms in Arabic lookup 9 subtable" uniFEAE
EndChar

StartChar: uni0633
Encoding: 1587 1587 27
GlifName: uni0633
Width: 2470
VWidth: 2952
GlyphClass: 2
Flags: W
AnchorPoint: "Anchor-7" 716.902 -681.086 basechar 0
AnchorPoint: "Anchor-10" 1808.53 1137.1 basechar 0
LayerCount: 2
Fore
SplineSet
1319.92042366 56.2233175997 m 2,0,1
 1319.04046973 -95.9162301844 1319.04046973 -95.9162301844 1266.90050888 -203.842682161 c 0,2,3
 1126 -490 1126 -490 727.316887448 -489.724612275 c 0,4,5
 424 -490 424 -490 277.710201939 -354.009431399 c 0,6,7
 131 -218 131 -218 131.752908717 61.0084732407 c 0,8,9
 132 251 132 251 209.601575391 450.845560052 c 1,10,-1
 313.261733609 408.119630308 l 1,11,12
 248 228 248 228 248.268561256 62.8802023285 c 0,13,14
 248 -152 248 -152 372.410639053 -262.471303805 c 128,-1,15
 497 -373 497 -373 734.414096776 -373.203121869 c 0,16,17
 889 -373 889 -373 995.457871163 -319.189162075 c 0,18,19
 1102 -265 1102 -265 1155.78747927 -159.223139027 c 0,20,21
 1210 -53 1210 -53 1210.5545997 101.861014858 c 0,22,23
 1211 161 1211 161 1201.89054928 219.451051325 c 0,24,25
 1193 278 1193 278 1175.53797744 337.00922582 c 128,-1,26
 1158 396 1158 396 1131.69527785 454.401810493 c 1,27,-1
 1244.00057115 493.638942835 l 1,28,-1
 1294.43547627 337.831140531 l 2,29,30
 1324 248 1324 248 1387.06636544 201.798679279 c 0,31,32
 1451 155 1451 155 1544.50228959 154.992187529 c 0,33,34
 1645 155 1645 155 1698.67384154 210.81186304 c 0,35,36
 1755.95804302 270.059427196 1755.95804302 270.059427196 1752.30134181 368.858182044 c 0,37,38
 1752 377 1752 377 1752.16293792 385.156781995 c 0,39,40
 1752 393 1752 393 1751.92183553 400.909713703 c 128,-1,41
 1752 409 1752 409 1751.5775604 416.121111935 c 0,42,43
 1751 424 1751 424 1751.12946016 430.790853489 c 0,44,45
 1751 438 1751 438 1750.57707244 444.923356999 c 128,-1,46
 1750 452 1750 452 1749.91974484 458.518499261 c 0,47,48
 1749.97031993 458.821930758 1749.97031993 458.821930758 1749.15700314 471.580415043 c 2,49,-1
 1745.56628165 527.907991521 l 1,50,-1
 1850.7969099 540.258377445 l 1,51,-1
 1864.68090363 340.552204985 l 2,52,53
 1871 253 1871 253 1918.04552219 205.280007864 c 0,54,55
 1966 157 1966 157 2048.10489446 157.500183381 c 0,56,57
 2134 158 2134 158 2177.58798799 222.03092103 c 128,-1,58
 2221 286 2221 286 2220.42259719 399.440923093 c 0,59,60
 2220 496 2220 496 2183.40760699 633.068075416 c 1,61,-1
 2297.08142388 663.483000157 l 1,62,63
 2337 526 2337 526 2336.4365787 400.476529253 c 0,64,65
 2336 187 2336 187 2225.03125722 89.7443769832 c 0,66,67
 2158 31 2158 31 2055.17634943 30.9121059953 c 0,68,69
 1882 31 1882 31 1818.03417969 182.00390625 c 1,70,71
 1709 30 1709 30 1542.82612388 29.9189389859 c 0,72,73
 1409 30 1409 30 1320.28529009 119.30686332 c 1,74,-1
 1319.92042366 56.2233175997 l 2,0,1
EndSplineSet
Substitution2: "'fina' Terminal Forms in Arabic lookup 9 subtable" uniFEB2
Substitution2: "'medi' Medial Forms in Arabic lookup 11 subtable" uniFEB4
Substitution2: "'init' Initial Forms in Arabic lookup 13 subtable" uniFEB3
EndChar

StartChar: uni0635
Encoding: 1589 1589 29
GlifName: uni0635
Width: 2587
VWidth: 2952
GlyphClass: 2
Flags: W
AnchorPoint: "Anchor-7" 716.902 -681.086 basechar 0
AnchorPoint: "Anchor-10" 2056.53 1236.1 basechar 0
LayerCount: 2
Fore
SplineSet
1294.45806777 337.761055002 m 2,0,1
 1309.2594825 292.034720348 1309.2594825 292.034720348 1325.78758704 260.529600052 c 128,-1,2
 1342.31569158 229.024479755 1342.31569158 229.024479755 1366.69828768 207.605058668 c 128,-1,3
 1391.08088377 186.185637581 1391.08088377 186.185637581 1420.84451814 183.252084718 c 2,4,-1
 1439.9328106 181.370711148 l 1,5,-1
 1449.6512287 197.907180706 l 2,6,7
 1781.14959 761.971466057 1781.14959 761.971466057 2109.24531888 761.425909406 c 0,8,9
 2154.84580605 761.292620236 2154.84580605 761.292620236 2194.98796361 752.749127546 c 128,-1,10
 2235.13012117 744.205634855 2235.13012117 744.205634855 2269.85018071 727.436560433 c 128,-1,11
 2304.57024025 710.66748601 2304.57024025 710.66748601 2334.85986083 685.438086926 c 0,12,13
 2454.96773495 585.923613218 2454.96773495 585.923613218 2454.59689261 423.905019455 c 0,14,15
 2453.86038578 228.420791827 2453.86038578 228.420791827 2285.05242863 129.210395913 c 128,-1,16
 2116.24447148 30 2116.24447148 30 1763.15136719 30 c 2,17,-1
 1712.34082031 30 l 2,18,19
 1591.04515898 30 1591.04515898 30 1503.02845714 43.6345687056 c 128,-1,20
 1415.01175531 57.2691374111 1415.01175531 57.2691374111 1363.24302535 82.9290701883 c 2,21,-1
 1320.19828905 104.264827137 l 1,22,-1
 1319.92042366 56.2233175997 l 2,23,24
 1319.03973241 -96.0437107818 1319.03973241 -96.0437107818 1266.90050888 -203.842682161 c 0,25,26
 1126.3197966 -489.987694807 1126.3197966 -489.987694807 727.316887448 -489.724612275 c 0,27,28
 424.029249052 -489.8579646 424.029249052 -489.8579646 277.710201939 -354.009431399 c 128,-1,29
 131.391154826 -218.160898197 131.391154826 -218.160898197 131.752908717 61.0084732407 c 0,30,31
 131.977260107 250.750336397 131.977260107 250.750336397 209.601575391 450.845560052 c 1,32,-1
 313.261733609 408.119630308 l 1,33,34
 248.011252112 227.811620251 248.011252112 227.811620251 248.268561256 62.8802023285 c 0,35,36
 248.126479044 -151.845284801 248.126479044 -151.845284801 372.410639053 -262.471303805 c 128,-1,37
 496.694799062 -373.097322809 496.694799062 -373.097322809 734.414096776 -373.203121869 c 0,38,39
 889.353568105 -373.132334402 889.353568105 -373.132334402 995.457871163 -319.189162075 c 128,-1,40
 1101.56217422 -265.245989749 1101.56217422 -265.245989749 1155.78747927 -159.223139027 c 128,-1,41
 1210.01278431 -53.2002883051 1210.01278431 -53.2002883051 1210.5545997 101.861014858 c 0,42,43
 1210.69651997 160.522637502 1210.69651997 160.522637502 1201.89054928 219.451051325 c 128,-1,44
 1193.08457858 278.379465148 1193.08457858 278.379465148 1175.53797744 337.00922582 c 128,-1,45
 1157.99137629 395.638986492 1157.99137629 395.638986492 1131.69527785 454.401810493 c 1,46,-1
 1244.00057115 493.638942835 l 1,47,-1
 1294.45806777 337.761055002 l 2,0,1
1758.78092015 154.534190148 m 2,48,49
 2331.91409917 155.025639676 2331.91409917 155.025639676 2332.66096603 415.273990361 c 0,50,51
 2332.8520986 472.594480532 2332.8520986 472.594480532 2309.88548537 518.583828238 c 128,-1,52
 2286.91887214 564.573175944 2286.91887214 564.573175944 2242.03507625 595.58194924 c 0,53,54
 2214.23851364 614.757121128 2214.23851364 614.757121128 2181.57557198 624.503174431 c 128,-1,55
 2148.91263033 634.249227734 2148.91263033 634.249227734 2112.30579444 634.57265543 c 0,56,57
 2027.69895816 635.1018262 2027.69895816 635.1018262 1940.57824329 584.779828544 c 128,-1,58
 1853.45752843 534.457830888 1853.45752843 534.457830888 1767.1385406 439.078521673 c 128,-1,59
 1680.81955278 343.699212457 1680.81955278 343.699212457 1589.37533637 200.56863007 c 2,60,-1
 1559.86119558 154.372420763 l 1,61,-1
 1614.68064718 154.417002108 l 1,62,-1
 1758.78092015 154.534190148 l 2,48,49
EndSplineSet
Substitution2: "'fina' Terminal Forms in Arabic lookup 9 subtable" uniFEBA
Substitution2: "'medi' Medial Forms in Arabic lookup 11 subtable" uniFEBC
Substitution2: "'init' Initial Forms in Arabic lookup 13 subtable" uniFEBB
EndChar

StartChar: uni0637
Encoding: 1591 1591 31
GlifName: uni0637
Width: 1480
VWidth: 2952
GlyphClass: 2
Flags: W
AnchorPoint: "Anchor-10" 471.36 1528.58 basechar 0
AnchorPoint: "Anchor-7" 641.602 -236.453 basechar 0
LayerCount: 2
Fore
SplineSet
1349.6740033 423.914396194 m 0,0,1
 1348 228 1348 228 1179.59738575 129.229005171 c 0,2,3
 1011 30 1011 30 658.228515625 30 c 2,4,-1
 131.302734375 30 l 1,5,-1
 131.302734375 154.242795644 l 1,6,-1
 321.843130615 154.376957918 l 1,7,-1
 323.570669678 154.377934481 l 1,8,-1
 340.109293865 154.387283624 l 1,9,-1
 348.930347878 168.377107908 l 1,10,-1
 421.00944944 282.691561032 l 1,11,-1
 425.6328125 290.024022292 l 1,12,-1
 425.6328125 298.692382812 l 1,13,-1
 425.6328125 1360.87402344 l 5,14,-1
 538.946289062 1360.87402344 l 5,15,-1
 538.946289062 544.209960938 l 1,16,-1
 538.946289062 458.891951884 l 1,17,-1
 592.344146253 525.433904939 l 2,18,19
 785 766 785 766 1003.92046099 761.429778207 c 0,20,21
 1142 759 1142 759 1229.87286075 685.491266384 c 0,22,23
 1291 635 1291 635 1320.17525908 570.588671367 c 0,24,25
 1350 506 1350 506 1349.6740033 423.914396194 c 0,0,1
1007.35568271 634.572997273 m 0,26,27
 921.733963891 634.731044325 921.733963891 634.731044325 834.299531837 584.333103792 c 128,-1,28
 746.865099782 533.935163259 746.865099782 533.935163259 660.84346706 438.650840612 c 128,-1,29
 574.821834339 343.366517965 574.821834339 343.366517965 484.409900844 200.583553077 c 2,30,-1
 455.250869951 154.534179688 l 1,31,-1
 509.755859375 154.534179688 l 1,32,-1
 653.858783273 154.534190761 l 2,33,34
 1225.77468272 155.025570809 1225.77468272 155.025570809 1227.73798978 415.222214035 c 0,35,36
 1228.04053259 532.700264014 1228.04053259 532.700264014 1137.09368857 595.594725931 c 0,37,38
 1081.45113607 633.917571849 1081.45113607 633.917571849 1007.35568271 634.572997273 c 0,26,27
EndSplineSet
Substitution2: "'fina' Terminal Forms in Arabic lookup 9 subtable" uniFEC2
Substitution2: "'medi' Medial Forms in Arabic lookup 11 subtable" uniFEC4
Substitution2: "'init' Initial Forms in Arabic lookup 13 subtable" uniFEC3
EndChar

StartChar: uni0639
Encoding: 1593 1593 33
GlifName: uni0639
Width: 1346
VWidth: 2952
GlyphClass: 2
Flags: W
AnchorPoint: "Anchor-7" 580.833 -810.619 basechar 0
AnchorPoint: "Anchor-10" 723.478 1366.07 basechar 0
LayerCount: 2
Fore
SplineSet
640.104846811 433.655660393 m 2,0,1
 816.624722323 464.011011185 816.624722323 464.011011185 941.349028916 464.547225068 c 0,2,3
 1017.28532268 464.914070886 1017.28532268 464.914070886 1090.09385899 458.174485816 c 1,4,-1
 1075.09804908 340.663522082 l 1,5,6
 1009.92648098 342.871402676 1009.92648098 342.871402676 984.174368632 342.160750763 c 0,7,8
 622.198017641 331.876491565 622.198017641 331.876491565 433.654788105 210.522853548 c 128,-1,9
 245.111558569 89.1692155314 245.111558569 89.1692155314 245.240241317 -144.834084086 c 0,10,11
 245.153197042 -272.789522133 245.153197042 -272.789522133 309.649082253 -358.790679735 c 128,-1,12
 374.144967465 -444.791837336 374.144967465 -444.791837336 496.055385635 -486.48376344 c 128,-1,13
 617.965803805 -528.175689544 617.965803805 -528.175689544 795.343196026 -528.266576847 c 0,14,15
 991.738471795 -528.014480222 991.738471795 -528.014480222 1181.5607623 -445.612182529 c 1,16,-1
 1205.20468477 -559.58837515 l 1,17,18
 1020.39952994 -643.978737892 1020.39952994 -643.978737892 783.031465962 -643.733405977 c 0,19,20
 419.962590162 -643.990802668 419.962590162 -643.990802668 255.682859966 -469.265540494 c 0,21,22
 134.997416212 -345.175645691 134.997416212 -345.175645691 134.97558588 -152.313390377 c 0,23,24
 134.981448472 -58.1069219668 134.981448472 -58.1069219668 155.915539448 21.0655266801 c 128,-1,25
 176.849630424 100.237975327 176.849630424 100.237975327 219.199995522 165.391931894 c 128,-1,26
 261.55036062 230.545888462 261.55036062 230.545888462 325.303368377 281.680621373 c 128,-1,27
 389.056376134 332.815354283 389.056376134 332.815354283 474.948802291 370.799468442 c 2,28,-1
 512.017174883 387.192174518 l 1,29,-1
 485.511246061 417.855194533 l 2,30,31
 371.988731518 549.182157605 371.988731518 549.182157605 371.843672924 695.002308594 c 0,32,33
 371.987128942 758.287930941 371.987128942 758.287930941 397.235236579 822.582719285 c 0,34,35
 409.415615691 852.909122398 409.415615691 852.909122398 427.96128722 881.323621176 c 128,-1,36
 446.506958749 909.738119953 446.506958749 909.738119953 471.505926777 936.166003116 c 0,37,38
 563.929054828 1034 563.929054828 1034 734 1034 c 0,39,40
 868.521158868 1034 868.521158868 1034 1027.86169865 930.832700161 c 1,41,-1
 984.553801832 834.779785178 l 1,42,43
 846.462806708 910.99528878 846.462806708 910.99528878 743.938141712 910.802777464 c 0,44,45
 598.04226519 911.025978112 598.04226519 911.025978112 530.244070055 798.1887626 c 0,46,47
 495.966096166 742.428521003 495.966096166 742.428521003 496.206756628 682.174860472 c 0,48,49
 496.086795204 656.004030938 496.086795204 656.004030938 502.791702836 629.316580478 c 128,-1,50
 509.496610468 602.629130017 509.496610468 602.629130017 522.671288172 575.903792435 c 0,51,52
 546.478663258 527.941187069 546.478663258 527.941187069 611.367344138 444.76828303 c 2,53,-1
 622.410888198 430.612907734 l 1,54,-1
 640.104846811 433.655660393 l 2,0,1
EndSplineSet
Substitution2: "'fina' Terminal Forms in Arabic lookup 9 subtable" uniFECA
Substitution2: "'medi' Medial Forms in Arabic lookup 11 subtable" uniFECC
Substitution2: "'init' Initial Forms in Arabic lookup 13 subtable" uniFECB
EndChar

StartChar: afii57440
Encoding: 1600 1600 35
GlifName: afii57440
Width: 286
VWidth: 2952
GlyphClass: 2
Flags: W
AnchorPoint: "Anchor-10" 143.774 1376.11 basechar 0
AnchorPoint: "Anchor-7" 147.7 -234.739 basechar 0
LayerCount: 2
Fore
SplineSet
-20.9384765625 30 m 5,0,1
 -20.9384765625 153.999023438 l 5,2,-1
 306.461914062 153.999023438 l 1,3,-1
 305.889648438 30 l 1,4,-1
 -20.9384765625 30 l 5,0,1
EndSplineSet
EndChar

StartChar: uni0643
Encoding: 1603 1603 38
GlifName: uni0643
Width: 1891
VWidth: 2952
GlyphClass: 2
Flags: W
AnchorPoint: "Anchor-7" 740.268 -236.468 basechar 0
AnchorPoint: "Anchor-10" 948.11 1412.05 basechar 0
LayerCount: 2
Fore
SplineSet
841.867956063 154.136718046 m 0,0,1
 1020 154 1020 154 1155.32659831 172.211095485 c 0,2,3
 1290 190 1290 190 1386.79704026 228.240811857 c 0,4,5
 1483 266 1483 266 1532.53959191 327.293221021 c 0,6,7
 1581.82910156 387.831512194 1581.82910156 387.831512194 1581.82910156 471.963867188 c 2,8,-1
 1581.82910156 1360.56640625 l 5,9,-1
 1699.70996094 1360.56640625 l 5,10,-1
 1699.70996094 474.338867188 l 2,11,12
 1700 254 1700 254 1494.5055329 142.24532072 c 0,13,14
 1289 30 1289 30 862.133789062 30 c 2,15,-1
 860.911132812 30 l 2,16,17
 488 30 488 30 308.848840543 144.219012859 c 0,18,19
 130 258 130 258 130.160135179 485.90762687 c 0,20,21
 130 599 130 599 170.55756449 703.17125834 c 1,22,-1
 274.409179688 668.051757812 l 1,23,24
 249 594 249 594 249.425145373 514.37851236 c 0,25,26
 250 333 250 333 402.444819216 243.395570984 c 0,27,28
 555 154 555 154 841.867956063 154.136718046 c 0,0,1
716.16015625 628.855985287 m 1,29,30
 791.140106759 621.879083704 791.140106759 621.879083704 848.343934032 621.267003485 c 0,31,32
 960.866509938 620.985214495 960.866509938 620.985214495 1019.96067354 645.17745394 c 0,33,34
 1053.17938259 658.898304173 1053.17938259 658.898304173 1072.69871883 683.636056734 c 128,-1,35
 1092.21805507 708.373809294 1092.21805507 708.373809294 1092.7456689 741.314844231 c 0,36,37
 1093.07812046 798.303972931 1093.07812046 798.303972931 1051.57057516 833.474388788 c 0,38,39
 1031.86419718 850.437184938 1031.86419718 850.437184938 1005.53989732 860.442808079 c 128,-1,40
 979.215597458 870.44843122 979.215597458 870.44843122 945.408924872 875.138728289 c 0,41,42
 846.926634865 890.111579793 846.926634865 890.111579793 803.06736505 934.591888697 c 128,-1,43
 759.208095234 979.072197601 759.208095234 979.072197601 760.921629145 1057.75597188 c 0,44,45
 765.118063229 1228.70467871 765.118063229 1228.70467871 1093.61035156 1260.88202835 c 1,46,-1
 1093.61035156 1192.08747533 l 1,47,48
 1033.73467252 1185.36480036 1033.73467252 1185.36480036 989.070496684 1175.19312589 c 128,-1,49
 944.406320844 1165.02145141 944.406320844 1165.02145141 908.064217168 1148.71768753 c 128,-1,50
 871.722113491 1132.41392365 871.722113491 1132.41392365 852.905735278 1107.72371109 c 128,-1,51
 834.089357064 1083.03349853 834.089357064 1083.03349853 834.139605045 1050.45031811 c 0,52,53
 833.951637069 950.246298681 833.951637069 950.246298681 998.346558632 925.106877037 c 0,54,55
 1086.01003704 911.596757319 1086.01003704 911.596757319 1125.82766085 868.422873948 c 128,-1,56
 1165.64528465 825.248990577 1165.64528465 825.248990577 1165.36439346 746.217169916 c 0,57,58
 1165.05348051 642.829027146 1165.05348051 642.829027146 1062.00364564 586.559627329 c 0,59,60
 1028.59959681 568.289482943 1028.59959681 568.289482943 979.434433801 558.6680014 c 128,-1,61
 930.269270791 549.046519857 930.269270791 549.046519857 865.966674825 549.088848678 c 0,62,63
 849.327251888 549.070364944 849.327251888 549.070364944 831.386097848 549.782273712 c 128,-1,64
 813.444943808 550.494182481 813.444943808 550.494182481 794.618169366 551.909884073 c 128,-1,65
 775.791394924 553.325585666 775.791394924 553.325585666 756.098242157 555.433400323 c 128,-1,66
 736.405089391 557.54121498 736.405089391 557.54121498 716.16015625 560.312663536 c 1,67,-1
 716.16015625 628.855985287 l 1,29,30
EndSplineSet
Substitution2: "'fina' Terminal Forms in Arabic lookup 9 subtable" uniFEDA
Substitution2: "'medi' Medial Forms in Arabic lookup 11 subtable" uniFEDC
Substitution2: "'init' Initial Forms in Arabic lookup 13 subtable" uniFEDB
EndChar

StartChar: uni0644
Encoding: 1604 1604 39
GlifName: uni0644
Width: 1391
VWidth: 2952
GlyphClass: 2
Flags: W
AnchorPoint: "Anchor-7" 679.902 -672.086 basechar 0
AnchorPoint: "Anchor-10" 603.908 1154.66 basechar 0
LayerCount: 2
Fore
SplineSet
1092.60443782 69.7446153053 m 2,0,-1
 1095.84277344 1360.99316406 l 5,1,-1
 1207.86914062 1360.99316406 l 5,2,-1
 1207.18554818 109.330134157 l 2,3,4
 1207 -196 1207 -196 1077.23113593 -342.888007042 c 0,5,6
 947 -490 947 -490 681.415934754 -489.734378152 c 0,7,8
 402 -490 402 -490 267.181269138 -359.306241352 c 0,9,10
 132 -229 132 -229 132.740142272 40.6925870914 c 0,11,12
 133 223 133 223 203.037856299 407.137306085 c 1,13,-1
 306.515232581 364.486490197 l 1,14,15
 248 203 248 203 248.246100002 38.2058914123 c 0,16,17
 248 -164 248 -164 358.975722578 -268.334197792 c 0,18,19
 470 -373 470 -373 681.803032653 -373.226557174 c 0,20,21
 816 -373 816 -373 907.789969746 -322.291888139 c 0,22,23
 1002.00965396 -269.882128705 1002.00965396 -269.882128705 1045.99373355 -172.675619748 c 0,24,25
 1092 -70 1092 -70 1092.60443782 69.7446153053 c 2,0,-1
EndSplineSet
Substitution2: "'fina' Terminal Forms in Arabic lookup 9 subtable" uniFEDE
Substitution2: "'medi' Medial Forms in Arabic lookup 11 subtable" uniFEE0
Substitution2: "'init' Initial Forms in Arabic lookup 13 subtable" uniFEDF
EndChar

StartChar: uni0645
Encoding: 1605 1605 40
GlifName: uni0645
Width: 1242
VWidth: 2622
GlyphClass: 2
Flags: W
AnchorPoint: "Anchor-7" 724.983 -336.909 basechar 0
AnchorPoint: "Anchor-10" 769.239 1084.48 basechar 0
LayerCount: 2
Fore
SplineSet
853.123964825 129 m 0,0,1
 925.588262317 129.598878492 925.588262317 129.598878492 964.655550554 174.31096995 c 128,-1,2
 1003.72283879 219.023061408 1003.72283879 219.023061408 1003.35679527 296.894091699 c 0,3,4
 1003.22514967 317.262111932 1003.22514967 317.262111932 1000.50340023 337.515520003 c 128,-1,5
 997.781650796 357.768928075 997.781650796 357.768928075 992.498381842 377.847696081 c 128,-1,6
 987.215112888 397.926464087 987.215112888 397.926464087 979.354671755 417.97226627 c 0,7,8
 966.959051401 448.510962062 966.959051401 448.510962062 948.624963397 472.206853283 c 128,-1,9
 930.290875394 495.902744504 930.290875394 495.902744504 906.802442873 512.060123468 c 128,-1,10
 883.314010351 528.217502432 883.314010351 528.217502432 854.686135667 536.823974517 c 128,-1,11
 826.058260984 545.430446601 826.058260984 545.430446601 793.221861631 546.001913798 c 0,12,13
 629.990658904 548.298569839 629.990658904 548.298569839 544.124336568 308.723404776 c 2,14,-1
 536.767690351 288.197665651 l 1,15,-1
 554.02015122 274.864293828 l 2,16,17
 742.758457989 129 742.758457989 129 853.123964825 129 c 0,0,1
425.773331228 167.719267617 m 0,18,19
 386.253323376 167.266132621 386.253323376 167.266132621 355.713511422 144.777791788 c 128,-1,20
 325.173699468 122.289450954 325.173699468 122.289450954 304.552977553 81.8029766555 c 128,-1,21
 283.932255639 41.3165023565 283.932255639 41.3165023565 270.687668429 -18.9391227272 c 128,-1,22
 257.44308122 -79.194747811 257.44308122 -79.194747811 251.62072003 -151.308191525 c 128,-1,23
 245.798358841 -223.421635239 245.798358841 -223.421635239 245.748071163 -313.038174685 c 0,24,25
 245.976364739 -492.445070185 245.976364739 -492.445070185 257.334581663 -644.813476562 c 1,26,-1
 138.432316042 -644.813476562 l 1,27,28
 128.997903428 -485.779371237 128.997903428 -485.779371237 128.97656243 -341.002043968 c 0,29,30
 128.999511983 -4.16381200768 128.999511983 -4.16381200768 204.727184407 145.374376577 c 0,31,32
 275.719625215 284.6287797 275.719625215 284.6287797 398.127529096 303.041761291 c 2,33,-1
 415.186896726 305.607884982 l 1,34,-1
 421.549841019 321.642845371 l 2,35,36
 492.900812393 501.451114484 492.900812393 501.451114484 585.061399104 588.103462575 c 128,-1,37
 677.221985814 674.755810667 677.221985814 674.755810667 790.029453052 675.382054114 c 0,38,39
 937.853683143 675.945830211 937.853683143 675.945830211 1024.80779889 569.97050165 c 0,40,41
 1069.53523827 515.458934897 1069.53523827 515.458934897 1091.87149958 450.584221478 c 128,-1,42
 1114.20776089 385.709508059 1114.20776089 385.709508059 1114.39247825 309.021935716 c 0,43,44
 1114.20772472 242.186657974 1114.20772472 242.186657974 1098.35793918 188.157331646 c 128,-1,45
 1082.50815364 134.128005318 1082.50815364 134.128005318 1051.25148429 91.7149202553 c 0,46,47
 1020.52746045 49.4198868527 1020.52746045 49.4198868527 971.879439873 28.1731387213 c 128,-1,48
 923.231419301 6.92639059003 923.231419301 6.92639059003 853.039438067 6.8632553273 c 0,49,50
 757.441227694 6.98892905638 757.441227694 6.98892905638 623.209328752 84.3986699568 c 0,51,52
 598.068038775 99.8071546416 598.068038775 99.8071546416 572.512675497 114.076675306 c 128,-1,53
 546.957312219 128.34619597 546.957312219 128.34619597 518.698354097 142.777512745 c 0,54,55
 467.944112048 168.056488039 467.944112048 168.056488039 425.773331228 167.719267617 c 0,18,19
EndSplineSet
Substitution2: "'init' Initial Forms in Arabic lookup 13 subtable" uniFEE3
Substitution2: "'medi' Medial Forms in Arabic lookup 11 subtable" uniFEE4
Substitution2: "'fina' Terminal Forms in Arabic lookup 9 subtable" uniFEE2
EndChar

StartChar: uni0647
Encoding: 1607 1607 42
GlifName: uni0647
Width: 942
VWidth: 2952
GlyphClass: 2
Flags: W
AnchorPoint: "Anchor-10" 424.775 1211.01 basechar 0
AnchorPoint: "Anchor-7" 450.63 -240.576 basechar 0
LayerCount: 2
Fore
SplineSet
442.109813396 666.742336449 m 2,0,1
 343.221570295 580.197830601 343.221570295 580.197830601 292.586282617 502.127693304 c 128,-1,2
 241.950994939 424.057556007 241.950994939 424.057556007 241.88456059 350.968589377 c 0,3,4
 241.951025757 254.829113771 241.951025757 254.829113771 303.403974367 204.412773147 c 128,-1,5
 364.856922977 153.996432522 364.856922977 153.996432522 475.346848349 153.992187522 c 0,6,7
 586.976694727 153.996448894 586.976694727 153.996448894 648.874310475 204.724652606 c 128,-1,8
 710.771926224 255.452856317 710.771926224 255.452856317 710.423724335 352.255511525 c 0,9,10
 710.171891996 422.266731412 710.171891996 422.266731412 652.247603981 499.532221374 c 128,-1,11
 594.323315965 576.797711336 594.323315965 576.797711336 480.585797707 667.610832145 c 2,12,-1
 460.984737113 683.261195464 l 1,13,-1
 442.109813396 666.742336449 l 2,0,1
389.824069911 905.54444936 m 1,14,15
 820.982380002 583.054315295 820.982380002 583.054315295 820.791845814 346.344321863 c 0,16,17
 820.981673224 173.655638991 820.981673224 173.655638991 670.381143825 79.9531665047 c 0,18,19
 598.317001925 34.9471457131 598.317001925 34.9471457131 475.934413916 34.1941877804 c 0,20,21
 362.062980538 34.0113776281 362.062980538 34.0113776281 282.863429495 73.6342070241 c 0,22,23
 131.031817187 149.527567594 131.031817187 149.527567594 131.368388639 345.789675434 c 0,24,25
 131.197572294 441.882391754 131.197572294 441.882391754 185.238951001 543.726746113 c 128,-1,26
 239.280329709 645.571100472 239.280329709 645.571100472 349.817052216 753.012110812 c 2,27,-1
 373.087566421 775.630906635 l 1,28,-1
 348.713965519 797.05645995 l 1,29,-1
 324.613574364 818.241848918 l 1,30,-1
 389.824069911 905.54444936 l 1,14,15
EndSplineSet
Substitution2: "'fina' Terminal Forms in Arabic lookup 9 subtable" uniFEEA
Substitution2: "'medi' Medial Forms in Arabic lookup 11 subtable" uniFEEC
Substitution2: "'init' Initial Forms in Arabic lookup 13 subtable" uniFEEB
EndChar

StartChar: uni0648
Encoding: 1608 1608 43
GlifName: uni0648
Width: 860
VWidth: 2144
GlyphClass: 2
Flags: W
AnchorPoint: "Anchor-7" 412.969 -667.998 basechar 0
AnchorPoint: "Anchor-10" 473.256 1112.2 basechar 0
LayerCount: 2
Fore
SplineSet
142.931936687 -372.350863351 m 1,0,1
 562.4059407 -283.674466897 562.4059407 -283.674466897 639.290859853 5.3933252004 c 2,2,-1
 650.746903578 48.4651434741 l 1,3,-1
 606.530593898 42.866891466 l 2,4,5
 589.815952902 40.750641304 589.815952902 40.750641304 574.430575775 38.8938505831 c 0,6,7
 559.045198647 37.0370598621 559.045198647 37.0370598621 545.765808405 35.5280895636 c 0,8,9
 532.486418164 34.0191192651 532.486418164 34.0191192651 520.739049788 32.7808764624 c 0,10,11
 508.991681412 31.5426336597 508.991681412 31.5426336597 499.312151922 30.6323912383 c 0,12,13
 489.632622432 29.7221488169 489.632622432 29.7221488169 481.703933205 29.0959744859 c 0,14,15
 473.775243979 28.469800155 473.775243979 28.469800155 467.876245638 28.1518061641 c 0,16,17
 461.977247296 27.8338121732 461.977247296 27.8338121732 458.031847216 27.8111543277 c 0,18,19
 284.337893655 26.9495241846 284.337893655 26.9495241846 203.670269242 93.362656625 c 0,20,21
 123.002644828 159.775789065 123.002644828 159.775789065 123.004882788 298.354729787 c 0,22,23
 123.002574365 355.392168819 123.002574365 355.392168819 135.165773494 409.345317212 c 0,24,25
 147.328972623 463.298465605 147.328972623 463.298465605 171.706818245 514.478992366 c 0,26,27
 257.880689985 694.007668813 257.880689985 694.007668813 429.094227786 694.077150544 c 0,28,29
 475.739067238 694.059672778 475.739067238 694.059672778 514.98515338 681.61402256 c 0,30,31
 554.231239522 669.168372342 554.231239522 669.168372342 587.430216062 643.454073805 c 0,32,33
 620.629192602 617.739775269 620.629192602 617.739775269 647.400366337 578.052041593 c 0,34,35
 674.171540072 538.364307916 674.171540072 538.364307916 695.001609539 484.138106409 c 0,36,37
 750.99540972 340.375666719 750.99540972 340.375666719 750.8544932 167.992204939 c 0,38,39
 750.923155449 -96.2606817426 750.923155449 -96.2606817426 610.550700474 -255.199735802 c 0,40,41
 470.178245499 -414.138789861 470.178245499 -414.138789861 182.763256944 -473.720327541 c 1,42,-1
 142.931936687 -372.350863351 l 1,0,1
640.566945719 203.544770897 m 2,43,44
 617.118076303 564.979624391 617.118076303 564.979624391 417.366679076 565.123998613 c 0,45,46
 378.015192172 565.073373719 378.015192172 565.073373719 345.562847094 547.864731649 c 0,47,48
 313.110502016 530.656089578 313.110502016 530.656089578 289.990171729 499.588830445 c 0,49,50
 266.869841442 468.521571312 266.869841442 468.521571312 252.021781206 424.580647773 c 0,51,52
 231.983617167 365.935911289 231.983617167 365.935911289 232.159122647 312.530562909 c 0,53,54
 232.062773684 229.266143276 232.062773684 229.266143276 292.543966984 187.447766447 c 0,55,56
 353.025160285 145.629389618 353.025160285 145.629389618 459.21559245 146.364420896 c 0,57,58
 536.711397671 147.039928122 536.711397671 147.039928122 619.588316402 172.971324145 c 2,59,-1
 642.093619163 180.013018352 l 1,60,-1
 640.566945719 203.544770897 l 2,43,44
EndSplineSet
Substitution2: "'fina' Terminal Forms in Arabic lookup 9 subtable" uniFEEE
EndChar

StartChar: uni0649
Encoding: 1609 1609 44
GlifName: uni0649
Width: 1484
VWidth: 2952
GlyphClass: 2
Flags: MW
AnchorPoint: "Anchor-7" 733.902 -674.086 basechar 0
AnchorPoint: "Anchor-10" 727.6 956.22 basechar 0
LayerCount: 2
Fore
SplineSet
248.268539956 84.221030067 m 0,0,1
 248 -131 248 -131 371.458319194 -241.673094622 c 0,2,3
 495 -353 495 -353 730.850085223 -353.607353657 c 0,4,5
 922 -354 922 -354 1047.05466553 -293.873940404 c 0,6,7
 1251 -196 1251 -196 1251.80768854 -40.3952387243 c 0,8,9
 1252 -12 1252 -12 1236.93454171 8.28377105059 c 0,10,11
 1222 28 1222 28 1198.07098312 37.6164358953 c 0,12,13
 1174.43589008 46.8300774626 1174.43589008 46.8300774626 1143.74630103 47.0141090638 c 2,14,-1
 1030.54484603 47.6929270495 l 2,15,16
 919 48 919 48 867.876827799 96.6745990147 c 0,17,18
 817 145 817 145 816.791971519 248.760683507 c 0,19,20
 817 414 817 414 944.633141309 547.215217174 c 0,21,22
 1081 690 1081 690 1348.32617188 704.068359375 c 5,23,-1
 1348.11523438 571.396484375 l 5,24,25
 1248 566 1248 566 1176.5 543 c 128,-1,26
 1105 520 1105 520 1049.6646683 476.744953131 c 0,27,28
 939 392 939 392 937.437953152 274.514759389 c 0,29,30
 937 228 937 228 961.779003616 198.391231595 c 0,31,32
 986.878991911 169.141016506 986.878991911 169.141016506 1032.04970547 169.21586149 c 2,33,-1
 1151.13485855 169.413177975 l 2,34,35
 1261 170 1261 170 1309.37201793 123.662899893 c 0,36,37
 1357 79 1357 79 1357.3515625 4.1728515625 c 0,38,39
 1357 -150 1357 -150 1290.20648204 -243.58529428 c 0,40,41
 1222 -338 1222 -338 1082.48816745 -402.4436072 c 0,42,43
 1010 -436 1010 -436 921.248873391 -452.315685074 c 0,44,45
 832 -469 832 -469 725.996391798 -469.208986063 c 0,46,47
 287 -469 287 -469 174.277070721 -176.137717379 c 0,48,49
 133 -68 133 -68 132.761700151 80.9763602077 c 0,50,51
 133 277 133 277 228.731033611 514.191667762 c 1,52,-1
 331.967233091 471.639996856 l 1,53,54
 248 260 248 260 248.268539956 84.221030067 c 0,0,1
EndSplineSet
Substitution2: "'fina' Terminal Forms in Arabic lookup 9 subtable" uniFEF0
Substitution2: "'medi' Medial Forms in Arabic lookup 11 subtable" uniFBE9
Substitution2: "'init' Initial Forms in Arabic lookup 13 subtable" uniFBE8
EndChar

StartChar: uni064B
Encoding: 1611 1611 46
GlifName: uni064B_
Width: -26
VWidth: 2316
GlyphClass: 4
Flags: W
AnchorPoint: "Anchor-10" 583.551 1123.65 mark 0
AnchorPoint: "Anchor-9" 583.551 1123.65 mark 0
AnchorPoint: "Anchor-1" 553.285 1596.25 basemark 0
AnchorPoint: "Anchor-1" 583.551 1123.65 mark 0
LayerCount: 2
Fore
SplineSet
341.700195312 1098.74338944 m 1,0,-1
 341.700195312 1169.90729042 l 1,1,-1
 767.099609375 1343.93527714 l 1,2,-1
 767.099609375 1272.77046393 l 1,3,-1
 341.700195312 1098.74338944 l 1,0,-1
341.700195312 1310.74338944 m 1,4,-1
 341.700195312 1381.90729042 l 1,5,-1
 767.099609375 1555.93527714 l 1,6,-1
 767.099609375 1484.77046393 l 1,7,-1
 341.700195312 1310.74338944 l 1,4,-1
EndSplineSet
EndChar

StartChar: uni064C
Encoding: 1612 1612 47
GlifName: uni064C_
Width: -26
VWidth: 2316
GlyphClass: 4
Flags: W
AnchorPoint: "Anchor-10" 680.906 1278.67 mark 0
AnchorPoint: "Anchor-9" 680.906 1278.67 mark 0
AnchorPoint: "Anchor-1" 571.739 1885.46 basemark 0
AnchorPoint: "Anchor-1" 680.906 1278.67 mark 0
LayerCount: 2
Fore
SplineSet
638.129445488 1476.57309765 m 2,0,1
 504.009107071 1524.94892311 504.009107071 1524.94892311 504.095686032 1628.62811337 c 0,2,3
 504.066072382 1648.24443721 504.066072382 1648.24443721 507.705756527 1665.60588425 c 0,4,5
 511.345440673 1682.96733129 511.345440673 1682.96733129 518.546422848 1698.02925958 c 0,6,7
 525.747405022 1713.09118787 525.747405022 1713.09118787 536.601797981 1726.2996058 c 0,8,9
 578.025875634 1776.00110449 578.025875634 1776.00110449 651.813293819 1776.01269564 c 0,10,11
 665.976961037 1776.00975674 665.976961037 1776.00975674 679.003790466 1773.97699299 c 0,12,13
 692.030619895 1771.94422925 692.030619895 1771.94422925 704.029360162 1767.85581697 c 0,14,15
 716.028100428 1763.76740469 716.028100428 1763.76740469 727.015325927 1757.66146866 c 0,16,17
 738.002551427 1751.55553263 738.002551427 1751.55553263 748.164678509 1743.35696387 c 0,18,19
 777.407488116 1719.87434167 777.407488116 1719.87434167 790.528530806 1685.01462605 c 0,20,21
 799.951377657 1659.4549883 799.951377657 1659.4549883 799.392512692 1628.63937147 c 0,22,23
 799.020125083 1573.05425245 799.020125083 1573.05425245 774.811650844 1515.08076277 c 2,24,-1
 768.644699893 1500.31239431 l 1,25,-1
 783.781197092 1495.11408272 l 2,26,27
 798.066258889 1490.2081787 798.066258889 1490.2081787 815.497070312 1488.3921176 c 1,28,-1
 815.497070312 1442.94354102 l 1,29,30
 802.897905614 1444.01364838 802.897905614 1444.01364838 788.309180695 1446.02571742 c 0,31,32
 773.720455777 1448.03778645 773.720455777 1448.03778645 756.321683223 1451.1034864 c 2,33,-1
 744.549623796 1453.17774778 l 1,34,-1
 739.900032926 1442.16569764 l 2,35,36
 724.471552949 1405.62502132 724.471552949 1405.62502132 706.79203845 1375.37543291 c 0,37,38
 689.112523951 1345.12584451 689.112523951 1345.12584451 669.192901583 1321.19511856 c 0,39,40
 649.273279215 1297.26439262 649.273279215 1297.26439262 627.145602201 1279.42175959 c 0,41,42
 605.017925187 1261.57912656 605.017925187 1261.57912656 580.524275933 1249.77071187 c 0,43,44
 556.030626679 1237.96229719 556.030626679 1237.96229719 529.38315894 1232.04442368 c 0,45,46
 502.7356912 1226.12655018 502.7356912 1226.12655018 473.607643133 1225.96369417 c 0,47,48
 447.646166032 1225.83900086 447.646166032 1225.83900086 425.383363515 1230.61586807 c 0,49,50
 403.120560997 1235.39273528 403.120560997 1235.39273528 384.191056944 1245.25225076 c 0,51,52
 365.261552891 1255.11176623 365.261552891 1255.11176623 349.974507718 1270.13643645 c 0,53,54
 334.687462544 1285.16110667 334.687462544 1285.16110667 322.803743159 1305.54338408 c 0,55,56
 310.920023773 1325.92566148 310.920023773 1325.92566148 302.614131361 1351.73593019 c 0,57,58
 294.308238949 1377.54619891 294.308238949 1377.54619891 289.475699648 1408.98903372 c 0,59,60
 284.643160347 1440.43186853 284.643160347 1440.43186853 283.332232315 1477.56628887 c 1,61,-1
 332.348956406 1486.57357589 l 1,62,63
 337.001620603 1383.33671934 337.001620603 1383.33671934 371.660195338 1328.731081 c 0,64,65
 406.318770073 1274.12544266 406.318770073 1274.12544266 472.634620851 1274.27570758 c 0,66,67
 592.821577815 1275.05703126 592.821577815 1275.05703126 685.714870577 1440.85164056 c 2,68,-1
 694.364648193 1456.28963891 l 1,69,-1
 677.718312676 1462.29380077 l 1,70,-1
 638.129445488 1476.57309765 l 2,0,1
722.541171169 1516.86552795 m 1,71,-1
 728.698131829 1531.0644157 l 2,72,73
 750.833860532 1581.90150276 750.833860532 1581.90150276 751.004015245 1626.76982998 c 0,74,75
 750.914389099 1650.15782813 750.914389099 1650.15782813 743.334117513 1668.83300872 c 0,76,77
 735.753845927 1687.5081893 735.753845927 1687.5081893 720.579199333 1699.92283589 c 0,78,79
 706.423226793 1712.12147204 706.423226793 1712.12147204 690.026040151 1718.68382191 c 0,80,81
 673.628853508 1725.24617178 673.628853508 1725.24617178 655.963433567 1725.52337769 c 0,82,83
 639.012930628 1725.7226437 639.012930628 1725.7226437 624.126597384 1721.64633716 c 0,84,85
 609.24026414 1717.57003062 609.24026414 1717.57003062 596.601900333 1709.10220015 c 0,86,87
 583.963536526 1700.63436967 583.963536526 1700.63436967 574.302679471 1688.0280826 c 0,88,89
 553.867192581 1661.13324773 553.867192581 1661.13324773 553.713777693 1625.09097659 c 0,90,91
 553.872632734 1568.42561827 553.872632734 1568.42561827 628.272148995 1534.23539551 c 0,92,93
 652.638928746 1522.93276959 652.638928746 1522.93276959 704.745812266 1508.38548201 c 2,94,-1
 717.339436345 1504.86957281 l 1,95,-1
 722.541171169 1516.86552795 l 1,71,-1
EndSplineSet
EndChar

StartChar: uni064D
Encoding: 1613 1613 48
GlifName: uni064D_
Width: -26
VWidth: 2316
GlyphClass: 4
Flags: W
AnchorPoint: "Anchor-7" 542.278 32.7109 mark 0
AnchorPoint: "Anchor-6" 542.278 32.7109 mark 0
AnchorPoint: "Anchor-0" 592.022 -407.025 basemark 0
AnchorPoint: "Anchor-0" 542.278 32.7109 mark 0
LayerCount: 2
Fore
SplineSet
347.099609375 -423.65701932 m 1,0,-1
 347.099609375 -352.493108376 l 1,1,-1
 772.5 -178.465095337 l 1,2,-1
 772.5 -249.629918511 l 1,3,-1
 347.099609375 -423.65701932 l 1,0,-1
347.099609375 -211.65701932 m 1,4,-1
 347.099609375 -140.493108376 l 1,5,-1
 772.5 33.5349046624 l 1,6,-1
 772.5 -37.6299185118 l 1,7,-1
 347.099609375 -211.65701932 l 1,4,-1
EndSplineSet
EndChar

StartChar: uni064E
Encoding: 1614 1614 49
GlifName: uni064E_
Width: -26
VWidth: 2316
GlyphClass: 4
Flags: W
AnchorPoint: "Anchor-10" 545.66 1397.63 mark 0
AnchorPoint: "Anchor-9" 545.66 1397.63 mark 0
AnchorPoint: "Anchor-1" 541.396 1651.77 basemark 0
AnchorPoint: "Anchor-1" 545.66 1397.63 mark 0
LayerCount: 2
Fore
SplineSet
311.099609375 1371.4426344 m 1,0,-1
 311.099609375 1442.60747757 l 1,1,-1
 736.5 1616.6354906 l 1,2,-1
 736.5 1545.47064743 l 1,3,-1
 311.099609375 1371.4426344 l 1,0,-1
EndSplineSet
EndChar

StartChar: uni064F
Encoding: 1615 1615 50
GlifName: uni064F_
Width: -26
VWidth: 2316
GlyphClass: 4
Flags: W
AnchorPoint: "Anchor-10" 591.295 1359.37 mark 0
AnchorPoint: "Anchor-9" 591.295 1359.37 mark 0
AnchorPoint: "Anchor-1" 570.134 1910.4 basemark 0
AnchorPoint: "Anchor-1" 591.295 1359.37 mark 0
LayerCount: 2
Fore
SplineSet
707.65234375 1442.20663784 m 1,0,1
 675.203178132 1443.10603102 675.203178132 1443.10603102 645.030780519 1447.88830645 c 2,2,-1
 635.857303391 1449.34228749 l 1,3,-1
 630.467061105 1441.77842395 l 2,4,5
 608.070111713 1410.34987959 608.070111713 1410.34987959 577.306171983 1385.69348826 c 128,-1,6
 546.542232252 1361.03709693 546.542232252 1361.03709693 507.179756245 1343.0463193 c 128,-1,7
 467.817280237 1325.05554168 467.817280237 1325.05554168 419.612617816 1313.93200408 c 128,-1,8
 371.407955394 1302.80846648 371.407955394 1302.80846648 314.57421875 1298.65023406 c 1,9,-1
 314.57421875 1347.32601058 l 1,10,11
 505.775267898 1367.47920672 505.775267898 1367.47920672 576.912809938 1444.31001791 c 2,12,-1
 595.305332468 1464.17452805 l 1,13,-1
 568.710957362 1469.23643097 l 2,14,15
 545.024371486 1473.74487299 545.024371486 1473.74487299 521.280065197 1482.57039278 c 128,-1,16
 497.535758908 1491.39591258 497.535758908 1491.39591258 473.872845262 1504.5225116 c 0,17,18
 395.025687237 1548.76853723 395.025687237 1548.76853723 395.249744962 1625.44354134 c 0,19,20
 395.937584771 1684.54940117 395.937584771 1684.54940117 427.743178645 1723.23142709 c 0,21,22
 469.041500846 1772.99652615 469.041500846 1772.99652615 542.980544068 1772.95996417 c 0,23,24
 598.716082427 1772.99653019 598.716082427 1772.99653019 639.303328024 1740.31681191 c 0,25,26
 668.422707768 1716.8691236 668.422707768 1716.8691236 681.679461763 1681.97012363 c 0,27,28
 690.964346919 1656.4537004 690.964346919 1656.4537004 690.546553715 1625.5405972 c 0,29,30
 690.027892243 1570.05402599 690.027892243 1570.05402599 665.951691149 1511.99376821 c 2,31,-1
 658.678358821 1494.4539766 l 1,32,-1
 677.42541351 1491.43841806 l 2,33,34
 680.245219351 1490.98483803 680.245219351 1490.98483803 683.326176126 1490.55735922 c 128,-1,35
 686.407132901 1490.12988042 686.407132901 1490.12988042 689.48228039 1489.76087469 c 128,-1,36
 692.557427879 1489.39186896 692.557427879 1489.39186896 695.686369708 1489.06672883 c 128,-1,37
 698.815311537 1488.7415887 698.815311537 1488.7415887 701.812176359 1488.47936824 c 128,-1,38
 704.809041181 1488.21714778 704.809041181 1488.21714778 707.65234375 1488.0165573 c 2,39,-1
 707.65234375 1442.20663784 l 1,0,1
613.695468044 1513.81279357 m 1,40,-1
 619.852428704 1528.01168133 l 2,41,42
 641.988157407 1578.84876839 641.988157407 1578.84876839 642.15831212 1623.7170956 c 0,43,44
 641.972783874 1672.1308058 641.972783874 1672.1308058 611.733496208 1696.87010151 c 0,45,46
 602.344850285 1704.96058595 602.344850285 1704.96058595 591.980820779 1710.58253903 c 128,-1,47
 581.616791273 1716.2044921 581.616791273 1716.2044921 570.264791718 1719.24502361 c 128,-1,48
 558.912792162 1722.28555511 558.912792162 1722.28555511 547.117730442 1722.47064331 c 0,49,50
 494.664139018 1723.08727506 494.664139018 1723.08727506 465.456976346 1684.97534822 c 0,51,52
 445.021489456 1658.08051336 445.021489456 1658.08051336 444.868074568 1622.03824221 c 0,53,54
 445.026929609 1565.3728839 445.026929609 1565.3728839 519.42644587 1531.18266113 c 0,55,56
 543.793225621 1519.88003521 543.793225621 1519.88003521 595.900109141 1505.33274763 c 2,57,-1
 608.49373322 1501.81683843 l 1,58,-1
 613.695468044 1513.81279357 l 1,40,-1
EndSplineSet
EndChar

StartChar: uni0650
Encoding: 1616 1616 51
GlifName: uni0650
Width: -26
VWidth: 2316
GlyphClass: 4
Flags: W
AnchorPoint: "Anchor-7" 571.144 -44.8242 mark 0
AnchorPoint: "Anchor-6" 571.144 -44.8242 mark 0
AnchorPoint: "Anchor-0" 619.091 -324.624 basemark 0
AnchorPoint: "Anchor-0" 571.144 -44.8242 mark 0
LayerCount: 2
Fore
SplineSet
357.900390625 -323.256610554 m 1,0,-1
 357.900390625 -252.092709575 l 1,1,-1
 783.299804688 -78.064722854 l 1,2,-1
 783.299804688 -149.229536064 l 1,3,-1
 357.900390625 -323.256610554 l 1,0,-1
EndSplineSet
EndChar

StartChar: uni0651
Encoding: 1617 1617 52
GlifName: uni0651
Width: -26
VWidth: 2393
GlyphClass: 4
Flags: W
AnchorPoint: "Anchor-10" 598.801 1463.71 mark 0
AnchorPoint: "Anchor-9" 598.801 1463.71 mark 0
AnchorPoint: "Anchor-1" 570.087 1849.1 basemark 0
AnchorPoint: "Anchor-1" 598.801 1463.71 mark 0
LayerCount: 2
Fore
SplineSet
594.012129616 1753.46289062 m 1,0,1
 595 1719 595 1719 595.622693071 1685.85983544 c 0,2,3
 596 1661 596 1661 600.460564778 1641.94251862 c 0,4,5
 605 1622 605 1622 615.295524285 1608.32798666 c 0,6,7
 625 1594 625 1594 640.795714847 1586.68663671 c 0,8,9
 656 1579 656 1579 676.806327825 1579.25240845 c 0,10,11
 705 1579 705 1579 724.563990151 1594.00057041 c 128,-1,12
 744 1609 744 1609 753.180499106 1634.051721 c 0,13,14
 762 1660 762 1660 762.626569489 1695.06166562 c 0,15,16
 763 1713 763 1713 759.242495799 1739.95013233 c 0,17,18
 756 1767 756 1767 748.954301795 1800.55124384 c 1,19,-1
 808.235143737 1809.94060882 l 1,20,21
 822 1756 822 1756 821.527205212 1705.08171258 c 0,22,23
 822 1640 822 1640 806.831355631 1598.00056982 c 0,24,25
 792 1556 792 1556 763.179755796 1536.61679674 c 0,26,27
 734 1517 734 1517 690.288282197 1516.66561828 c 0,28,29
 611 1516 611 1516 577.9609375 1579.32714844 c 5,30,31
 563 1521 563 1521 534.50824836 1490.55334387 c 0,32,33
 523 1478 523 1478 507.312528049 1469.53647113 c 0,34,35
 492 1461 492 1461 473.279542757 1457.08256528 c 0,36,37
 455 1453 455 1453 432.019860423 1452.88960874 c 0,38,39
 391 1453 391 1453 364.687167236 1468.93373388 c 0,40,41
 338 1485 338 1485 324.117754628 1519.00475802 c 0,42,43
 310 1553 310 1553 309.301003955 1606.7278368 c 0,44,45
 309 1656 309 1656 318.25308277 1698.67736703 c 1,46,-1
 367.623468669 1690.46908018 l 1,47,48
 360 1651 360 1651 360.577567656 1619.52164463 c 0,49,50
 361 1589 361 1589 370.092577508 1567.31094001 c 0,51,52
 379 1545 379 1545 398.091465003 1533.23287348 c 0,53,54
 417 1521 417 1521 443.566318496 1520.90262518 c 0,55,56
 539 1520 539 1520 544.939190555 1648.64134524 c 0,57,58
 546 1671 546 1671 546.128661889 1697.68516011 c 0,59,60
 546 1724 546 1724 546.241191555 1753.46289062 c 1,61,-1
 594.012129616 1753.46289062 l 1,0,1
EndSplineSet
EndChar

StartChar: uni0652
Encoding: 1618 1618 53
GlifName: uni0652
Width: -26
VWidth: 2316
GlyphClass: 4
Flags: W
AnchorPoint: "Anchor-10" 595.219 1271.43 mark 0
AnchorPoint: "Anchor-9" 595.219 1271.43 mark 0
AnchorPoint: "Anchor-1" 595.537 1682.66 basemark 0
AnchorPoint: "Anchor-1" 595.219 1271.43 mark 0
LayerCount: 2
Fore
SplineSet
436.07421875 1461.82128906 m 128,-1,1
 436.07421875 1528.29469433 436.07421875 1528.29469433 482.001030048 1574.22239693 c 128,-1,2
 527.928938487 1620.14941406 527.928938487 1620.14941406 594.40234375 1620.14941406 c 128,-1,3
 660.874857714 1620.14941406 660.874857714 1620.14941406 706.803554532 1574.22249984 c 128,-1,4
 752.731445312 1528.29460906 752.731445312 1528.29460906 752.731445312 1461.82128906 c 128,-1,5
 752.731445312 1395.34894562 752.731445312 1395.34894562 706.80365745 1349.42115776 c 128,-1,6
 660.874772449 1303.49316406 660.874772449 1303.49316406 594.40234375 1303.49316406 c 128,-1,7
 527.929023747 1303.49316406 527.929023747 1303.49316406 482.001235887 1349.42095192 c 128,-1,0
 436.07421875 1395.34886036 436.07421875 1395.34886036 436.07421875 1461.82128906 c 128,-1,1
487.663828521 1461.02231343 m 0,8,9
 486.892965427 1415.85674396 486.892965427 1415.85674396 519.376110981 1383.63999307 c 0,10,11
 550.738396594 1352.01130091 550.738396594 1352.01130091 596.786039347 1351.92873569 c 0,12,13
 619.186061891 1351.96942956 619.186061891 1351.96942956 638.750366591 1359.97425937 c 128,-1,14
 658.314671292 1367.97908918 658.314671292 1367.97908918 674.139727179 1383.63912533 c 0,15,16
 706.023479081 1415.85615687 706.023479081 1415.85615687 705.851671147 1461.02242806 c 0,17,18
 706.023480299 1506.13702461 706.023480299 1506.13702461 674.13969069 1538.40397289 c 0,19,20
 642.178681081 1569.98182221 642.178681081 1569.98182221 596.715682616 1570.11419587 c 0,21,22
 550.738738728 1569.98206848 550.738738728 1569.98206848 519.376225307 1538.40302732 c 0,23,24
 486.892958782 1506.13627812 486.892958782 1506.13627812 487.663828521 1461.02231343 c 0,8,9
EndSplineSet
EndChar

StartChar: uni0653
Encoding: 1619 1619 54
GlifName: uni0653
Width: -30
VWidth: 2673
GlyphClass: 4
Flags: W
AnchorPoint: "Anchor-10" 461.017 1539.11 mark 0
AnchorPoint: "Anchor-9" 461.017 1539.11 mark 0
AnchorPoint: "Anchor-1" 461.017 1975.25 basemark 0
AnchorPoint: "Anchor-1" 461.017 1539.11 mark 0
LayerCount: 2
Fore
SplineSet
402.393703146 1651.66462314 m 2,0,1
 290.107722581 1667.11776731 290.107722581 1667.11776731 196.601208338 1564.89212275 c 1,2,-1
 123.09765625 1640.65722656 l 5,3,4
 234.244104141 1792.33311647 234.244104141 1792.33311647 389.372070312 1767.34863281 c 6,5,-1
 538.047851562 1743.40332031 l 6,6,7
 635 1728 635 1728 753.043945312 1783.61230469 c 5,8,-1
 798.228845219 1683.0705373 l 1,9,10
 677.627632754 1613.78607791 677.627632754 1613.78607791 542.914210959 1632.32575595 c 2,11,-1
 402.393703146 1651.66462314 l 2,0,1
EndSplineSet
EndChar

StartChar: uni0657
Encoding: 1623 1623 57
GlifName: uni0657
Width: -26
VWidth: 2316
GlyphClass: 4
Flags: W
AnchorPoint: "Anchor-10" 513.285 1400.55 mark 0
AnchorPoint: "Anchor-9" 513.285 1400.55 mark 0
AnchorPoint: "Anchor-1" 573.285 2089.85 basemark 0
AnchorPoint: "Anchor-1" 513.285 1400.55 mark 0
LayerCount: 2
Fore
SplineSet
279.529296875 1789.14623345 m 1,0,1
 305.974197359 1788.09940632 305.974197359 1788.09940632 334.198691751 1785.99322113 c 128,-1,2
 362.423186143 1783.88703595 362.423186143 1783.88703595 392.962405428 1780.68342025 c 2,3,-1
 401.733310624 1779.76333748 l 1,4,-1
 406.802154275 1786.98013416 l 1,5,-1
 408.022041721 1788.71695794 l 2,6,7
 478.375928391 1888.96012979 478.375928391 1888.96012979 568.656820811 1945.52634776 c 128,-1,8
 658.937713232 2002.09256573 658.937713232 2002.09256573 769.673828125 2015.98223794 c 1,9,-1
 769.673828125 1967.23186779 l 1,10,11
 587.62711951 1933.52159641 587.62711951 1933.52159641 474.420882952 1787.37715713 c 2,12,-1
 460.970256221 1770.01296977 l 1,13,-1
 482.038594179 1763.80334034 l 2,14,15
 541.254362237 1746.35023241 541.254362237 1746.35023241 582.165247124 1716.43603027 c 0,16,17
 642.997789594 1670.52941975 642.997789594 1670.52941975 642.976563344 1598.86606216 c 0,18,19
 642.997958691 1535.08296672 642.997958691 1535.08296672 602.45282552 1493.33603739 c 0,20,21
 563.620607167 1453.00126983 563.620607167 1453.00126983 501.355640468 1453.01367163 c 0,22,23
 433.117070631 1453.00112497 433.117070631 1453.00112497 384.257513297 1500.81330813 c 0,24,25
 346.968358956 1538.22996169 346.968358956 1538.22996169 346.636061505 1603.25513859 c 0,26,27
 346.98109254 1644.66811292 346.98109254 1644.66811292 369.700871013 1717.98482097 c 2,28,-1
 375.199167893 1735.72782086 l 1,29,-1
 356.696179319 1737.36633475 l 2,30,31
 322.07690376 1740.43201052 322.07690376 1740.43201052 279.529296875 1741.19287157 c 1,32,-1
 279.529296875 1789.14623345 l 1,0,1
501.576955845 1501.40416564 m 0,33,34
 549.695970873 1502.11150927 549.695970873 1502.11150927 573.960192455 1535.29761851 c 0,35,36
 591.952057125 1561.23814505 591.952057125 1561.23814505 592.313881812 1596.59664545 c 0,37,38
 592.238933706 1610.79032238 592.238933706 1610.79032238 588.359794466 1623.75654237 c 128,-1,39
 584.480655225 1636.72276235 584.480655225 1636.72276235 577.179636696 1647.96899646 c 128,-1,40
 569.878618166 1659.21523058 569.878618166 1659.21523058 559.172453172 1669.18012058 c 128,-1,41
 548.466288177 1679.14501058 548.466288177 1679.14501058 534.913192764 1687.48605605 c 128,-1,42
 521.360097352 1695.82710152 521.360097352 1695.82710152 504.800900144 1702.83291573 c 0,43,44
 472.576816041 1716.34624132 472.576816041 1716.34624132 440.530633866 1723.5311645 c 2,45,-1
 428.348763643 1726.2624041 l 1,46,-1
 423.451365615 1714.77880169 l 2,47,48
 394.998227318 1648.0608168 394.998227318 1648.0608168 395.023446873 1604.98161288 c 0,49,50
 394.996499015 1580.87675346 394.996499015 1580.87675346 403.037496785 1562.45635759 c 0,51,52
 415.215512772 1534.49176574 415.215512772 1534.49176574 444.46778388 1517.54487383 c 0,53,54
 473.076027591 1500.93309482 473.076027591 1500.93309482 501.576955845 1501.40416564 c 0,33,34
EndSplineSet
EndChar

StartChar: uni065A
Encoding: 1626 1626 58
GlifName: uni065A_
Width: 1135
VWidth: 2316
GlyphClass: 4
Flags: W
AnchorPoint: "Anchor-10" 573.285 1350.55 mark 0
AnchorPoint: "Anchor-9" 573.285 1350.55 mark 0
AnchorPoint: "Anchor-1" 571.012 1862.38 basemark 0
AnchorPoint: "Anchor-1" 573.285 1350.55 mark 0
LayerCount: 2
Fore
SplineSet
510.873450561 1459.42578125 m 1,0,-1
 334.975512316 1753.49023438 l 1,1,-1
 424.308565337 1753.49023438 l 1,2,-1
 560.32943429 1520.3797396 l 1,3,-1
 573.285111181 1498.17649775 l 1,4,-1
 586.240855315 1520.37970036 l 1,5,-1
 722.262693519 1753.49023438 l 1,6,-1
 811.59654809 1753.49023438 l 1,7,-1
 635.695951372 1459.42578125 l 1,8,-1
 510.873450561 1459.42578125 l 1,0,-1
EndSplineSet
EndChar

StartChar: afii57392
Encoding: 1632 1632 59
GlifName: afii57392
Width: 893
VWidth: 2952
GlyphClass: 2
Flags: W
LayerCount: 2
Fore
SplineSet
267.732421875 533.068359375 m 4,0,1
 267.732421875 456.212890625 267.732421875 456.212890625 320.987304688 402.963867188 c 4,2,3
 334.096679688 389.8515625 334.096679688 389.8515625 349.122070312 379.771484375 c 132,-1,4
 364.146484375 369.690429688 364.146484375 369.690429688 380.77734375 362.922851562 c 132,-1,5
 397.45703125 356.133789062 397.45703125 356.133789062 415.34765625 352.732421875 c 132,-1,6
 433.240234375 349.33203125 433.240234375 349.33203125 452.711914062 349.16796875 c 4,7,8
 471.783203125 349.331054688 471.783203125 349.331054688 489.66015625 352.82421875 c 132,-1,9
 507.537109375 356.31640625 507.537109375 356.31640625 523.948242188 363.055664062 c 132,-1,10
 540.360351562 369.793945312 540.360351562 369.793945312 555.290039062 379.809570312 c 132,-1,11
 570.219726562 389.82421875 570.219726562 389.82421875 583.357421875 402.961914062 c 4,12,13
 609.8203125 429.424804688 609.8203125 429.424804688 623.248046875 462.3203125 c 132,-1,14
 636.611328125 495.060546875 636.611328125 495.060546875 636.611328125 533.068359375 c 132,-1,15
 636.611328125 571.076171875 636.611328125 571.076171875 623.248046875 603.81640625 c 4,16,17
 618.767578125 614.796875 618.767578125 614.796875 612.764648438 625.143554688 c 132,-1,18
 606.76171875 635.490234375 606.76171875 635.490234375 599.412109375 644.981445312 c 132,-1,19
 592.061523438 654.47265625 592.061523438 654.47265625 583.357421875 663.177734375 c 132,-1,20
 574.5859375 671.948242188 574.5859375 671.948242188 564.959960938 679.341796875 c 132,-1,21
 555.33203125 686.733398438 555.33203125 686.733398438 544.99609375 692.66015625 c 132,-1,22
 534.659179688 698.5859375 534.659179688 698.5859375 523.58203125 703.09765625 c 132,-1,23
 512.504882812 707.609375 512.504882812 707.609375 500.810546875 710.6484375 c 132,-1,24
 489.114257812 713.688476562 489.114257812 713.688476562 476.795898438 715.275390625 c 132,-1,25
 464.475585938 716.862304688 464.475585938 716.862304688 451.631835938 716.969726562 c 4,26,27
 432.35546875 716.805664062 432.35546875 716.805664062 414.665039062 713.396484375 c 132,-1,28
 396.973632812 709.987304688 396.973632812 709.987304688 380.3984375 703.171875 c 132,-1,29
 363.919921875 696.396484375 363.919921875 696.396484375 348.99609375 686.328125 c 132,-1,30
 334.072265625 676.260742188 334.072265625 676.260742188 320.98828125 663.177734375 c 4,31,32
 294.759765625 636.94921875 294.759765625 636.94921875 281.24609375 603.857421875 c 132,-1,33
 267.732421875 570.764648438 267.732421875 570.764648438 267.732421875 533.068359375 c 4,0,1
244.842773438 736.25 m 4,34,35
 255.541015625 746.948242188 255.541015625 746.948242188 266.680664062 756.237304688 c 132,-1,36
 277.819335938 765.525390625 277.819335938 765.525390625 289.4140625 773.438476562 c 4,37,38
 312.44921875 789.159179688 312.44921875 789.159179688 337.469726562 799.596679688 c 4,39,40
 354.157226562 806.557617188 354.157226562 806.557617188 371.732421875 811.194335938 c 132,-1,41
 389.307617188 815.831054688 389.307617188 815.831054688 408.06640625 818.17578125 c 132,-1,42
 426.82421875 820.51953125 426.82421875 820.51953125 446.678710938 820.51953125 c 4,43,44
 486.168945312 820.51953125 486.168945312 820.51953125 521.618164062 811.182617188 c 4,45,46
 556.813476562 801.913085938 556.813476562 801.913085938 588.344726562 783.341796875 c 4,47,48
 620.159179688 764.60546875 620.159179688 764.60546875 648.514648438 736.250976562 c 4,49,50
 690.8984375 693.866210938 690.8984375 693.866210938 711.856445312 643.627929688 c 132,-1,51
 732.784179688 593.462890625 732.784179688 593.462890625 732.784179688 534.4140625 c 4,52,53
 732.784179688 475.036132812 732.784179688 475.036132812 711.95703125 425.114257812 c 132,-1,54
 691.12890625 375.192382812 691.12890625 375.192382812 648.514648438 332.577148438 c 4,55,56
 627.205078125 311.268554688 627.205078125 311.268554688 603.973632812 295.44921875 c 4,57,58
 580.958007812 279.77734375 580.958007812 279.77734375 555.9609375 269.419921875 c 4,59,60
 543.465820312 264.241210938 543.465820312 264.241210938 530.453125 260.375976562 c 132,-1,61
 517.439453125 256.510742188 517.439453125 256.510742188 503.849609375 253.947265625 c 4,62,63
 476.499023438 248.787109375 476.499023438 248.787109375 446.625 248.923828125 c 4,64,65
 387.48828125 248.65234375 387.48828125 248.65234375 337.3828125 269.420898438 c 4,66,67
 320.737304688 276.3203125 320.737304688 276.3203125 304.983398438 285.567382812 c 132,-1,68
 289.155273438 294.858398438 289.155273438 294.858398438 274.174804688 306.555664062 c 132,-1,69
 259.079101562 318.340820312 259.079101562 318.340820312 244.84375 332.577148438 c 4,70,71
 202.4609375 374.9609375 202.4609375 374.9609375 181.50390625 425.198242188 c 4,72,73
 174.541015625 441.888671875 174.541015625 441.888671875 169.904296875 459.466796875 c 132,-1,74
 165.266601562 477.043945312 165.266601562 477.043945312 162.921875 495.802734375 c 132,-1,75
 160.577148438 514.561523438 160.577148438 514.561523438 160.577148438 534.415039062 c 4,76,77
 160.577148438 593.469726562 160.577148438 593.469726562 181.499023438 643.625976562 c 132,-1,78
 202.455078125 693.862304688 202.455078125 693.862304688 244.842773438 736.25 c 4,34,35
EndSplineSet
EndChar

StartChar: afii57393
Encoding: 1633 1633 60
GlifName: afii57393
Width: 636
VWidth: 2952
GlyphClass: 2
Flags: W
LayerCount: 2
Fore
SplineSet
253.611328125 1328.52636719 m 5,0,1
 349 1111 349 1111 396.4375 848.853515625 c 4,2,3
 444.115234375 586.365234375 444.115234375 586.365234375 444.115234375 278.771484375 c 6,4,-1
 444.115234375 41.5537109375 l 5,5,-1
 324.795898438 41.5537109375 l 5,6,-1
 324.791992188 281.908203125 l 6,7,8
 325 905 325 905 146.354492188 1290.71875 c 5,9,-1
 253.611328125 1328.52636719 l 5,0,1
EndSplineSet
EndChar

StartChar: afii57394
Encoding: 1634 1634 61
GlifName: afii57394
Width: 1120
VWidth: 2952
GlyphClass: 2
Flags: W
LayerCount: 2
Fore
SplineSet
333.219077115 1114.58152454 m 2,0,1
 371.246909089 1014.835164 371.246909089 1014.835164 447.796078491 963.731096251 c 0,2,3
 525 912 525 912 634.607472125 910.77253834 c 0,4,5
 778 909 778 909 837.92480838 1023.173895 c 0,6,7
 887.911233001 1118.83013154 887.911233001 1118.83013154 861.111590062 1318.98137743 c 2,8,-1
 859.76642973 1329.02761264 l 1,9,-1
 978.649674281 1341.88936919 l 1,10,-1
 981.229172392 1314.22535538 l 2,11,12
 985 1274 985 1274 985.605402302 1243.39900175 c 0,13,14
 987 1209 987 1209 985.168345753 1177.40028172 c 0,15,16
 984 1146 984 1146 980.016480971 1116.3266514 c 0,17,18
 976 1087 976 1087 970.223068098 1060.02219223 c 0,19,20
 964 1033 964 1033 955.888266566 1008.60125196 c 0,21,22
 948 984 948 984 937.087017724 961.924803692 c 0,23,24
 894 871 894 871 820.377620802 827.329559602 c 0,25,26
 747 783 747 783 639.34413744 783.568189447 c 0,27,28
 499 784 499 784 401.512695312 846.228515625 c 5,29,30
 444.115234375 537.164020391 444.115234375 537.164020391 444.115234375 278.771484375 c 2,31,-1
 444.115234375 41.5537109375 l 1,32,-1
 324.796333201 41.5537109375 l 1,33,-1
 324.791990609 281.908234841 l 2,34,35
 325 905 325 905 146.35393556 1290.71968925 c 1,36,-1
 251.884863001 1327.91979349 l 1,37,-1
 333.219077115 1114.58152454 l 2,0,1
EndSplineSet
EndChar

StartChar: afii57395
Encoding: 1635 1635 62
GlifName: afii57395
Width: 1401
VWidth: 2952
GlyphClass: 2
Flags: W
LayerCount: 2
Fore
SplineSet
1133.02539062 1329.72167969 m 1,0,-1
 1249.64855894 1343.02201671 l 1,1,-1
 1255.86816406 1283.03710938 l 6,2,3
 1275 1100 1275 1100 1243.51504465 991.412063338 c 0,4,5
 1213 886 1213 886 1150 836.5 c 128,-1,6
 1087 787 1087 787 986.982512189 787.766966548 c 0,7,8
 861 788 861 788 766.839190814 920.556065511 c 1,9,10
 678 787 678 787 563.120117188 786.943359375 c 0,11,12
 480 787 480 787 407.739257812 840.703125 c 1,13,14
 444.115234375 455.780615422 444.115234375 455.780615422 444.115234375 278.762202684 c 2,15,-1
 444.115234375 41.5537109375 l 1,16,-1
 324.796333199 41.5537109375 l 1,17,-1
 324.791990609 281.907258294 l 2,18,19
 325 905 325 905 146.353940377 1290.71967742 c 1,20,-1
 251.346679688 1327.72949219 l 1,21,-1
 350.956054688 1051.41015625 l 2,22,23
 375 986 375 986 428.547851562 952.294921875 c 0,24,25
 482 918 482 918 560.303710938 917.6328125 c 0,26,27
 720.505748006 917.001946335 720.505748006 917.001946335 721.365234375 1204.47070312 c 2,28,-1
 721.579101562 1276.00195312 l 1,29,-1
 821.44921875 1284.18652344 l 1,30,-1
 824.03125 1211.29101562 l 2,31,32
 827 1120 827 1120 844.450195312 1053.91308594 c 0,33,34
 861 989 861 989 898.1796875 950.30078125 c 0,35,36
 935 911 935 911 990.209960938 910.893554688 c 0,37,38
 1022 911 1022 911 1048.74023438 920.411132812 c 0,39,40
 1075 930 1075 930 1095.5 950 c 128,-1,41
 1116 970 1116 970 1127.31054688 998.296875 c 0,42,43
 1165.88031713 1094.79123367 1165.88031713 1094.79123367 1139 1287 c 6,44,-1
 1133.02539062 1329.72167969 l 1,0,-1
EndSplineSet
EndChar

StartChar: afii57396
Encoding: 1636 1636 63
GlifName: afii57396
Width: 1046
VWidth: 2952
GlyphClass: 2
Flags: W
LayerCount: 2
Fore
SplineSet
169.29112677 299.876376702 m 0,0,1
 162.003219213 512.905900648 162.003219213 512.905900648 543.8046875 681.643554688 c 2,2,-1
 630.065429688 719.766601562 l 1,3,-1
 537.631835938 738.486328125 l 2,4,5
 390 768 390 768 320.58984375 837.1875 c 0,6,7
 251 906 251 906 251.663085938 1016.84570312 c 0,8,9
 252 1099 252 1099 294.17578125 1159.23632812 c 0,10,11
 398 1310 398 1310 666.30078125 1313.32910156 c 0,12,13
 719 1314 719 1314 778.168945312 1307.81347656 c 1,14,-1
 769.670898438 1185.19140625 l 1,15,16
 735 1188 735 1188 704.188476562 1188.45898438 c 0,17,18
 556 1189 556 1189 473.920898438 1142.42871094 c 128,-1,19
 392 1096 392 1096 390.831054688 999.26171875 c 0,20,21
 391 955 391 955 415.47265625 920.1640625 c 0,22,23
 440 886 440 886 488.608398438 862.361328125 c 0,24,25
 537 839 537 839 600.499023438 824.239257812 c 0,26,27
 664 809 664 809 748.107421875 801.245117188 c 1,28,-1
 749.796875 665.241210938 l 1,29,30
 283.973677209 475.85236675 283.973677209 475.85236675 295.574241327 305.403879577 c 4,31,32
 297 276 297 276 311.769930428 252.476571655 c 0,33,34
 326 229 326 229 352.849704655 212.296866755 c 0,35,36
 379 196 379 196 415.153924545 183.785728896 c 0,37,38
 451 172 451 172 498.172070697 165.207828154 c 0,39,40
 546 158 546 158 598.03456231 155.527881479 c 0,41,42
 657.37452223 152.695763173 657.37452223 152.695763173 714.020938643 153.054311876 c 2,43,-1
 878.128592264 154.093046363 l 1,44,-1
 879.620473469 30.0868290749 l 1,45,-1
 707.163515447 30.4686366702 l 2,46,47
 435 31 435 31 304.607749302 99.8810436227 c 0,48,49
 174 169 174 169 169.29112677 299.876376702 c 0,0,1
EndSplineSet
EndChar

StartChar: afii57397
Encoding: 1637 1637 64
GlifName: afii57397
Width: 1166
VWidth: 2952
GlyphClass: 2
Flags: W
LayerCount: 2
Fore
SplineSet
533.705078125 1036.16308594 m 2,0,1
 254.999854309 738.868675902 254.999854309 738.868675902 254.721729179 488.170116852 c 0,2,3
 255 310 255 310 370.365234375 221.323242188 c 4,4,5
 450 160 450 160 609.082461448 160.290943771 c 0,6,7
 761 160 761 160 843.163085938 256.946289062 c 0,8,9
 912 338 912 338 911.259691037 495.40378663 c 0,10,11
 911.000090353 783.899590438 911.000090353 783.899590438 573.712890625 1039.55371094 c 2,12,-1
 552.182617188 1055.87304688 l 1,13,-1
 533.705078125 1036.16308594 l 2,0,1
393.122070312 1182.34863281 m 1,14,-1
 470.0625 1293.74316406 l 1,15,16
 1026 929 1026 929 1026.70607167 472.23175181 c 0,17,18
 1027.00155941 199.561003708 1027.00155941 199.561003708 860.408203125 99.505859375 c 0,19,20
 758 38 758 38 605.35738636 38.3884690471 c 0,21,22
 428 39 428 39 322.384765625 96.7197265625 c 4,23,24
 136 198 136 198 138.627474636 470.652234359 c 0,25,26
 142.00523763 794.502168513 142.00523763 794.502168513 429.295898438 1113.86621094 c 2,27,-1
 451.006835938 1138.00097656 l 1,28,-1
 425.237304688 1157.74414062 l 1,29,-1
 393.122070312 1182.34863281 l 1,14,-1
EndSplineSet
EndChar

StartChar: afii57398
Encoding: 1638 1638 65
GlifName: afii57398
Width: 1265
VWidth: 2952
GlyphClass: 2
Flags: W
LayerCount: 2
Fore
SplineSet
957.972170251 41.5537109375 m 1,0,1
 842.500257708 524.905978241 842.500257708 524.905978241 831.3984375 1117.89941406 c 6,2,-1
 830.676757812 1156.44726562 l 5,3,-1
 793.48828125 1146.27441406 l 6,4,5
 628 1101 628 1101 464.075195312 1100.50097656 c 4,6,7
 282 1100 282 1100 111.41796875 1172.90527344 c 5,8,-1
 111.41796875 1318.0546875 l 5,9,10
 297 1242 297 1242 510.294921875 1242.2421875 c 4,11,12
 718 1242 718 1242 936.177734375 1322.2890625 c 5,13,14
 950 516 950 516 1083.12317256 41.5537109375 c 1,15,-1
 957.972170251 41.5537109375 l 1,0,1
EndSplineSet
EndChar

StartChar: afii57399
Encoding: 1639 1639 66
GlifName: afii57399
Width: 1281
VWidth: 2952
GlyphClass: 2
Flags: W
LayerCount: 2
Fore
SplineSet
1142.53613281 1266.8515625 m 5,0,1
 834 641 834 641 700.179507103 41.5537109375 c 1,2,-1
 580.672000633 41.5537109375 l 1,3,4
 446 642 446 642 138.323242188 1266.83203125 c 5,5,-1
 252.584960938 1324.87011719 l 5,6,7
 512.869904304 759.109157265 512.869904304 759.109157265 611.172734666 320.568922693 c 2,8,-1
 640.462316355 189.904729433 l 1,9,-1
 669.721375459 320.575760867 l 2,10,11
 769 762 769 762 1028.29296875 1324.87792969 c 5,12,-1
 1142.53613281 1266.8515625 l 5,0,1
EndSplineSet
EndChar

StartChar: afii57400
Encoding: 1640 1640 67
GlifName: afii57400
Width: 1281
VWidth: 2952
GlyphClass: 2
Flags: W
LayerCount: 2
Fore
SplineSet
1142.53584706 90.4054241739 m 1,0,-1
 1028.29342534 32.3784736183 l 1,1,2
 768.26452613 596.595850071 768.26452613 596.595850071 669.721679688 1036.68066406 c 6,3,-1
 640.461914062 1167.35253906 l 5,4,-1
 611.172851562 1036.6875 l 6,5,6
 512 596 512 596 252.584560621 32.3867410182 c 1,7,-1
 138.322992722 90.4249620889 l 1,8,9
 446 716 446 716 580.671875 1315.703125 c 5,10,-1
 700.1796875 1315.703125 l 5,11,12
 834 716 834 716 1142.53584706 90.4054241739 c 1,0,-1
EndSplineSet
EndChar

StartChar: afii57401
Encoding: 1641 1641 68
GlifName: afii57401
Width: 1056
VWidth: 2952
GlyphClass: 2
Flags: W
LayerCount: 2
Fore
SplineSet
134.946289062 927.932617188 m 0,0,1
 134.946289062 972.3359375 134.946289062 972.3359375 142.407226562 1013.82617188 c 128,-1,2
 149.869140625 1055.31542969 149.869140625 1055.31542969 164.737304688 1093.91894531 c 128,-1,3
 179.60546875 1132.52148438 179.60546875 1132.52148438 201.966796875 1168.64355469 c 0,4,5
 308.678710938 1340.02929688 308.678710938 1340.02929688 472.038085938 1340.31542969 c 0,6,7
 582.359375 1340.21875 582.359375 1340.21875 657.495117188 1290.77050781 c 128,-1,8
 732.630859375 1241.32324219 732.630859375 1241.32324219 775.255859375 1136.59570312 c 128,-1,9
 817.881835938 1031.86914062 817.881835938 1031.86914062 825.986328125 869.8984375 c 0,10,11
 848.134765625 435.219726562 848.134765625 435.219726562 858.036132812 41.5537109375 c 1,12,-1
 746.157226562 41.5537109375 l 1,13,-1
 733.059570312 700.497070312 l 1,14,-1
 732.1171875 747.923828125 l 1,15,-1
 689.670898438 726.744140625 l 2,16,17
 565.948242188 665.008789062 565.948242188 665.008789062 437.24609375 665.165039062 c 0,18,19
 332.186523438 665.11328125 332.186523438 665.11328125 265.297851562 693.856445312 c 128,-1,20
 198.409179688 722.599609375 198.409179688 722.599609375 166.677734375 780.34375 c 128,-1,21
 134.946289062 838.087890625 134.946289062 838.087890625 134.946289062 927.932617188 c 0,0,1
439.73046875 784.890625 m 0,22,23
 573.065429688 785.005859375 573.065429688 785.005859375 698.708984375 847.538085938 c 2,24,-1
 716.650390625 856.467773438 l 1,25,-1
 715.270507812 876.4609375 l 1,26,-1
 713.33203125 904.549804688 l 2,27,28
 691.965820312 1209.04199219 691.965820312 1209.04199219 480.760742188 1208.7265625 c 0,29,30
 377.900390625 1209.046875 377.900390625 1209.046875 310.810546875 1118.24707031 c 0,31,32
 244.999023438 1029.94824219 244.999023438 1029.94824219 245.008789062 937.3046875 c 0,33,34
 245.004882812 887.11328125 245.004882812 887.11328125 269.515625 852.498046875 c 128,-1,35
 294.025390625 817.881835938 294.025390625 817.881835938 337.19140625 801.40625 c 128,-1,36
 380.357421875 784.9296875 380.357421875 784.9296875 439.73046875 784.890625 c 0,22,23
EndSplineSet
EndChar

StartChar: afii57381
Encoding: 1642 1642 69
GlifName: afii57381
Width: 1288
VWidth: 4038
GlyphClass: 2
Flags: W
LayerCount: 2
Fore
SplineSet
779.512695312 315.344726562 m 132,-1,1
 779.512695312 372.63671875 779.512695312 372.63671875 820.6328125 412.994140625 c 4,2,3
 861.09765625 453.458984375 861.09765625 453.458984375 918.698242188 453.840820312 c 4,4,5
 947.612304688 454.03125 947.612304688 454.03125 971.647460938 444.024414062 c 132,-1,6
 995.696289062 434.01171875 995.696289062 434.01171875 1016.12988281 413.192382812 c 4,7,8
 1036.56738281 392.754882812 1036.56738281 392.754882812 1046.52636719 368.606445312 c 4,9,10
 1049.83203125 360.591796875 1049.83203125 360.591796875 1052.03515625 352.129882812 c 132,-1,11
 1054.23925781 343.66796875 1054.23925781 343.66796875 1055.37109375 334.44140625 c 132,-1,12
 1056.50390625 325.21484375 1056.50390625 325.21484375 1056.50390625 315.344726562 c 4,13,14
 1056.50390625 257.869140625 1056.50390625 257.869140625 1016.22949219 217.59375 c 132,-1,15
 975.953125 177.318359375 975.953125 177.318359375 918.48046875 177.318359375 c 4,16,17
 889.02734375 177.318359375 889.02734375 177.318359375 865.173828125 187.161132812 c 132,-1,18
 841.3203125 197.004882812 841.3203125 197.004882812 820.61328125 217.712890625 c 4,19,0
 779.512695312 258.05078125 779.512695312 258.05078125 779.512695312 315.344726562 c 132,-1,1
230.96875 1169.37011719 m 4,20,21
 230.96875 1226.42871094 230.96875 1226.42871094 272.1015625 1267.03222656 c 4,22,23
 312.515625 1307.15234375 312.515625 1307.15234375 370.172851562 1307.86523438 c 4,24,25
 399.3984375 1307.921875 399.3984375 1307.921875 423.233398438 1297.99023438 c 132,-1,26
 447.068359375 1288.05859375 447.068359375 1288.05859375 467.575195312 1267.22949219 c 4,27,28
 507.993164062 1226.62207031 507.993164062 1226.62207031 507.959960938 1169.35351562 c 4,29,30
 507.993164062 1111.51074219 507.993164062 1111.51074219 467.836914062 1071.77148438 c 4,31,32
 457.370117188 1061.51171875 457.370117188 1061.51171875 446.127929688 1053.84765625 c 132,-1,33
 434.884765625 1046.18261719 434.884765625 1046.18261719 423.076171875 1041.13671875 c 132,-1,34
 411.10546875 1036.10644531 411.10546875 1036.10644531 398.004882812 1033.65332031 c 132,-1,35
 384.903320312 1031.19921875 384.903320312 1031.19921875 370.002929688 1031.34570312 c 4,36,37
 363.374023438 1031.3125 363.374023438 1031.3125 357.112304688 1031.75878906 c 132,-1,38
 350.850585938 1032.20410156 350.850585938 1032.20410156 344.854492188 1033.13671875 c 132,-1,39
 338.858398438 1034.06933594 338.858398438 1034.06933594 333.16015625 1035.50976562 c 132,-1,40
 327.4609375 1036.94921875 327.4609375 1036.94921875 321.994140625 1038.88964844 c 132,-1,41
 316.52734375 1040.83105469 316.52734375 1040.83105469 311.28515625 1043.30761719 c 132,-1,42
 306.043945312 1045.78515625 306.043945312 1045.78515625 300.999023438 1048.77734375 c 132,-1,43
 295.954101562 1051.76953125 295.954101562 1051.76953125 291.063476562 1055.32714844 c 132,-1,44
 286.171875 1058.88574219 286.171875 1058.88574219 281.443359375 1062.97265625 c 132,-1,45
 276.71484375 1067.05859375 276.71484375 1067.05859375 272.0703125 1071.74023438 c 4,46,47
 230.96875 1111.70410156 230.96875 1111.70410156 230.96875 1169.37011719 c 4,20,21
885.553710938 1336.61035156 m 5,48,-1
 985.5234375 1285.10644531 l 5,49,-1
 342.463867188 44.767578125 l 5,50,-1
 242.256835938 99.833984375 l 5,51,-1
 885.553710938 1336.61035156 l 5,48,-1
EndSplineSet
EndChar

StartChar: uni066B
Encoding: 1643 1643 70
GlifName: uni066B_
Width: 772
VWidth: 2952
GlyphClass: 2
Flags: W
LayerCount: 2
Fore
SplineSet
548.375 678.784179688 m 1,0,-1
 624.513671875 646.462890625 l 1,1,-1
 184.209960938 -369.563476562 l 1,2,-1
 105.868164062 -335.466796875 l 1,3,-1
 548.375 678.784179688 l 1,0,-1
EndSplineSet
PairPos2: "'kern' Horizontal Kerning lookup 15-4" uni06F4 dx=-110 dy=0 dh=-110 dv=0 dx=0 dy=0 dh=0 dv=0
PairPos2: "'kern' Horizontal Kerning lookup 15-4" uni06F3 dx=-130 dy=0 dh=-130 dv=0 dx=0 dy=0 dh=0 dv=0
PairPos2: "'kern' Horizontal Kerning lookup 15-4" uni06F2 dx=-130 dy=0 dh=-130 dv=0 dx=0 dy=0 dh=0 dv=0
EndChar

StartChar: uni066C
Encoding: 1644 1644 71
GlifName: uni066C_
Width: 555
VWidth: 2842
GlyphClass: 2
Flags: W
LayerCount: 2
Fore
SplineSet
140.577148438 140.336914062 m 0,0,1
 141.4765625 185.038085938 141.4765625 185.038085938 157.3515625 214.178710938 c 0,2,3
 189.333984375 271.018554688 189.333984375 271.018554688 269.221679688 271.182617188 c 0,4,5
 315.354492188 271.440429688 315.354492188 271.440429688 347.717773438 258.737304688 c 128,-1,6
 380.081054688 246.033203125 380.081054688 246.033203125 399.703125 220.282226562 c 128,-1,7
 419.326171875 194.53125 419.326171875 194.53125 427.546875 154.708007812 c 0,8,9
 441.139648438 90.38671875 441.139648438 90.38671875 415.819335938 -5.4140625 c 0,10,11
 359.333007812 -220.478515625 359.333007812 -220.478515625 164.880859375 -383.482421875 c 1,12,-1
 122.705078125 -364.100585938 l 1,13,14
 305.694335938 -190.262695312 305.694335938 -190.262695312 317.803710938 -0.73828125 c 2,15,-1
 318.84765625 15.60546875 l 1,16,-1
 302.474609375 15.2138671875 l 1,17,-1
 299.172851562 15.134765625 l 1,18,-1
 291.912109375 14.9619140625 l 2,19,20
 265.994140625 14.0595703125 265.994140625 14.0595703125 248.53125 18.068359375 c 0,21,22
 191.682617188 29.546875 191.682617188 29.546875 165.668945312 59.3369140625 c 128,-1,23
 139.655273438 89.126953125 139.655273438 89.126953125 140.577148438 140.336914062 c 0,0,1
EndSplineSet
PairPos2: "'kern' Horizontal Kerning lookup 15-4" uni06F4 dx=-130 dy=0 dh=-130 dv=0 dx=0 dy=0 dh=0 dv=0
PairPos2: "'kern' Horizontal Kerning lookup 15-4" uni06F2 dx=-130 dy=0 dh=-130 dv=0 dx=0 dy=0 dh=0 dv=0
PairPos2: "'kern' Horizontal Kerning lookup 15-4" uni06F3 dx=-150 dy=0 dh=-150 dv=0 dx=0 dy=0 dh=0 dv=0
EndChar

StartChar: afii63167
Encoding: 1645 1645 72
GlifName: afii63167
Width: 1584
VWidth: 2952
GlyphClass: 2
Flags: W
LayerCount: 2
Fore
SplineSet
324.462145328 1008.65136719 m 1,0,-1
 662.741210938 1008.65136719 l 1,1,-1
 664.913085938 1008.65136719 l 1,2,-1
 686.626721466 1008.65136719 l 1,3,-1
 693.411123001 1029.27790019 l 1,4,-1
 694.093836958 1031.35355585 l 1,5,-1
 799.99532428 1353.78872388 l 1,6,-1
 905.902353562 1031.34137675 l 1,7,-1
 906.581064499 1029.27790019 l 1,8,-1
 913.365466034 1008.65136719 l 1,9,-1
 935.079101562 1008.65136719 l 1,10,-1
 937.250976562 1008.65136719 l 1,11,-1
 1275.52983377 1008.65136719 l 1,12,-1
 1002.15373577 808.803461571 l 1,13,-1
 1000.39885296 807.520258447 l 1,14,-1
 982.851902759 794.68960036 l 1,15,-1
 989.579287801 774.019246253 l 1,16,-1
 990.252606604 771.95042796 l 1,17,-1
 1094.69460094 451.100066519 l 1,18,-1
 819.323084556 650.083320767 l 1,19,-1
 817.566248619 651.352852017 l 1,20,-1
 799.995117193 664.05016767 l 1,21,-1
 782.423985764 651.352852022 l 1,22,-1
 780.667443262 650.083532813 l 1,23,-1
 505.298207966 451.100261033 l 1,24,-1
 609.739071599 771.951863528 l 1,25,-1
 610.411923162 774.019246341 l 1,26,-1
 617.139308125 794.689600419 l 1,27,-1
 599.592357952 807.520258462 l 1,28,-1
 597.834632174 808.805540159 l 1,29,-1
 324.462145328 1008.65136719 l 1,0,-1
EndSplineSet
EndChar

StartChar: uni066E
Encoding: 1646 1646 73
GlifName: uni066E_
Width: 1807
VWidth: 2952
GlyphClass: 2
Flags: W
AnchorPoint: "Anchor-10" 977.36 1415.35 basechar 0
AnchorPoint: "Anchor-7" 927.36 -257.261 basechar 0
LayerCount: 2
Fore
SplineSet
860.911132812 30 m 2,0,1
 488 30 488 30 308.848840543 144.219012859 c 0,2,3
 130 258 130 258 130.160135179 485.90762687 c 0,4,5
 130 599 130 599 170.55756449 703.17125834 c 1,6,-1
 274.409179688 668.051757812 l 5,7,8
 249 594 249 594 249.424697603 514.457445298 c 0,9,10
 249 333 249 333 401.423133776 243.436706382 c 128,-1,11
 554 154 554 154 841.859002918 154.136719866 c 0,12,13
 944 154 944 154 1028.63741583 157.673543315 c 0,14,15
 1114 161 1114 161 1186.42158915 168.909474705 c 128,-1,16
 1259 177 1259 177 1316.46258329 188.516916616 c 128,-1,17
 1374 200 1374 200 1417.64868311 217.273101132 c 0,18,19
 1462 234 1462 234 1491.23094902 255.850430836 c 0,20,21
 1530 284 1530 284 1549.29119122 332.530549495 c 0,22,23
 1568 381 1568 381 1568.38008686 445.426614538 c 0,24,25
 1568 530 1568 530 1537.5334696 668.685764797 c 1,26,-1
 1644.91238075 695.704260992 l 1,27,28
 1685 565 1685 565 1684.90625235 459.697102698 c 0,29,30
 1685 239 1685 239 1559.62650273 150.930373621 c 0,31,32
 1387 30 1387 30 864.356445312 30 c 2,33,-1
 860.911132812 30 l 2,0,1
EndSplineSet
Substitution2: "'fina' Terminal Forms in Arabic lookup 9 subtable" uni066E.fina
EndChar

StartChar: uni066F
Encoding: 1647 1647 74
GlifName: uni066F_
Width: 1511
VWidth: 2952
GlyphClass: 2
Flags: W
AnchorPoint: "Anchor-10" 121.809 1362.22 basechar 0
AnchorPoint: "Anchor-7" 335.219 -761.353 basechar 0
LayerCount: 2
Fore
SplineSet
747.330862614 -429.724606318 m 0,0,1
 433.751837405 -429.858217187 433.751837405 -429.858217187 282.57170985 -293.84461645 c 0,2,3
 131.391582295 -157.831015712 131.391582295 -157.831015712 131.752908717 121.00847324 c 0,4,5
 131.977260107 310.750336397 131.977260107 310.750336397 209.601575391 510.845560052 c 1,6,-1
 313.261733609 468.119630308 l 1,7,8
 248.011252004 287.811619953 248.011252004 287.811619953 248.268561223 122.880153538 c 0,9,10
 248.126201216 -92.7952574316 248.126201216 -92.7952574316 377.613376158 -203.20603441 c 0,11,12
 507.100551101 -313.616811388 507.100551101 -313.616811388 754.479612871 -313.203020397 c 0,13,14
 991.110797559 -312.578136424 991.110797559 -312.578136424 1123.16016327 -208.023380362 c 0,15,16
 1255.20952897 -103.468624299 1255.20952897 -103.468624299 1272.22738185 100.700471412 c 2,17,-1
 1272.59554591 105.1174636 l 1,18,-1
 1276.25685125 149.043416257 l 1,19,-1
 1234.05015879 136.335560994 l 2,20,21
 1204.94203334 127.57150431 1204.94203334 127.57150431 1174.17100153 121.649511946 c 0,22,23
 1143.39996972 115.727519581 1143.39996972 115.727519581 1110.69664393 112.632073495 c 0,24,25
 1077.99331815 109.536627409 1077.99331815 109.536627409 1043.52802066 109.317594908 c 0,26,27
 890.184095655 108.22286087 890.184095655 108.22286087 818.61634981 167.392848956 c 0,28,29
 747.048603965 226.562837042 747.048603965 226.562837042 745.423362324 350.974840499 c 0,30,31
 745.225876209 371.113430249 745.225876209 371.113430249 746.987563573 390.236040261 c 0,32,33
 748.749250938 409.358650273 748.749250938 409.358650273 752.449303805 427.503623406 c 0,34,35
 783.633903416 580.372497761 783.633903416 580.372497761 857.96708756 656.657709747 c 0,36,37
 931.772331036 733.044325333 931.772331036 733.044325333 1044.08187733 733.434273787 c 0,38,39
 1119.12137174 733.939537452 1119.12137174 733.939537452 1174.41884718 697.621549394 c 0,40,41
 1333.82144619 592.636722561 1333.82144619 592.636722561 1368.96580869 291.251829049 c 0,42,43
 1385.7321229 147.551692206 1385.7321229 147.551692206 1366.8599939 24.844547665 c 0,44,45
 1331.78743977 -204.300891507 1331.78743977 -204.300891507 1179.280409 -317.079589168 c 0,46,47
 1026.77337822 -429.858286828 1026.77337822 -429.858286828 747.330862614 -429.724606318 c 0,0,1
849.452074124 377.981808606 m 0,48,49
 849.792493631 300.269327981 849.792493631 300.269327981 905.253640634 261.314444165 c 0,50,51
 960.714787636 222.359560349 960.714787636 222.359560349 1056.95634134 223.234638318 c 0,52,53
 1101.25217538 223.637374358 1101.25217538 223.637374358 1145.95184871 230.520095396 c 0,54,55
 1190.65152205 237.402816434 1190.65152205 237.402816434 1235.63506573 250.709870036 c 2,56,-1
 1259.95959708 257.905564638 l 1,57,-1
 1256.90698093 283.087748435 l 2,58,59
 1242.20851544 404.340942818 1242.20851544 404.340942818 1203.3378658 487.838991588 c 0,60,61
 1146.35636384 614.030705546 1146.35636384 614.030705546 1037.43355172 613.857393894 c 0,62,63
 1011.85731417 613.892325611 1011.85731417 613.892325611 989.035938374 606.931215889 c 0,64,65
 966.21456258 599.970106167 966.21456258 599.970106167 947.230981538 586.818155877 c 0,66,67
 928.247400496 573.666205587 928.247400496 573.666205587 912.302190393 554.528781295 c 0,68,69
 896.35698029 535.391357003 896.35698029 535.391357003 884.083225139 511.28020354 c 0,70,71
 871.809469989 487.169050077 871.809469989 487.169050077 862.857594956 458.08299005 c 0,72,73
 850.072455838 416.770067436 850.072455838 416.770067436 849.452074124 377.981808606 c 0,48,49
EndSplineSet
Substitution2: "'fina' Terminal Forms in Arabic lookup 9 subtable" uni066F.fina
EndChar

StartChar: uni0670
Encoding: 1648 1648 75
GlifName: uni0670
Width: -29
VWidth: 2574
GlyphClass: 4
Flags: W
AnchorPoint: "Anchor-10" 636.984 1500.61 mark 0
AnchorPoint: "Anchor-9" 636.984 1500.61 mark 0
AnchorPoint: "Anchor-1" 636.984 1997.18 basemark 0
AnchorPoint: "Anchor-1" 636.984 1500.61 mark 0
LayerCount: 2
Fore
SplineSet
608.435546875 1583.26757812 m 1,0,-1
 608.435546875 1954.51660156 l 1,1,-1
 665.533203125 1954.51660156 l 1,2,-1
 665.533203125 1583.26757812 l 1,3,-1
 608.435546875 1583.26757812 l 1,0,-1
EndSplineSet
EndChar

StartChar: uni0674
Encoding: 1652 1652 76
GlifName: uni0674
Width: 551
VWidth: 2537
GlyphClass: 2
Flags: W
LayerCount: 2
Fore
SplineSet
183.757886409 1982.39992532 m 2,0,1
 161.197656378 1999.71246984 161.197656378 1999.71246984 146.047534936 2021.7513074 c 0,2,3
 131 2044 131 2044 123.441274369 2070.8233411 c 0,4,5
 116 2098 116 2098 115.783158099 2130.48180186 c 0,6,7
 116 2151 116 2151 119.260337765 2170.38866879 c 0,8,9
 123 2189 123 2189 129.532489537 2206.93715808 c 0,10,11
 136 2224 136 2224 146.615152961 2240.29417441 c 0,12,13
 157 2256 157 2256 170.573675192 2270.67230785 c 0,14,15
 235 2339 235 2339 337.010546305 2339.01562533 c 0,16,17
 403 2339 403 2339 462.907556103 2303.14595482 c 1,18,-1
 463.423875414 2206.42979704 l 1,19,20
 408 2236 408 2236 350.999041331 2236.2618442 c 0,21,22
 317 2236 317 2236 289.848102399 2226.53280215 c 0,23,24
 263 2217 263 2217 243.301410612 2197.44412264 c 0,25,26
 211 2164 211 2164 211.49443125 2117.72536917 c 0,27,28
 212 2099 212 2099 219.257872309 2083.35323887 c 0,29,30
 227 2067 227 2067 240.222852091 2053.9049281 c 0,31,32
 254 2041 254 2041 272.655429938 2029.60735594 c 0,33,34
 291 2019 291 2019 315.740711627 2009.73064178 c 0,35,36
 333 2003 333 2003 347.972366318 2006.59110664 c 0,37,38
 409 2018 409 2018 469.747070312 2030.34910251 c 1,39,-1
 469.747070312 1934.82910156 l 5,40,-1
 93.2861328125 1844.07324219 l 5,41,-1
 93.2861328125 1936.33748305 l 1,42,-1
 177.998468805 1955.88403968 l 1,43,-1
 208.991964495 1963.03549066 l 1,44,-1
 183.757886409 1982.39992532 l 2,0,1
EndSplineSet
EndChar

StartChar: uni06A1
Encoding: 1697 1697 80
GlifName: uni06A_1
Width: 1821
VWidth: 2952
GlyphClass: 2
Flags: W
AnchorPoint: "Anchor-10" 640.853 1630.62 basechar 0
AnchorPoint: "Anchor-7" 623.182 -352.248 basechar 0
LayerCount: 2
Fore
SplineSet
1687.55876922 473.264180325 m 0,0,1
 1686 205 1686 205 1564.23079949 113.637301818 c 0,2,3
 1452 30 1452 30 1160.20996094 30 c 2,4,-1
 829.911132812 30 l 2,5,6
 472 30 472 30 300.450980614 143.983990907 c 128,-1,7
 129 258 129 258 129.160135179 485.90762687 c 0,8,9
 129 599 129 599 169.55756449 703.17125834 c 1,10,-1
 273.586914062 667.974609375 l 1,11,12
 248 592 248 592 248.433482889 511.210609728 c 0,13,14
 248 332 248 332 394.171424407 243.031776536 c 0,15,16
 539.540592106 154.280479329 539.540592106 154.280479329 816.136257787 154.159182573 c 2,17,-1
 1181.35066352 153.999023438 l 2,18,19
 1606.65971164 153.999999219 1606.65971164 153.999999219 1588.95898438 402.01171875 c 6,20,-1
 1586.36043085 438.421054845 l 1,21,-1
 1551.36144707 427.758267376 l 2,22,23
 1524 419 1524 419 1491.36593202 412.901879861 c 0,24,25
 1461 407 1461 407 1427.94128448 403.888518911 c 0,26,27
 1395 401 1395 401 1361.16885693 400.76952362 c 0,28,29
 1209 401 1209 401 1136.84035729 460.131271266 c 0,30,31
 1065 519 1065 519 1062.82445552 642.712632362 c 0,32,33
 1062 682 1062 682 1069.88342838 719.087033198 c 0,34,35
 1098 869 1098 869 1175.36566837 948.101992369 c 0,36,37
 1250 1025 1250 1025 1361.32645153 1024.88479404 c 0,38,39
 1436 1025 1436 1025 1492.02929563 988.938788169 c 0,40,41
 1649 888 1649 888 1680.33235676 593.052710738 c 0,42,43
 1687 529 1687 529 1687.55876922 473.264180325 c 0,0,1
1166.85832728 669.304782184 m 0,44,45
 1166.94546551 592.223502305 1166.94546551 592.223502305 1222.41864198 553.267990428 c 128,-1,46
 1277.89181845 514.312478551 1277.89181845 514.312478551 1374.20163916 514.684782271 c 0,47,48
 1388.94218098 514.740193328 1388.94218098 514.740193328 1403.76000474 515.546221801 c 128,-1,49
 1418.5778285 516.352250274 1418.5778285 516.352250274 1433.43835358 517.905765332 c 128,-1,50
 1448.29887866 519.45928039 1448.29887866 519.45928039 1463.21743633 521.755539028 c 128,-1,51
 1478.13599401 524.051797666 1478.13599401 524.051797666 1493.10397314 527.091180689 c 128,-1,52
 1508.07195228 530.130563711 1508.07195228 530.130563711 1523.07698337 533.904582368 c 128,-1,53
 1538.08201446 537.678601025 1538.08201446 537.678601025 1553.14145585 542.191147759 c 2,54,-1
 1577.45006287 549.475197835 l 1,55,-1
 1574.29793497 574.655147209 l 2,56,57
 1569.29425404 614.625743584 1569.29425404 614.625743584 1561.77036547 650.466596586 c 128,-1,58
 1554.2464769 686.307449587 1554.2464769 686.307449587 1543.97647726 718.640393017 c 128,-1,59
 1533.70647762 750.973336446 1533.70647762 750.973336446 1520.75656066 779.259647152 c 0,60,61
 1463.30168161 904.933405587 1463.30168161 904.933405587 1354.80514844 905.308748027 c 0,62,63
 1291.83218547 905.121527747 1291.83218547 905.121527747 1247.63448145 864.31941796 c 128,-1,64
 1203.43677743 823.517308173 1203.43677743 823.517308173 1180.32043107 749.718072001 c 0,65,66
 1175.93907279 735.875951449 1175.93907279 735.875951449 1172.97831499 722.418041867 c 128,-1,67
 1170.01755719 708.960132286 1170.01755719 708.960132286 1168.4650885 695.600945274 c 128,-1,68
 1166.91261982 682.241758262 1166.91261982 682.241758262 1166.85832728 669.304782184 c 0,44,45
EndSplineSet
Substitution2: "'init' Initial Forms in Arabic lookup 13 subtable" uni06A1.init
Substitution2: "'medi' Medial Forms in Arabic lookup 11 subtable" uni06A1.medi
Substitution2: "'fina' Terminal Forms in Arabic lookup 9 subtable" uni06A1.fina
EndChar

StartChar: uni06A9
Encoding: 1705 1705 81
GlifName: uni06A_9
Width: 1848
VWidth: 2952
GlyphClass: 2
Flags: W
AnchorPoint: "Anchor-7" 720.268 -236.468 basechar 0
AnchorPoint: "Anchor-10" 1095.88 1435.07 basechar 0
LayerCount: 2
Fore
SplineSet
1477.23748554 639.288901825 m 0,0,1
 1599 507 1599 507 1596.71386115 350.848319313 c 0,2,3
 1594 192 1594 192 1451.96518939 111.09315054 c 128,-1,4
 1310 30 1310 30 1014.10449219 30 c 2,5,-1
 832.553710938 30 l 2,6,7
 473 30 473 30 301.101918025 144.004930459 c 0,8,9
 129 258 129 258 129.160135179 485.90762687 c 0,10,11
 129 599 129 599 169.55756449 703.17125834 c 1,12,-1
 273.586914062 667.974609375 l 1,13,14
 248 592 248 592 248.433937362 511.130829207 c 0,15,16
 249 391 249 391 318.325106323 310.347184223 c 0,17,18
 388 230 388 230 516.410832986 192.055038639 c 0,19,20
 645.023098863 153.993164058 645.023098863 153.993164058 832.553710938 153.993164062 c 2,21,-1
 1013.2748858 153.993164066 l 2,22,23
 1478 154 1478 154 1477.21672329 375.184610409 c 0,24,25
 1477 486 1477 486 1364.14951314 592.056736664 c 0,26,27
 1287 664 1287 664 1218.10834247 723.53205405 c 0,28,29
 1149 783 1149 783 1088.97174153 830.632888918 c 0,30,31
 976 919 976 919 976.411132812 1004.44335938 c 4,32,33
 976.000187269 1098.95692996 976.000187269 1098.95692996 1107.25651874 1148.79974199 c 2,34,-1
 1759.86328125 1396.61831064 l 1,35,-1
 1759.86328125 1280.29333445 l 1,36,-1
 1106.58383573 1036.66856736 l 1,37,-1
 1058.36906389 1018.68803447 l 1,38,-1
 1097.76986328 985.589079902 l 2,39,40
 1358 767 1358 767 1477.23748554 639.288901825 c 0,0,1
EndSplineSet
Substitution2: "'init' Initial Forms in Arabic lookup 13 subtable" uniFB90
Substitution2: "'medi' Medial Forms in Arabic lookup 11 subtable" uniFB91
Substitution2: "'fina' Terminal Forms in Arabic lookup 9 subtable" uniFB8F
EndChar

StartChar: afii57514
Encoding: 1722 1722 83
GlifName: afii57514
Width: 1455
VWidth: 2952
GlyphClass: 2
Flags: W
LayerCount: 2
Fore
SplineSet
1266.9313957 -133.779813583 m 0,0,1
 1126.3197966 -419.987694807 1126.3197966 -419.987694807 727.316887448 -419.724612275 c 0,2,3
 287.364919799 -419.918054442 287.364919799 -419.918054442 173.767158729 -128.405605423 c 0,4,5
 131.719461423 -19.3405829706 131.719461423 -19.3405829706 131.752908717 131.00847324 c 0,6,7
 131.977260107 320.750336397 131.977260107 320.750336397 209.601575391 520.845560052 c 1,8,-1
 313.261733609 478.119630308 l 1,9,10
 248.011252112 297.811620251 248.011252112 297.811620251 248.268561256 132.880202328 c 0,11,12
 248.126479044 -81.8452848013 248.126479044 -81.8452848013 372.410639053 -192.471303805 c 128,-1,13
 496.694799062 -303.097322809 496.694799062 -303.097322809 734.414096776 -303.203121869 c 0,14,15
 889.353568105 -303.132334402 889.353568105 -303.132334402 995.457871163 -249.189162075 c 128,-1,16
 1101.56217422 -195.245989749 1101.56217422 -195.245989749 1155.78747927 -89.2231390268 c 128,-1,17
 1210.01278431 16.7997116949 1210.01278431 16.7997116949 1210.5545997 171.861014858 c 0,18,19
 1210.69651997 230.522637502 1210.69651997 230.522637502 1201.89054928 289.451051325 c 128,-1,20
 1193.08457858 348.379465148 1193.08457858 348.379465148 1175.53797744 407.00922582 c 128,-1,21
 1157.99137629 465.638986492 1157.99137629 465.638986492 1131.69527785 524.401810493 c 1,22,-1
 1245.50996318 564.166293 l 1,23,24
 1327.00952773 345.524144755 1327.00952773 345.524144755 1327.11426546 142.021423334 c 0,25,26
 1327.00496117 -11.0419590258 1327.00496117 -11.0419590258 1266.9313957 -133.779813583 c 0,0,1
EndSplineSet
Substitution2: "'fina' Terminal Forms in Arabic lookup 9 subtable" uniFB9F
EndChar

StartChar: uni06F4
Encoding: 1780 1780 90
GlifName: uni06F_4
Width: 1183
VWidth: 2952
GlyphClass: 2
Flags: W
LayerCount: 2
Fore
SplineSet
988.061523438 1317.96582031 m 1,0,-1
 959.34375 1202.82128906 l 1,1,2
 897 1224 897 1224 810.252929688 1223.92675781 c 0,3,4
 707 1224 707 1224 633.157226562 1166.80273438 c 0,5,6
 520 1079 520 1079 506.833984375 970.392578125 c 0,7,8
 505 955 505 955 509.41796875 940.666015625 c 0,9,10
 514 926 514 926 521.913085938 914.3046875 c 0,11,12
 530 902 530 902 543.299804688 890.795898438 c 0,13,14
 556 879 556 879 570.885742188 869.8828125 c 0,15,16
 585 861 585 861 603.65234375 851.051757812 c 0,17,18
 684 810 684 810 792.927734375 810.590820312 c 0,19,20
 835 811 835 811 875.264648438 815.1484375 c 0,21,22
 916 820 916 820 954.815429688 828.142578125 c 0,23,24
 994 837 994 837 1030.3671875 849.264648438 c 1,25,-1
 1045.67480469 734.666015625 l 1,26,27
 936 691 936 691 813.248046875 691.181640625 c 0,28,29
 523 691 523 691 402.196289062 867.5390625 c 1,30,-1
 412.014648438 791.169921875 l 2,31,32
 431 643 431 643 435.341796875 528.493164062 c 0,33,34
 444 289 444 289 444.115234375 288.771484375 c 2,35,-1
 444.115234375 41.5537109375 l 1,36,-1
 324.795898438 41.5537109375 l 1,37,-1
 324.791992188 291.908203125 l 2,38,39
 325 915 325 915 146.353515625 1300.71972656 c 1,40,-1
 251.083984375 1337.63671875 l 1,41,42
 342 1111 342 1111 378.931640625 987.983398438 c 1,43,-1
 386 1012 l 2,44,45
 487 1356 487 1356 814.905273438 1354.43164062 c 0,46,47
 900 1354 900 1354 988.061523438 1317.96582031 c 1,0,-1
EndSplineSet
PairPos2: "'kern' Horizontal Kerning lookup 15-4" uni06F8 dx=-40 dy=0 dh=-40 dv=0 dx=0 dy=0 dh=0 dv=0
PairPos2: "'kern' Horizontal Kerning lookup 15-4" uni06F5 dx=-40 dy=0 dh=-40 dv=0 dx=0 dy=0 dh=0 dv=0
PairPos2: "'kern' Horizontal Kerning lookup 15-4" uni06F0 dx=-64 dy=0 dh=-64 dv=0 dx=0 dy=0 dh=0 dv=0
EndChar

StartChar: uni06F5
Encoding: 1781 1781 91
GlifName: uni06F_5
Width: 1279
VWidth: 2952
GlyphClass: 2
Flags: W
LayerCount: 2
Fore
SplineSet
248.965820312 339.408203125 m 4,0,1
 248.965820312 233.4296875 248.965820312 233.4296875 302.827148438 190.529296875 c 4,2,3
 331.219726562 167.9140625 331.219726562 167.9140625 373.08203125 167.844726562 c 4,4,5
 539.600585938 168.018554688 539.600585938 168.018554688 608.75 462.5625 c 5,6,-1
 683.8671875 462.499023438 l 5,7,8
 739.907226562 163.989257812 739.907226562 163.989257812 894.234375 164.079101562 c 4,9,10
 960.7578125 164.029296875 960.7578125 164.029296875 994.874023438 211.513671875 c 132,-1,11
 1028.99023438 258.998046875 1028.99023438 258.998046875 1028.97851562 339.673828125 c 4,12,13
 1029.00097656 686.388671875 1029.00097656 686.388671875 645.2578125 1071.73925781 c 6,14,-1
 620.938476562 1096.16015625 l 5,15,-1
 600.103515625 1068.70703125 l 6,16,17
 248.965820312 606.049804688 248.965820312 606.049804688 248.965820312 339.408203125 c 4,0,1
358.447265625 41.9833984375 m 4,18,19
 244 42 244 42 189.301757812 113.004882812 c 4,20,21
 134 184 134 184 134.2421875 339.3671875 c 4,22,23
 134 652.857421875 134 652.857421875 514.4765625 1163.79589844 c 6,24,-1
 530.486328125 1185.29589844 l 5,25,-1
 475.17578125 1237.07128906 l 5,26,-1
 551.21484375 1342.20898438 l 5,27,28
 1145 799 1145 799 1144.44238281 349.298828125 c 4,29,30
 1144 152 1144 152 1051.87695312 82 c 4,31,32
 999 42 999 42 905.47265625 42.0400390625 c 4,33,34
 729 42 729 42 646.358398438 274.571289062 c 5,35,36
 567 42 567 42 358.447265625 41.9833984375 c 4,18,19
EndSplineSet
PairPos2: "'kern' Horizontal Kerning lookup 15-4" uni06F8 dx=-38 dy=0 dh=-38 dv=0 dx=0 dy=0 dh=0 dv=0
PairPos2: "'kern' Horizontal Kerning lookup 15-4" uni06F7 dx=-100 dy=0 dh=-100 dv=0 dx=0 dy=0 dh=0 dv=0
PairPos2: "'kern' Horizontal Kerning lookup 15-4" uni06F6 dx=-42 dy=0 dh=-42 dv=0 dx=0 dy=0 dh=0 dv=0
PairPos2: "'kern' Horizontal Kerning lookup 15-4" uni06F4 dx=-42 dy=0 dh=-42 dv=0 dx=0 dy=0 dh=0 dv=0
PairPos2: "'kern' Horizontal Kerning lookup 15-4" uni06F3 dx=-100 dy=0 dh=-100 dv=0 dx=0 dy=0 dh=0 dv=0
PairPos2: "'kern' Horizontal Kerning lookup 15-4" uni06F2 dx=-100 dy=0 dh=-100 dv=0 dx=0 dy=0 dh=0 dv=0
EndChar

StartChar: uni06F6
Encoding: 1782 1782 92
GlifName: uni06F_6
Width: 1033
VWidth: 2952
GlyphClass: 2
Flags: W
LayerCount: 2
Fore
SplineSet
683.883789062 1217.16113281 m 1,0,1
 642 1220 642 1220 594.745117188 1220.46582031 c 0,2,3
 406 1220 406 1220 323.55859375 1123.15722656 c 0,4,5
 303 1099 303 1099 288.150390625 1073.8359375 c 0,6,7
 274 1048 274 1048 266.275390625 1020.51171875 c 0,8,9
 259 993 259 993 258.594726562 963.813476562 c 0,10,11
 259 749.053710938 259 749.053710938 645.7109375 748.364257812 c 2,12,-1
 649.1484375 748.358398438 l 1,13,-1
 652.498046875 749.129882812 l 1,14,-1
 653.8125 749.432617188 l 1,15,-1
 657.8125 750.353515625 l 1,16,-1
 661.41796875 752.315429688 l 2,17,18
 762 804 762 804 862.713867188 856.6796875 c 1,19,-1
 907.755859375 754.428710938 l 1,20,21
 492 557 492 557 258.34375 8.892578125 c 1,22,-1
 145.90234375 46.55078125 l 1,23,24
 291.987304688 396.96875 291.987304688 396.96875 502.721679688 604.31640625 c 2,25,-1
 540.4140625 641.403320312 l 1,26,-1
 476.515625 647.534179688 l 2,27,28
 314 663 314 663 218.18359375 750.124023438 c 0,29,30
 134 827 134 827 134.64453125 968.778320312 c 0,31,32
 135 1056 135 1056 170.3515625 1129.2421875 c 0,33,34
 280 1350 280 1350 562.858398438 1346.40820312 c 0,35,36
 595 1346 595 1346 630.0390625 1343.76269531 c 0,37,38
 665 1341 665 1341 701.318359375 1336.66699219 c 1,39,-1
 683.883789062 1217.16113281 l 1,0,1
EndSplineSet
EndChar

StartChar: uniFB8F
Encoding: 64399 64399 107
GlifName: uniF_B_8F_
Width: 1924
VWidth: 2952
GlyphClass: 2
Flags: W
AnchorPoint: "Anchor-10" 1140.88 1438.07 basechar 0
AnchorPoint: "Anchor-7" 720.268 -236.468 basechar 0
LayerCount: 2
Fore
SplineSet
830.911132812 30 m 2,0,1
 472 30 472 30 300.69730506 143.991948978 c 0,2,3
 129 258 129 258 129.160135179 485.90762687 c 0,4,5
 129 599 129 599 169.55756449 703.17125834 c 1,6,-1
 273.586914062 667.974609375 l 1,7,8
 248 592 248 592 248.433937362 511.130829207 c 0,9,10
 249 331 249 331 398.943291646 242.594363559 c 128,-1,11
 549.011578381 153.993164056 549.011578381 153.993164056 830.911132812 153.993164062 c 2,12,-1
 1012.63230916 153.993164066 l 2,13,14
 1476 154 1476 154 1476.57393492 374.987666748 c 0,15,16
 1477 486 1477 486 1363.44770523 592.111802008 c 0,17,18
 1203 741 1203 741 1088.32601924 830.635191527 c 0,19,20
 975 920 975 920 975.768554688 1004.46679688 c 0,21,22
 976.994567316 1099.57854263 976.994567316 1099.57854263 1106.61394062 1148.79974199 c 2,23,-1
 1759.22070312 1396.61831064 l 1,24,-1
 1759.22070312 1280.29333445 l 1,25,-1
 1105.9412576 1036.66856736 l 1,26,-1
 1057.5793464 1018.6331624 l 1,27,-1
 1097.18821659 985.538031506 l 2,28,29
 1354 771 1354 771 1476.62028373 639.261562806 c 0,30,31
 1553 557 1553 557 1599.65196973 424.843068754 c 0,32,33
 1623 359 1623 359 1654.27940925 309.196639123 c 0,34,35
 1686 259 1686 259 1725.09268442 224.338815672 c 0,36,37
 1765 190 1765 190 1812.52270726 171.836305915 c 0,38,39
 1861.0185794 153.993164061 1861.0185794 153.993164061 1915.76367188 153.993164062 c 2,40,-1
 1944.875 153.993164062 l 5,41,42
 1944.09277344 30 l 1,43,-1
 1915.65722656 30 l 2,44,45
 1814 30 1814 30 1733.51275539 70.7566778269 c 0,46,47
 1652.55879681 112.226009969 1652.55879681 112.226009969 1590.87751971 194.734210364 c 2,48,-1
 1565.01545617 229.328700322 l 1,49,-1
 1541.62794512 193.015487947 l 2,50,51
 1437 30 1437 30 1013.46191406 30 c 2,52,-1
 830.911132812 30 l 2,0,1
EndSplineSet
EndChar

StartChar: uniFB9F
Encoding: 64415 64415 115
GlifName: uniF_B_9F_
Width: 1539
VWidth: 2952
GlyphClass: 2
Flags: W
AnchorPoint: "Anchor-10" 693.458 1366.61 basechar 0
AnchorPoint: "Anchor-7" 585.902 -800.086 basechar 0
LayerCount: 2
Fore
SplineSet
1319.92042366 56.2233175997 m 2,0,1
 1318.88915547 -96.2294412263 1318.88915547 -96.2294412263 1266.90050888 -203.842682161 c 0,2,3
 1126 -490 1126 -490 727.316887448 -489.724612275 c 0,4,5
 424 -490 424 -490 277.710201939 -354.009431399 c 0,6,7
 131 -218 131 -218 131.752908717 61.0084732407 c 0,8,9
 132 251 132 251 209.601575391 450.845560052 c 1,10,-1
 313.261733609 408.119630308 l 1,11,12
 248 228 248 228 248.268561256 62.8802023285 c 0,13,14
 248 -152 248 -152 372.410639053 -262.471303805 c 128,-1,15
 497 -373 497 -373 734.414096776 -373.203121869 c 0,16,17
 889 -373 889 -373 995.457871163 -319.189162075 c 0,18,19
 1102 -265 1102 -265 1155.78747927 -159.223139027 c 0,20,21
 1210 -53 1210 -53 1210.5545997 101.861014858 c 0,22,23
 1211 161 1211 161 1201.89054928 219.451051325 c 0,24,25
 1193 278 1193 278 1175.53797744 337.00922582 c 128,-1,26
 1158 396 1158 396 1131.69527785 454.401810493 c 1,27,-1
 1243.92854187 493.613777303 l 1,28,-1
 1307.71699198 294.870937743 l 2,29,30
 1323 248 1323 248 1353.87633581 216.64386543 c 0,31,32
 1385 185 1385 185 1429.07773939 169.472244276 c 128,-1,33
 1473.00277224 153.999023439 1473.00277224 153.999023439 1529.02050781 153.999023438 c 2,34,-1
 1559.23046875 153.999023438 l 1,35,36
 1558.11425781 30 l 1,37,38
 1534 30.0000100799 l 18,39,40
 1478 30 1478 30 1445 39.6923828125 c 0,41,42
 1382 58 1382 58 1320.32128906 115.483398438 c 1,43,-1
 1319.92042366 56.2233175997 l 2,0,1
EndSplineSet
EndChar

StartChar: uniFBE8
Encoding: 64488 64488 118
GlifName: uniF_B_E_8
Width: 646
VWidth: 2952
GlyphClass: 2
Flags: W
AnchorPoint: "Anchor-10" 311.384 1353 basechar 0
AnchorPoint: "Anchor-7" 303.422 -223.625 basechar 0
LayerCount: 2
Fore
SplineSet
68.673828125 30 m 2,0,-1
 -20.9384765625 30 l 5,1,2
 -20.9384765625 153.993164062 l 5,3,-1
 68.685849529 153.993164089 l 2,4,5
 237 154 237 154 300.517734614 190.15537645 c 0,6,7
 401 249 401 249 401.221627605 425.090081283 c 0,8,9
 401 535 401 535 370.476546804 667.791168615 c 1,10,-1
 476.905042722 694.569885674 l 1,11,12
 516 557 516 557 516.223645276 428.355471973 c 0,13,14
 516 202 516 202 387.412575393 101.135603623 c 0,15,16
 358 78 358 78 312.975221676 62.6953273232 c 0,17,18
 268 47 268 47 206.588678552 38.4994699894 c 128,-1,19
 145 30 145 30 68.673828125 30 c 2,0,-1
EndSplineSet
EndChar

StartChar: uniFBE9
Encoding: 64489 64489 119
GlifName: uniF_B_E_9
Width: 717
VWidth: 2952
GlyphClass: 2
Flags: W
AnchorPoint: "Anchor-10" 315.665 1297.09 basechar 0
AnchorPoint: "Anchor-7" 350.537 -177.742 basechar 0
LayerCount: 2
Fore
SplineSet
446.084960938 188.395507812 m 1,0,1
 334 30 334 30 95.759765625 30 c 2,2,-1
 -20.1171875 30 l 5,3,4
 -20.1171875 153.993164062 l 5,5,-1
 91.0135831454 153.993164075 l 2,6,7
 347 154 347 154 376.050980467 310.728549221 c 0,8,9
 383 348 383 348 383.293178487 399.261481353 c 0,10,11
 382.999455493 450.094234345 382.999455493 450.094234345 379.937465817 495.690757251 c 2,12,-1
 376.359619243 548.968978451 l 1,13,-1
 481.575195312 561.321289062 l 1,14,-1
 495.466796875 361.506835938 l 2,15,16
 502 263 502 263 558.099609375 209.4140625 c 0,17,18
 615.663802243 154.32176093 615.663802243 154.32176093 708 154.104492188 c 2,19,-1
 737.881835938 154.034179688 l 1,20,-1
 737.737304688 30.0166015625 l 1,21,-1
 708 30.052734375 l 2,22,23
 533.452332572 30.0001363056 533.452332572 30.0001363056 469.948242188 145.131835938 c 2,24,-1
 446.084960938 188.395507812 l 1,0,1
EndSplineSet
EndChar

StartChar: uniFE73
Encoding: 65139 65139 127
GlifName: uniF_E_73
Width: 672
VWidth: 2952
GlyphClass: 2
Flags: W
AnchorPoint: "Anchor-10" 342.943 1012.47 basechar 0
AnchorPoint: "Anchor-7" 416.943 -206.304 basechar 0
LayerCount: 2
Fore
SplineSet
270.35054713 422.69140625 m 1,0,1
 271.223700668 333.677787635 271.223700668 333.677787635 312.909540256 273.293597786 c 0,2,3
 354.595379845 212.909407937 354.595379845 212.909407937 431.416642402 183.626090687 c 0,4,5
 508.237904959 154.342773438 508.237904959 154.342773438 618.00390625 154.342773438 c 2,6,-1
 658.674804688 154.342773438 l 1,7,-1
 658.674804688 31.5537109375 l 1,8,-1
 608.033695896 31.5536989132 l 2,9,10
 369.559085364 31.7672129398 369.559085364 31.7672129398 255.475615278 128.298939499 c 0,11,12
 141.392145192 224.830666058 141.392145192 224.830666058 139.569553294 422.69140625 c 1,13,-1
 270.35054713 422.69140625 l 1,0,1
EndSplineSet
EndChar

StartChar: uniFE8E
Encoding: 65166 65166 153
GlifName: uniF_E_8E_
Width: 531
VWidth: 2952
GlyphClass: 2
Flags: W
AnchorPoint: "Anchor-10" 234.697 1531.11 basechar 0
AnchorPoint: "Anchor-7" 296.078 -239.903 basechar 0
LayerCount: 2
Fore
SplineSet
551.3125 30 m 1,0,-1
 517.658203125 30 l 2,1,2
 346 30 346 30 263.290296603 128.125738934 c 0,3,4
 180.283203125 225.667208574 180.283203125 225.667208574 180.283203125 434.395507812 c 2,5,-1
 180.283203125 1360.171875 l 5,6,-1
 293.598632812 1360.171875 l 5,7,-1
 293.598670726 436.402500065 l 2,8,9
 294.007025117 301.682344528 294.007025117 301.682344528 351.471519015 227.8822607 c 0,10,11
 409.005322809 153.993164062 409.005322809 153.993164062 520.712890625 153.993164062 c 2,12,-1
 551.319335938 153.993164062 l 1,13,-1
 551.3125 30 l 1,0,-1
EndSplineSet
EndChar

StartChar: uniFEA2
Encoding: 65186 65186 173
GlifName: uniF_E_A_2
Width: 1386
VWidth: 2952
GlyphClass: 2
Flags: W
AnchorPoint: "Anchor-7" 580.833 -810.619 basechar 0
AnchorPoint: "Anchor-10" 649.478 1262.07 basechar 0
LayerCount: 2
Fore
SplineSet
1225.75686146 633.03122351 m 1,0,-1
 1216.91300809 514.721255577 l 1,1,2
 1112.30234251 505.209344591 1112.30234251 505.209344591 1045.6900626 496.077476594 c 2,3,-1
 1019.76464844 492.523365247 l 1,4,-1
 1019.76464844 466.35546875 l 1,5,-1
 1019.76465942 458.111056802 l 2,6,7
 1020 310 1020 310 1099.94995397 231.665979745 c 0,8,9
 1180.29229552 153.716409682 1180.29229552 153.716409682 1330.72337166 154.06170113 c 2,10,-1
 1405.95117188 154.234375 l 5,11,-1
 1404.99414062 30 l 5,12,-1
 1331.49511719 30 l 2,13,14
 1228 30 1228 30 1151.81122645 53.8295249635 c 0,15,16
 1076 78 1076 78 1025.66479879 126.587369786 c 0,17,18
 979.152827229 171.902566047 979.152827229 171.902566047 950.965783291 249.378309196 c 0,19,20
 926.469440898 315.728484228 926.469440898 315.728484228 926.192284665 424.078691878 c 2,21,-1
 926.162011228 435.913652815 l 1,22,-1
 926.063898359 474.269455178 l 1,23,-1
 888.861152227 464.934955658 l 2,24,25
 582 388 582 388 423.381600078 239.038947548 c 0,26,27
 265 90 265 90 265.249030281 -129.282471948 c 0,28,29
 265 -328 265 -328 409.102116556 -428.041323872 c 0,30,31
 551 -527 551 -527 826.356693338 -527.7831881 c 0,32,33
 894 -528 894 -528 961.412255782 -518.579274756 c 0,34,35
 1028 -509 1028 -509 1093.46509495 -490.928690423 c 128,-1,36
 1159 -473 1159 -473 1221.56972266 -445.171207921 c 1,37,-1
 1245.18291971 -558.999927289 l 1,38,39
 1059 -643 1059 -643 811.547450043 -643.249029537 c 0,40,41
 434 -643 434 -643 276.011845807 -471.923347364 c 0,42,43
 155 -341 155 -341 154.980468733 -144.545925975 c 0,44,45
 155 136 155 136 326.022171958 313.437797585 c 0,46,47
 496.701295889 490.689792762 496.701295889 490.689792762 847.495496549 568.48799877 c 2,48,-1
 857.495496549 570.705772207 l 1,49,-1
 954.6464056 592.251642755 l 1,50,-1
 861.774868768 627.992394196 l 2,51,52
 855 630 855 630 855.330557351 630.486854509 c 0,53,54
 852 632 852 632 847.31677984 633.614200427 c 0,55,56
 843 635 843 635 837.747918518 637.368790104 c 0,57,58
 833 639 833 639 826.625229266 641.750202408 c 0,59,60
 821 644 821 644 813.96396946 646.752447445 c 0,61,62
 807 649 807 649 799.765394982 652.375104081 c 0,63,64
 792 655 792 655 784.044763208 658.612182424 c 0,65,66
 776 662 776 662 766.803330018 665.46326134 c 0,67,68
 758 669 758 669 748.055477695 672.922698983 c 0,69,70
 681 700 681 700 630.026657429 717.646659511 c 0,71,72
 579 735 579 735 538.535106071 744.473100704 c 128,-1,73
 498 754 498 754 469.528023806 753.687752923 c 0,74,75
 428 754 428 754 389.701070772 741.863999629 c 0,76,77
 352 730 352 730 319.275108995 706.457728821 c 0,78,79
 285.821297024 681.8686505 285.821297024 681.8686505 259.94175455 648.533895416 c 2,80,-1
 246.931496747 631.77572599 l 1,81,-1
 144.347569103 682.420814588 l 1,82,83
 262 876 262 876 471.82764378 875.841820444 c 0,84,85
 530 876 530 876 603.285480478 855.313628937 c 0,86,87
 676 835 676 835 761.850380812 793.060452191 c 0,88,89
 1053 651 1053 651 1225.75686146 633.03122351 c 1,0,-1
EndSplineSet
EndChar

StartChar: uniFEA3
Encoding: 65187 65187 174
GlifName: uniF_E_A_3
Width: 1337
VWidth: 2952
GlyphClass: 2
Flags: W
AnchorPoint: "Anchor-10" 565.825 1180.07 basechar 0
AnchorPoint: "Anchor-7" 513.524 -234.745 basechar 0
LayerCount: 2
Fore
SplineSet
-20.9384765625 30 m 5,0,1
 -20.9384765625 153.999023438 l 5,2,-1
 52.5430574056 153.999023438 l 2,3,4
 390.492738848 154.000001426 390.492738848 154.000001426 882.763787191 408.180617204 c 2,5,-1
 956.590935629 446.300734392 l 1,6,-1
 1025.02659196 481.636993401 l 1,7,-1
 950.719837194 501.90017317 l 2,8,9
 924 509 924 509 738.099917332 584.878920296 c 0,10,11
 544 663 544 663 460.291964734 665.657446601 c 0,12,13
 448 666 448 666 435.279406925 664.637550549 c 0,14,15
 423 664 423 664 411.051803011 661.4429838 c 128,-1,16
 399 659 399 659 387.650933392 656.095238432 c 0,17,18
 376 653 376 653 365.106989314 648.622671792 c 0,19,20
 354 644 354 644 343.462523788 639.046318274 c 128,-1,21
 333 634 333 634 322.747728061 627.394535222 c 0,22,23
 313 621 313 621 303.005155144 613.688357031 c 0,24,25
 293 606 293 606 284.264996281 597.956141047 c 0,26,27
 275 590 275 590 266.569804486 580.218921663 c 0,28,29
 258.204418212 571.136196397 258.204418212 571.136196397 249.950543613 560.504598541 c 2,30,-1
 236.94028581 543.746429114 l 1,31,-1
 134.355664269 594.391860286 l 1,32,33
 251 787 251 787 461.377415544 787.812532867 c 0,34,35
 581 788 581 788 751.860917302 705.030303935 c 0,36,37
 898 634 898 634 1014.11465837 593.820254536 c 0,38,39
 1130 554 1130 554 1217.62266327 544.814092697 c 1,40,-1
 1216.36446011 425.094950993 l 1,41,42
 1090 401 1090 401 807.684593092 252.685407992 c 0,43,44
 596 141 596 141 404.341878652 85.5436590519 c 0,45,46
 213 30 213 30 40.767578125 30 c 2,47,-1
 -20.9384765625 30 l 5,0,1
EndSplineSet
EndChar

StartChar: uniFEA4
Encoding: 65188 65188 175
GlifName: uniF_E_A_4
Width: 1351
VWidth: 2952
GlyphClass: 2
Flags: W
AnchorPoint: "Anchor-10" 565.825 1180.07 basechar 0
AnchorPoint: "Anchor-7" 513.524 -234.745 basechar 0
LayerCount: 2
Fore
SplineSet
950.202166754 502.036389992 m 2,0,1
 939.987768584 504.626934517 939.987768584 504.626934517 884.495891174 526.419954602 c 0,2,3
 827 549 827 549 738.099917332 584.878920296 c 0,4,5
 544 663 544 663 460.291964734 665.657446601 c 0,6,7
 448 666 448 666 435.279406925 664.637550549 c 0,8,9
 423 664 423 664 411.051803011 661.4429838 c 128,-1,10
 399 659 399 659 387.650933392 656.095238432 c 0,11,12
 376 653 376 653 365.106989314 648.622671792 c 0,13,14
 354 644 354 644 343.462523788 639.046318274 c 128,-1,15
 333 634 333 634 322.747728061 627.394535222 c 0,16,17
 313 621 313 621 303.005155144 613.688357031 c 0,18,19
 293 606 293 606 284.264996281 597.956141047 c 0,20,21
 275 590 275 590 266.569804486 580.218921663 c 0,22,23
 258.204418212 571.136196397 258.204418212 571.136196397 249.950543613 560.504598541 c 2,24,-1
 236.94028581 543.746429114 l 1,25,-1
 134.355664269 594.391860286 l 1,26,27
 251 787 251 787 461.377415544 787.812532867 c 0,28,29
 581 788 581 788 751.860917302 705.030303935 c 0,30,31
 898 634 898 634 1014.11465837 593.820254536 c 0,32,33
 1130 554 1130 554 1217.62266327 544.814092697 c 1,34,-1
 1216.37014818 425.636176299 l 1,35,36
 1135.06284818 412.010532227 1135.06284818 412.010532227 1025.4979332 356.789815081 c 2,37,-1
 1008.48962981 348.217630173 l 1,38,-1
 1010.01171875 329.178710938 l 6,39,40
 1019.84891627 203.923717769 1019.84891627 203.923717769 1191.77105346 164.215416949 c 0,41,42
 1233.81808939 154.279296875 1233.81808939 154.279296875 1316.61132812 154.279296875 c 2,43,-1
 1371.46582031 154.279296875 l 1,44,-1
 1370.75683594 30 l 1,45,-1
 1301.09667969 30 l 2,46,47
 1126 30 1126 30 1037.2695129 90.170268413 c 0,48,49
 948.358182057 149.759941153 948.358182057 149.759941153 933.789047736 271.964513113 c 2,50,-1
 928.748591446 314.243401469 l 1,51,-1
 890.631495056 295.269799727 l 2,52,53
 883 291 883 291 874.720124602 287.297679247 c 0,54,55
 867 283 867 283 858.470920715 279.053689893 c 128,-1,56
 850 275 850 275 841.882390073 270.537137263 c 0,57,58
 834 266 834 266 824.954111973 261.747941431 c 0,59,60
 816 257 816 257 807.684593092 252.685407992 c 0,61,62
 596 141 596 141 404.341878652 85.5436590519 c 0,63,64
 213 30 213 30 40.767578125 30 c 2,65,-1
 -20.9384765625 30 l 1,66,-1
 -20.9384765625 153.999023438 l 1,67,-1
 52.5430574056 153.999023438 l 2,68,69
 390.492738848 154.000001426 390.492738848 154.000001426 882.763787191 408.180617204 c 2,70,-1
 956.590935629 446.300734392 l 1,71,-1
 1026.87429108 482.591039555 l 1,72,-1
 950.202166754 502.036389992 l 2,0,1
EndSplineSet
EndChar

StartChar: uniFEAA
Encoding: 65194 65194 181
GlifName: uniF_E_A_A_
Width: 1061
VWidth: 2952
GlyphClass: 2
Flags: W
AnchorPoint: "Anchor-7" 417.24 -239.316 basechar 0
AnchorPoint: "Anchor-10" 522.848 1245.53 basechar 0
LayerCount: 2
Fore
SplineSet
337.570591488 30.8193470685 m 0,0,1
 219 31 219 31 132.096679688 49.3669311938 c 1,2,-1
 132.096679688 176.64558397 l 1,3,4
 235 155 235 155 322.975501339 155.068359964 c 0,5,6
 702 155 702 155 698.357062406 349.979794432 c 0,7,8
 698 371 698 371 686.839015854 408.579366219 c 0,9,10
 675 446 675 446 656.568053205 494.279078466 c 0,11,12
 644.150012949 526.972334816 644.150012949 526.972334816 604.438782373 620.168245085 c 2,13,-1
 495.035527346 876.92019638 l 1,14,-1
 604.371142237 927.155443841 l 1,15,-1
 784.65339907 470.856621045 l 2,16,17
 848 311 848 311 909.830604268 234.520633281 c 0,18,19
 974.005447772 153.993164061 974.005447772 153.993164061 1048.87988281 153.993164062 c 2,20,-1
 1081.29882812 153.993164062 l 5,21,-1
 1080.80273438 30 l 5,22,-1
 1048.53222656 30 l 2,23,24
 899.133598151 30 899.133598151 30 813.080273804 175.874631947 c 2,25,-1
 791.382197862 212.65646305 l 1,26,-1
 764.13877479 179.77021215 l 2,27,28
 703 106 703 106 597.221971295 68.6174870535 c 0,29,30
 491 31 491 31 337.570591488 30.8193470685 c 0,0,1
EndSplineSet
EndChar

StartChar: uniFEAE
Encoding: 65198 65198 185
GlifName: uniF_E_A_E_
Width: 870
VWidth: 2144
GlyphClass: 2
Flags: W
AnchorPoint: "Anchor-7" 322.969 -667.998 basechar 0
AnchorPoint: "Anchor-10" 507.256 926.2 basechar 0
LayerCount: 2
Fore
SplineSet
648.229128135 56.8090745313 m 2,0,1
 595.638879592 -364.075001839 595.638879592 -364.075001839 67.7597135311 -473.711309666 c 1,2,-1
 27.8985793754 -372.265970036 l 1,3,4
 280 -318 280 -318 411.233952394 -186.391370429 c 0,5,6
 541 -56 541 -56 543.250519949 152.077644875 c 0,7,8
 544 218 544 218 526.339235813 293.704866164 c 0,9,10
 509 369 509 369 474.823019102 454.410198219 c 1,11,-1
 582.046397001 492.861420319 l 1,12,-1
 634.64356578 328.767242056 l 2,13,14
 653 272 653 272 683.0555054 234.027252133 c 0,15,16
 713 195 713 195 756.025644575 174.57364133 c 128,-1,17
 799.002039848 153.999023439 799.002039848 153.999023439 851.31640625 153.999023438 c 2,18,-1
 890.682617188 153.999023438 l 1,19,20
 889.8359375 30 l 9,21,-1
 861.80078125 30 l 2,22,23
 816 30 816 30 781.937818107 35.9759392551 c 4,24,25
 707 48 707 48 656 119 c 1,26,-1
 648.229128135 56.8090745313 l 2,0,1
EndSplineSet
PairPos2: "'kern' Horizontal Kerning lookup 15-5" uni06C0 dx=-178 dy=0 dh=-178 dv=0 dx=0 dy=0 dh=0 dv=0
PairPos2: "'kern' Horizontal Kerning lookup 15-2" uniFBFE dx=60 dy=0 dh=60 dv=0 dx=0 dy=0 dh=0 dv=0
PairPos2: "'kern' Horizontal Kerning lookup 15-1" uniFEE7 dx=-178 dy=0 dh=-178 dv=0 dx=0 dy=0 dh=0 dv=0
PairPos2: "'kern' Horizontal Kerning lookup 15-2" uniFB90 dx=-226 dy=0 dh=-226 dv=0 dx=0 dy=0 dh=0 dv=0
PairPos2: "'kern' Horizontal Kerning lookup 15-2" uniFB8E dx=-226 dy=0 dh=-226 dv=0 dx=0 dy=0 dh=0 dv=0
PairPos2: "'kern' Horizontal Kerning lookup 15-2" uni06A9 dx=-226 dy=0 dh=-226 dv=0 dx=0 dy=0 dh=0 dv=0
PairPos2: "'kern' Horizontal Kerning lookup 15-2" uni064A dx=-60 dy=0 dh=-60 dv=0 dx=0 dy=0 dh=0 dv=0
PairPos2: "'kern' Horizontal Kerning lookup 15-2" afii57414 dx=-60 dy=0 dh=-60 dv=0 dx=0 dy=0 dh=0 dv=0
PairPos2: "'kern' Horizontal Kerning lookup 15-2" uni0649 dx=-60 dy=0 dh=-60 dv=0 dx=0 dy=0 dh=0 dv=0
PairPos2: "'kern' Horizontal Kerning lookup 15-2" uniFEEB dx=-178 dy=0 dh=-178 dv=0 dx=0 dy=0 dh=0 dv=0
PairPos2: "'kern' Horizontal Kerning lookup 15-2" uni0647 dx=-178 dy=0 dh=-178 dv=0 dx=0 dy=0 dh=0 dv=0
PairPos2: "'kern' Horizontal Kerning lookup 15-2" uni0646 dx=-60 dy=0 dh=-60 dv=0 dx=0 dy=0 dh=0 dv=0
PairPos2: "'kern' Horizontal Kerning lookup 15-2" uniFEE3 dx=-178 dy=0 dh=-178 dv=0 dx=0 dy=0 dh=0 dv=0
PairPos2: "'kern' Horizontal Kerning lookup 15-2" uni0645 dx=-178 dy=0 dh=-178 dv=0 dx=0 dy=0 dh=0 dv=0
PairPos2: "'kern' Horizontal Kerning lookup 15-2" uniFEFB dx=-143 dy=0 dh=-143 dv=0 dx=0 dy=0 dh=0 dv=0
PairPos2: "'kern' Horizontal Kerning lookup 15-2" uniFEDF dx=-143 dy=0 dh=-143 dv=0 dx=0 dy=0 dh=0 dv=0
PairPos2: "'kern' Horizontal Kerning lookup 15-2" uni0644 dx=-60 dy=0 dh=-60 dv=0 dx=0 dy=0 dh=0 dv=0
PairPos2: "'kern' Horizontal Kerning lookup 15-2" uniFEDB dx=-226 dy=0 dh=-226 dv=0 dx=0 dy=0 dh=0 dv=0
PairPos2: "'kern' Horizontal Kerning lookup 15-2" uni0643 dx=-143 dy=0 dh=-143 dv=0 dx=0 dy=0 dh=0 dv=0
PairPos2: "'kern' Horizontal Kerning lookup 15-2" uniFED7 dx=-178 dy=0 dh=-178 dv=0 dx=0 dy=0 dh=0 dv=0
PairPos2: "'kern' Horizontal Kerning lookup 15-2" uni0642 dx=-60 dy=0 dh=-60 dv=0 dx=0 dy=0 dh=0 dv=0
PairPos2: "'kern' Horizontal Kerning lookup 15-2" uniFED3 dx=-178 dy=0 dh=-178 dv=0 dx=0 dy=0 dh=0 dv=0
PairPos2: "'kern' Horizontal Kerning lookup 15-2" uni0641 dx=-178 dy=0 dh=-178 dv=0 dx=0 dy=0 dh=0 dv=0
PairPos2: "'kern' Horizontal Kerning lookup 15-2" uniFECF dx=-178 dy=0 dh=-178 dv=0 dx=0 dy=0 dh=0 dv=0
PairPos2: "'kern' Horizontal Kerning lookup 15-2" uniFECB dx=-178 dy=0 dh=-178 dv=0 dx=0 dy=0 dh=0 dv=0
PairPos2: "'kern' Horizontal Kerning lookup 15-2" uniFEC7 dx=-178 dy=0 dh=-178 dv=0 dx=0 dy=0 dh=0 dv=0
PairPos2: "'kern' Horizontal Kerning lookup 15-2" uni0638 dx=-178 dy=0 dh=-178 dv=0 dx=0 dy=0 dh=0 dv=0
PairPos2: "'kern' Horizontal Kerning lookup 15-2" uniFEC3 dx=-178 dy=0 dh=-178 dv=0 dx=0 dy=0 dh=0 dv=0
PairPos2: "'kern' Horizontal Kerning lookup 15-2" uni0637 dx=-178 dy=0 dh=-178 dv=0 dx=0 dy=0 dh=0 dv=0
PairPos2: "'kern' Horizontal Kerning lookup 15-2" uniFEBF dx=-178 dy=0 dh=-178 dv=0 dx=0 dy=0 dh=0 dv=0
PairPos2: "'kern' Horizontal Kerning lookup 15-2" uni0636 dx=-178 dy=0 dh=-178 dv=0 dx=0 dy=0 dh=0 dv=0
PairPos2: "'kern' Horizontal Kerning lookup 15-2" uniFEBB dx=-178 dy=0 dh=-178 dv=0 dx=0 dy=0 dh=0 dv=0
PairPos2: "'kern' Horizontal Kerning lookup 15-2" uni0635 dx=-178 dy=0 dh=-178 dv=0 dx=0 dy=0 dh=0 dv=0
PairPos2: "'kern' Horizontal Kerning lookup 15-2" uniFEB7 dx=-178 dy=0 dh=-178 dv=0 dx=0 dy=0 dh=0 dv=0
PairPos2: "'kern' Horizontal Kerning lookup 15-2" uni0634 dx=-178 dy=0 dh=-178 dv=0 dx=0 dy=0 dh=0 dv=0
PairPos2: "'kern' Horizontal Kerning lookup 15-2" uniFEB3 dx=-178 dy=0 dh=-178 dv=0 dx=0 dy=0 dh=0 dv=0
PairPos2: "'kern' Horizontal Kerning lookup 15-2" uni0633 dx=-178 dy=0 dh=-178 dv=0 dx=0 dy=0 dh=0 dv=0
PairPos2: "'kern' Horizontal Kerning lookup 15-2" uni0630 dx=-178 dy=0 dh=-178 dv=0 dx=0 dy=0 dh=0 dv=0
PairPos2: "'kern' Horizontal Kerning lookup 15-2" uni062F dx=-178 dy=0 dh=-178 dv=0 dx=0 dy=0 dh=0 dv=0
PairPos2: "'kern' Horizontal Kerning lookup 15-2" uniFEA7 dx=-178 dy=0 dh=-178 dv=0 dx=0 dy=0 dh=0 dv=0
PairPos2: "'kern' Horizontal Kerning lookup 15-2" uniFEA3 dx=-178 dy=0 dh=-178 dv=0 dx=0 dy=0 dh=0 dv=0
PairPos2: "'kern' Horizontal Kerning lookup 15-2" uniFE9F dx=-178 dy=0 dh=-178 dv=0 dx=0 dy=0 dh=0 dv=0
PairPos2: "'kern' Horizontal Kerning lookup 15-2" uniFE9B dx=-178 dy=0 dh=-178 dv=0 dx=0 dy=0 dh=0 dv=0
PairPos2: "'kern' Horizontal Kerning lookup 15-2" uni062B dx=-178 dy=0 dh=-178 dv=0 dx=0 dy=0 dh=0 dv=0
PairPos2: "'kern' Horizontal Kerning lookup 15-2" uniFE97 dx=-178 dy=0 dh=-178 dv=0 dx=0 dy=0 dh=0 dv=0
PairPos2: "'kern' Horizontal Kerning lookup 15-2" uni062A dx=-178 dy=0 dh=-178 dv=0 dx=0 dy=0 dh=0 dv=0
PairPos2: "'kern' Horizontal Kerning lookup 15-2" uni0629 dx=-178 dy=0 dh=-178 dv=0 dx=0 dy=0 dh=0 dv=0
PairPos2: "'kern' Horizontal Kerning lookup 15-2" uni0628 dx=-178 dy=0 dh=-178 dv=0 dx=0 dy=0 dh=0 dv=0
PairPos2: "'kern' Horizontal Kerning lookup 15-2" uni0627 dx=-143 dy=0 dh=-143 dv=0 dx=0 dy=0 dh=0 dv=0
PairPos2: "'kern' Horizontal Kerning lookup 15-2" uni0623 dx=-143 dy=0 dh=-143 dv=0 dx=0 dy=0 dh=0 dv=0
PairPos2: "'kern' Horizontal Kerning lookup 15-2" uni0622 dx=-143 dy=0 dh=-143 dv=0 dx=0 dy=0 dh=0 dv=0
PairPos2: "'kern' Horizontal Kerning lookup 15-2" uni0621 dx=-178 dy=0 dh=-178 dv=0 dx=0 dy=0 dh=0 dv=0
PairPos2: "'kern' Horizontal Kerning lookup 15-2" uniFB94 dx=-226 dy=0 dh=-226 dv=0 dx=0 dy=0 dh=0 dv=0
PairPos2: "'kern' Horizontal Kerning lookup 15-2" uniFB92 dx=-226 dy=0 dh=-226 dv=0 dx=0 dy=0 dh=0 dv=0
PairPos2: "'kern' Horizontal Kerning lookup 15-2" uni06AF dx=-226 dy=0 dh=-226 dv=0 dx=0 dy=0 dh=0 dv=0
PairPos2: "'kern' Horizontal Kerning lookup 15-2" afii57506 dx=-178 dy=0 dh=-178 dv=0 dx=0 dy=0 dh=0 dv=0
PairPos2: "'kern' Horizontal Kerning lookup 15-2" afii57440 dx=-178 dy=0 dh=-178 dv=0 dx=0 dy=0 dh=0 dv=0
PairPos2: "'kern' Horizontal Kerning lookup 15-2" uniFE8B dx=-178 dy=0 dh=-178 dv=0 dx=0 dy=0 dh=0 dv=0
EndChar

StartChar: uniFEB2
Encoding: 65202 65202 189
GlifName: uniF_E_B_2
Width: 2559
VWidth: 2952
GlyphClass: 2
Flags: W
AnchorPoint: "Anchor-7" 671.902 -756.086 basechar 0
AnchorPoint: "Anchor-10" 1800.53 1090.1 basechar 0
LayerCount: 2
Fore
SplineSet
1544.41643856 154.992191365 m 0,0,1
 1644 154 1644 154 1697.9718214 209.644169644 c 0,2,3
 1752 265 1752 265 1751.96777092 366.353916009 c 0,4,5
 1752 406 1752 406 1751.52066724 432.920402643 c 0,6,7
 1750.98844331 460.601056905 1750.98844331 460.601056905 1750.04389365 474.664650378 c 2,8,-1
 1746.46533482 527.94654649 l 1,9,-1
 1851.68087931 540.298440681 l 1,10,-1
 1865.56540552 340.595221427 l 2,11,12
 1872 252 1872 252 1920.06342039 203.520916777 c 0,13,14
 1969 155 1969 155 2053.21487947 154.520339018 c 0,15,16
 2137 155 2137 155 2179.98105655 216.453534744 c 128,-1,17
 2223 278 2223 278 2223.51087742 386.579035164 c 0,18,19
 2224.00106409 453.144499636 2224.00106409 453.144499636 2218.33110844 516.852808251 c 2,20,-1
 2215.49700287 548.697161783 l 1,21,-1
 2320.57908403 561.111470594 l 1,22,-1
 2333.96117923 402.844780666 l 2,23,24
 2344 285 2344 285 2398.76025472 219.165107013 c 0,25,26
 2452.99737539 154.003153278 2452.99737539 154.003153278 2549.35191616 154.0000007 c 2,27,-1
 2579.22070312 153.999023438 l 5,28,29
 2577.765625 29.943359375 l 5,30,-1
 2551.12865082 29.9433581613 l 2,31,32
 2504 30 2504 30 2467.61964519 37.7558046753 c 0,33,34
 2355 62 2355 62 2306.65527344 198.900390625 c 1,35,36
 2222 30 2222 30 2062.5 30 c 0,37,38
 1883 30 1883 30 1818.63183594 182.716796875 c 1,39,40
 1711 30 1711 30 1542.82612388 29.9189389859 c 0,41,42
 1409 30 1409 30 1320.28529009 119.30686332 c 1,43,-1
 1319.92042366 56.2233175997 l 2,44,45
 1319 -96 1319 -96 1266.90050888 -203.842682161 c 0,46,47
 1126 -490 1126 -490 727.316887448 -489.724612275 c 0,48,49
 424 -490 424 -490 277.710201939 -354.009431399 c 0,50,51
 131 -218 131 -218 131.752908717 61.0084732407 c 0,52,53
 132 251 132 251 209.601575391 450.845560052 c 1,54,-1
 313.261733609 408.119630308 l 1,55,56
 248 228 248 228 248.268561256 62.8802023285 c 0,57,58
 248 -152 248 -152 372.410639053 -262.471303805 c 128,-1,59
 497 -373 497 -373 734.414096776 -373.203121869 c 0,60,61
 889 -373 889 -373 995.457871163 -319.189162075 c 0,62,63
 1102 -265 1102 -265 1155.78747927 -159.223139027 c 0,64,65
 1210 -53 1210 -53 1210.5545997 101.861014858 c 0,66,67
 1211 161 1211 161 1201.89054928 219.451051325 c 0,68,69
 1193 278 1193 278 1175.53797744 337.00922582 c 128,-1,70
 1158 396 1158 396 1131.69527785 454.401810493 c 1,71,-1
 1244.00057115 493.638942835 l 1,72,-1
 1294.43547627 337.831140531 l 2,73,74
 1323 248 1323 248 1387.03242372 201.791387634 c 0,75,76
 1451 155 1451 155 1544.41643856 154.992191365 c 0,0,1
EndSplineSet
EndChar

StartChar: uniFEB3
Encoding: 65203 65203 190
GlifName: uniF_E_B_3
Width: 1569
VWidth: 2952
GlyphClass: 2
Flags: W
AnchorPoint: "Anchor-10" 859.961 1083.67 basechar 0
AnchorPoint: "Anchor-7" 759.534 -236.974 basechar 0
LayerCount: 2
Fore
SplineSet
846.573242188 325.104492188 m 4,0,1
 853 357 853 357 852.953125 401.423828125 c 4,2,3
 853 406 853 406 852.918945312 410.706054688 c 4,4,5
 853 415 853 415 852.796875 420.036132812 c 4,6,7
 853 425 853 425 852.586914062 429.4140625 c 132,-1,8
 852 434 852 434 852.2890625 438.840820312 c 4,9,10
 852 444 852 444 851.903320312 448.315429688 c 4,11,12
 852 453 852 453 851.4296875 457.838867188 c 4,13,14
 851 463 851 463 850.869140625 467.409179688 c 4,15,16
 851 472 851 472 850.221679688 477.028320312 c 4,17,18
 850 482 850 482 849.486328125 486.6953125 c 4,19,20
 849 492 849 492 848.663085938 496.411132812 c 6,21,-1
 845.846679688 528.073242188 l 5,22,-1
 950.360351562 540.33984375 l 5,23,-1
 964.248046875 340.577148438 l 6,24,25
 970 252 970 252 1018.79785156 203.533203125 c 4,26,27
 1067 155 1067 155 1151.5 154.538085938 c 4,28,29
 1236 155 1236 155 1278.09960938 219.881835938 c 4,30,31
 1320 285 1320 285 1319.98632812 399.39453125 c 4,32,33
 1320 496 1320 496 1283.03808594 633.166992188 c 5,34,-1
 1396.67578125 663.572265625 l 5,35,36
 1437 526 1437 526 1436.02050781 406.240234375 c 4,37,38
 1436 403 1436 403 1436 400.56640625 c 4,39,40
 1436 357 1436 357 1431.04785156 317.9765625 c 132,-1,41
 1426 279 1426 279 1417.20019531 245.9375 c 4,42,43
 1408 213 1408 213 1394.62207031 184.153320312 c 4,44,45
 1381 156 1381 156 1363.671875 132.192382812 c 4,46,47
 1346 109 1346 109 1324.51660156 89.7568359375 c 4,48,49
 1302 70 1302 70 1276.42285156 57.1943359375 c 4,50,51
 1251 44 1251 44 1220.17382812 37.6064453125 c 4,52,53
 1190 31 1190 31 1154.7265625 30.9931640625 c 4,54,55
 981 31 981 31 916.452148438 180.094726562 c 5,56,57
 810 30 810 30 636.443359375 30 c 4,58,59
 444 31 444 31 375.924804688 188.510742188 c 5,60,61
 286 30 286 30 48.849609375 30 c 6,62,-1
 -20.9384765625 30 l 1,63,64
 -20.9384765625 153.999023438 l 1,65,-1
 51.00390625 153.999023438 l 6,66,67
 124 154 124 154 178.166015625 172.3828125 c 4,68,69
 233 191 233 191 268.533203125 229.282226562 c 4,70,71
 306 270 306 270 316.280273438 324.842773438 c 4,72,73
 320 344 320 344 322.717773438 401.47265625 c 4,74,75
 323 408 323 408 322.69921875 414.017578125 c 4,76,77
 323 420 323 420 322.48046875 426.944335938 c 4,78,79
 322 433 322 433 322.0625 440.22265625 c 4,80,81
 322 447 322 447 321.447265625 453.8359375 c 4,82,83
 321 461 321 461 320.634765625 467.75390625 c 4,84,85
 320 475 320 475 319.627929688 481.959960938 c 4,86,87
 319 489 319 489 318.426757812 496.42578125 c 6,88,-1
 315.610351562 528.087890625 l 5,89,-1
 420.124023438 540.354492188 l 5,90,-1
 434.013671875 340.560546875 l 6,91,92
 440 251 440 251 493.431640625 202.450195312 c 4,93,94
 547 153 547 153 636 153 c 4,95,96
 693 153 693 153 737.11328125 173.779296875 c 4,97,98
 780 194 780 194 807.907226562 231.837890625 c 4,99,100
 836 270 836 270 846.573242188 325.104492188 c 4,0,1
EndSplineSet
EndChar

StartChar: uniFEB4
Encoding: 65204 65204 191
GlifName: uniF_E_B_4
Width: 1658
VWidth: 2945
GlyphClass: 2
Flags: W
AnchorPoint: "Anchor-7" 759.534 -236.974 basechar 0
AnchorPoint: "Anchor-10" 873.961 1083.67 basechar 0
LayerCount: 2
Fore
SplineSet
964.25 340.55078125 m 6,0,1
 970.435953125 251.571871454 970.435953125 251.571871454 1019.40429688 203.482421875 c 4,2,3
 1068 155 1068 155 1153.37109375 154.579101562 c 4,4,5
 1238 155 1238 155 1280.22558594 215.908203125 c 4,6,7
 1323 277 1323 277 1322.38769531 384.3671875 c 4,8,9
 1322 424 1322 424 1320.92578125 457.228515625 c 4,10,11
 1319.97636021 486.734678807 1319.97636021 486.734678807 1317.29101562 516.909179688 c 6,12,-1
 1314.45703125 548.75390625 l 5,13,-1
 1419.5390625 561.16796875 l 5,14,-1
 1432.921875 402.896484375 l 6,15,16
 1443 285 1443 285 1497.74316406 219.1484375 c 4,17,18
 1552.00424971 153.994897201 1552.00424971 153.994897201 1648.32128906 153.998046875 c 6,19,-1
 1678.18457031 153.999023438 l 5,20,21
 1677.24609375 30 l 5,22,-1
 1650.08007812 30 l 6,23,24
 1464 30 1464 30 1405.87402344 199.53125 c 5,25,26
 1321 30 1321 30 1154 30 c 4,27,28
 988 30 988 30 915.688476562 179.625 c 5,29,30
 809 30 809 30 636.443359375 30 c 4,31,32
 444 31 444 31 375.924804688 188.510742188 c 5,33,34
 286 30 286 30 48.849609375 30 c 6,35,-1
 -20.9384765625 30 l 1,36,-1
 -20.9384765625 153.999023438 l 1,37,-1
 51.00390625 153.999023438 l 6,38,39
 161 154 161 154 230.3359375 196.80078125 c 4,40,41
 299 240 299 240 317.268554688 324.786132812 c 4,42,43
 323 352 323 352 322.717773438 401.4609375 c 4,44,45
 323.000080226 445.0123765 323.000080226 445.0123765 318.426757812 496.42578125 c 6,46,-1
 315.610351562 528.087890625 l 5,47,-1
 420.124023438 540.354492188 l 5,48,-1
 434.013671875 340.560546875 l 6,49,50
 440 251 440 251 493.431640625 202.450195312 c 132,-1,51
 547 154 547 154 638.049804688 154.073242188 c 4,52,53
 694 154 694 154 737.609375 173.775390625 c 4,54,55
 781 194 781 194 808.766601562 231.826171875 c 4,56,57
 837 270 837 270 847.5625 325.052734375 c 4,58,59
 853 352 853 352 852.953125 401.423828125 c 4,60,61
 853 406 853 406 852.918945312 410.706054688 c 4,62,63
 853 415 853 415 852.796875 420.036132812 c 4,64,65
 853 425 853 425 852.586914062 429.4140625 c 132,-1,66
 852 434 852 434 852.2890625 438.840820312 c 4,67,68
 852 444 852 444 851.903320312 448.315429688 c 4,69,70
 852 453 852 453 851.4296875 457.838867188 c 4,71,72
 851 463 851 463 850.869140625 467.409179688 c 4,73,74
 851 472 851 472 850.221679688 477.028320312 c 4,75,76
 850 482 850 482 849.486328125 486.6953125 c 4,77,78
 849 492 849 492 848.663085938 496.411132812 c 6,79,-1
 845.846679688 528.073242188 l 5,80,-1
 950.360351562 540.33984375 l 5,81,-1
 964.25 340.55078125 l 6,0,1
EndSplineSet
EndChar

StartChar: uniFEBA
Encoding: 65210 65210 197
GlifName: uniF_E_B_A_
Width: 2616
VWidth: 2952
GlyphClass: 2
Flags: W
AnchorPoint: "Anchor-7" 716.902 -681.086 basechar 0
AnchorPoint: "Anchor-10" 2048.53 1213.1 basechar 0
LayerCount: 2
Fore
SplineSet
1449.61131205 197.839463377 m 2,0,1
 1786.70896583 768.005941284 1786.70896583 768.005941284 2108.840253 761.429828311 c 0,2,3
 2178 760 2178 760 2234.3408175 741.278008319 c 0,4,5
 2290 722 2290 722 2334.85986083 685.438086926 c 0,6,7
 2455 586 2455 586 2454.59656505 423.776241081 c 0,8,9
 2455.0004748 312.869627976 2455.0004748 312.869627976 2390.76628973 225.804675963 c 2,10,-1
 2375.09150156 204.558595261 l 1,11,12
 2439 154 2439 154 2595.73828125 154 c 2,13,-1
 2636.18457031 154 l 1,14,-1
 2635.25195312 30 l 1,15,-1
 2600.2265625 30 l 2,16,17
 2485 30 2485 30 2403.72537588 50.7669463724 c 0,18,19
 2321.68264526 71.824786008 2321.68264526 71.824786008 2273.99345785 110.904332269 c 2,20,-1
 2258.14074363 123.895052229 l 1,21,-1
 2240.27548248 113.850163123 l 2,22,23
 2168 73 2168 73 2047.3803658 51.3933023834 c 0,24,25
 1928 30 1928 30 1763.15136719 30 c 2,26,-1
 1712.34082031 30 l 2,27,28
 1591 30 1591 30 1503.02845714 43.6345687056 c 0,29,30
 1415.35484503 57.0990799417 1415.35484503 57.0990799417 1363.24302535 82.9290701883 c 2,31,-1
 1320.19828905 104.264827137 l 1,32,-1
 1319.92042366 56.2233175997 l 2,33,34
 1319 -96 1319 -96 1266.90050888 -203.842682161 c 0,35,36
 1126 -490 1126 -490 727.316887448 -489.724612275 c 0,37,38
 424 -490 424 -490 277.710201939 -354.009431399 c 0,39,40
 131 -218 131 -218 131.752908717 61.0084732407 c 0,41,42
 132 251 132 251 209.601575391 450.845560052 c 1,43,-1
 313.261733609 408.119630308 l 1,44,45
 248 228 248 228 248.268561256 62.8802023285 c 0,46,47
 248 -152 248 -152 372.410639053 -262.471303805 c 128,-1,48
 497 -373 497 -373 734.414096776 -373.203121869 c 0,49,50
 889 -373 889 -373 995.457871163 -319.189162075 c 0,51,52
 1102 -265 1102 -265 1155.78747927 -159.223139027 c 0,53,54
 1210 -53 1210 -53 1210.5545997 101.861014858 c 0,55,56
 1211 161 1211 161 1201.89054928 219.451051325 c 0,57,58
 1193 278 1193 278 1175.53797744 337.00922582 c 128,-1,59
 1158 396 1158 396 1131.69527785 454.401810493 c 1,60,-1
 1244.00057115 493.638942835 l 1,61,-1
 1294.42986836 337.84862971 l 2,62,63
 1309 293 1309 293 1325.58523317 260.590301999 c 0,64,65
 1342 229 1342 229 1366.53012673 207.615294158 c 0,66,67
 1390.75338332 186.21784715 1390.75338332 186.21784715 1420.84458635 183.252077995 c 2,68,-1
 1439.87777857 181.376179104 l 1,69,-1
 1449.61131205 197.839463377 l 2,0,1
2112.3440926 634.572416952 m 0,70,71
 1985.86253043 635.360039171 1985.86253043 635.360039171 1856.2959817 525.85985016 c 128,-1,72
 1726.72943298 416.359661149 1726.72943298 416.359661149 1589.34813631 200.525976678 c 2,73,-1
 1559.97077971 154.372509881 l 1,74,-1
 1614.68064718 154.417002108 l 1,75,-1
 1758.78158373 154.534190717 l 2,76,77
 2331.91409917 155.025639676 2331.91409917 155.025639676 2332.66096603 415.273990361 c 0,78,79
 2332.8520986 472.594480532 2332.8520986 472.594480532 2309.88548537 518.583828238 c 128,-1,80
 2286.91887214 564.573175944 2286.91887214 564.573175944 2242.03507625 595.58194924 c 0,81,82
 2186.46330682 633.917560937 2186.46330682 633.917560937 2112.3440926 634.572416952 c 0,70,71
EndSplineSet
EndChar

StartChar: uniFEBB
Encoding: 65211 65211 198
GlifName: uniF_E_B_B_
Width: 1680
VWidth: 2952
GlyphClass: 2
Flags: W
AnchorPoint: "Anchor-10" 1118.91 1202.52 basechar 0
AnchorPoint: "Anchor-7" 699.209 -240.348 basechar 0
LayerCount: 2
Fore
SplineSet
1547.57923506 423.883713281 m 0,0,1
 1547 228 1547 228 1378.04535551 129.201474799 c 0,2,3
 1209 30 1209 30 856.133789062 30 c 2,4,-1
 805.323242188 30 l 2,5,6
 452.031637442 30 452.031637442 30 374.110090247 160.553938586 c 2,7,-1
 350.905026289 199.432947075 l 1,8,-1
 324.148338302 162.907176141 l 2,9,10
 227 30 227 30 9.984375 30 c 2,11,-1
 -20.9384765625 30 l 5,12,-1
 -19.9384765625 154 l 5,13,-1
 10.1103515625 154 l 2,14,15
 128 154 128 154 199.475683878 192.444821581 c 128,-1,16
 271 231 271 231 286.033298631 310.633329982 c 0,17,18
 298.080768089 374.427687189 298.080768089 374.427687189 289.937465817 495.690757251 c 2,19,-1
 286.359619243 548.968978451 l 1,20,-1
 391.803322302 561.347657567 l 1,21,-1
 407.250315932 360.421863776 l 2,22,23
 413 288 413 288 437.067162468 242.304853718 c 0,24,25
 461.34288514 196.35091854 461.34288514 196.35091854 509.317115998 184.047802006 c 2,26,-1
 531.143413308 178.450391177 l 1,27,-1
 542.60132567 197.852311353 l 2,28,29
 879 767 879 767 1201.82273352 761.429827348 c 0,30,31
 1339 759 1339 759 1427.8438055 685.43682531 c 0,32,33
 1548 586 1548 586 1547.57923506 423.883713281 c 0,0,1
1205.26113815 634.572994313 m 0,34,35
 1079.22731062 634.808793446 1079.22731062 634.808793446 949.771337849 525.392803555 c 128,-1,36
 820.315365079 415.976813664 820.315365079 415.976813664 682.375663809 200.59662208 c 2,37,-1
 652.771452904 154.372362076 l 1,38,-1
 707.663069053 154.417002108 l 1,39,-1
 851.764004771 154.534190716 l 2,40,41
 960.747224379 154.627638489 960.747224379 154.627638489 1048.8275084 163.826221819 c 128,-1,42
 1136.90779241 173.024805149 1136.90779241 173.024805149 1207.84035691 192.872336621 c 128,-1,43
 1278.7729214 212.719868092 1278.7729214 212.719868092 1326.53123672 243.060907902 c 128,-1,44
 1374.28955204 273.401947713 1374.28955204 273.401947713 1399.88934567 316.730271898 c 128,-1,45
 1425.48913929 360.058596083 1425.48913929 360.058596083 1425.64337016 415.268801389 c 0,46,47
 1426.05525479 532.701060536 1426.05525479 532.701060536 1335.02172586 595.579032254 c 0,48,49
 1279.46608411 633.917558417 1279.46608411 633.917558417 1205.26113815 634.572994313 c 0,34,35
EndSplineSet
EndChar

StartChar: uniFEBC
Encoding: 65212 65212 199
GlifName: uniF_E_B_C_
Width: 1719
VWidth: 2952
GlyphClass: 2
Flags: W
AnchorPoint: "Anchor-7" 699.209 -240.348 basechar 0
AnchorPoint: "Anchor-10" 1148.91 1202.52 basechar 0
LayerCount: 2
Fore
SplineSet
1547.57927236 423.690706625 m 0,0,1
 1548 368 1548 368 1531.90747937 318.69637379 c 0,2,3
 1516.28721641 269.897289494 1516.28721641 269.897289494 1483.75084545 225.80756787 c 2,4,-1
 1468.06608868 204.553305661 l 1,5,6
 1521 154 1521 154 1688.72070312 154 c 2,7,-1
 1739.16699219 154 l 1,8,9
 1738.24316406 30 l 1,10,-1
 1693.20898438 30 l 2,11,12
 1465.72051603 30 1465.72051603 30 1366.97401139 110.905863181 c 2,13,-1
 1351.1208021 123.894855414 l 1,14,-1
 1333.2566453 113.849455167 l 2,15,16
 1184 30 1184 30 856.133789062 30 c 2,17,-1
 805.323242188 30 l 2,18,19
 628 30 628 30 520.476449915 64.2472135891 c 0,20,21
 413.219227098 97.9311521228 413.219227098 97.9311521228 373.796354915 161.067799692 c 6,22,-1
 350.330586303 198.648774409 l 1,23,-1
 324.148338302 162.907176141 l 2,24,25
 227 30 227 30 9.984375 30 c 2,26,-1
 -20.9384765625 30 l 1,27,28
 -20.9384765625 154 l 1,29,-1
 9.1103515625 154 l 2,30,31
 127 154 127 154 199.216048747 192.423126581 c 0,32,33
 271 231 271 231 286.033298631 310.633329982 c 0,34,35
 298.080768089 374.427687189 298.080768089 374.427687189 289.937465817 495.690757251 c 2,36,-1
 286.359619243 548.968978451 l 1,37,-1
 391.803322302 561.347657567 l 1,38,-1
 407.250315932 360.421863776 l 2,39,40
 413 288 413 288 437.067162468 242.304853718 c 0,41,42
 461.342885139 196.350918542 461.342885139 196.350918542 509.317115998 184.047802006 c 2,43,-1
 531.091130011 178.463799364 l 1,44,-1
 542.566131902 197.792873406 l 2,45,46
 880 767 880 767 1201.82604633 761.429773117 c 0,47,48
 1340 759 1340 759 1427.78561274 685.484945291 c 0,49,50
 1547 587 1547 587 1547.57927236 423.690706625 c 0,0,1
1205.45938765 634.571243219 m 0,51,52
 1079.92084004 636.465514856 1079.92084004 636.465514856 950.33886628 526.934062817 c 128,-1,53
 820.756892518 417.402610779 820.756892518 417.402610779 682.350713056 200.557597467 c 2,54,-1
 652.872005834 154.372443849 l 1,55,-1
 707.663069053 154.417002108 l 1,56,-1
 851.764004771 154.534190716 l 2,57,58
 960.747224379 154.627638489 960.747224379 154.627638489 1048.8275084 163.826221819 c 128,-1,59
 1136.90779241 173.024805149 1136.90779241 173.024805149 1207.84035691 192.872336621 c 128,-1,60
 1278.7729214 212.719868092 1278.7729214 212.719868092 1326.53123672 243.060907902 c 128,-1,61
 1374.28955204 273.401947713 1374.28955204 273.401947713 1399.88934567 316.730271898 c 128,-1,62
 1425.48913929 360.058596083 1425.48913929 360.058596083 1425.64337016 415.268801389 c 0,63,64
 1426.05525479 532.701060536 1426.05525479 532.701060536 1335.02172586 595.579032254 c 0,65,66
 1279.46608411 633.917558417 1279.46608411 633.917558417 1205.45938765 634.571243219 c 0,51,52
EndSplineSet
EndChar

StartChar: uniFEC2
Encoding: 65218 65218 205
GlifName: uniF_E_C_2
Width: 1515
VWidth: 2952
GlyphClass: 2
Flags: W
AnchorPoint: "Anchor-7" 641.602 -236.453 basechar 0
AnchorPoint: "Anchor-10" 475.36 1526.78 basechar 0
LayerCount: 2
Fore
SplineSet
1003.10349526 761.426406258 m 0,0,1
 1072 761 1072 761 1127.92536589 741.773031412 c 0,2,3
 1184 723 1184 723 1228.95202179 685.42791285 c 0,4,5
 1348 587 1348 587 1348.6778526 423.706793611 c 0,6,7
 1348.99906643 318.306334038 1348.99906643 318.306334038 1284.1844274 223.907586533 c 2,8,-1
 1273.92759101 208.9691016 l 1,9,10
 1303 154 1303 154 1504.70800781 154 c 2,11,-1
 1535.92773438 154 l 1,12,-1
 1535.46679688 29.9990234375 l 1,13,-1
 1499.19628906 29.9990234375 l 2,14,15
 1373 30 1373 30 1285.97273722 49.5313248524 c 0,16,17
 1199.12059156 69.1991435641 1199.12059156 69.1991435641 1154.807558 105.022392914 c 2,18,-1
 1139.39348087 117.483339146 l 1,19,-1
 1121.88497494 108.192420189 l 2,20,21
 974.997122125 29.9984679985 974.997122125 29.9984679985 658.232474479 29.9990234375 c 2,22,-1
 131.302734375 29.9999473958 l 1,23,-1
 131.302734375 154.242795644 l 1,24,-1
 321.843130615 154.376957918 l 1,25,-1
 323.570669678 154.377934481 l 1,26,-1
 340.231614147 154.38735277 l 1,27,-1
 349.029749077 168.535850255 l 1,28,-1
 420.114710014 282.849326817 l 1,29,-1
 424.638671875 290.124421315 l 1,30,-1
 424.638671875 298.69140625 l 1,31,-1
 424.638671875 1360.87304688 l 5,32,-1
 538.950195312 1360.87304688 l 5,33,-1
 538.950195312 544.208984375 l 1,34,-1
 538.950195312 458.75798432 l 1,35,-1
 592.366333638 525.455732233 l 2,36,37
 783 763 783 763 1003.10349526 761.426406258 c 0,0,1
1005.93440014 634.571157785 m 0,38,39
 752.203422923 631.819616384 752.203422923 631.819616384 484.284371644 200.359032116 c 2,40,-1
 455.828440616 154.533203125 l 1,41,-1
 509.770507812 154.533203125 l 1,42,-1
 653.862743746 154.533214245 l 2,43,44
 1225.90358126 155.025735558 1225.90358126 155.025735558 1226.74209097 415.296941571 c 0,45,46
 1226.88755036 472.63549134 1226.88755036 472.63549134 1203.93275633 518.595605904 c 128,-1,47
 1180.97796231 564.555720468 1180.97796231 564.555720468 1136.05779044 595.621344595 c 0,48,49
 1078.15418605 635.063044739 1078.15418605 635.063044739 1005.93440014 634.571157785 c 0,38,39
EndSplineSet
EndChar

StartChar: uniFEC3
Encoding: 65219 65219 206
GlifName: uniF_E_C_3
Width: 1300
VWidth: 2952
GlyphClass: 2
Flags: W
AnchorPoint: "Anchor-7" 481.602 -236.453 basechar 0
AnchorPoint: "Anchor-10" 292.36 1535.78 basechar 0
LayerCount: 2
Fore
SplineSet
1167.01562495 423.77949648 m 0,0,1
 1167 228 1167 228 998.239265166 129.169946551 c 0,2,3
 828.96576699 29.9799403184 828.96576699 29.9799403184 475.571041114 29.9882812412 c 2,4,-1
 -20.9384765625 30 l 1,5,-1
 -20.943359375 154 l 1,6,-1
 139.16796875 154 l 1,7,-1
 155.474152195 154 l 1,8,-1
 164.342804673 167.683516425 l 1,9,-1
 238.151398423 281.563399237 l 1,10,-1
 242.9765625 289.008184346 l 1,11,-1
 242.9765625 297.879882812 l 1,12,-1
 242.9765625 1360.87402344 l 5,13,-1
 356.288085938 1360.87402344 l 5,14,-1
 356.288085938 544.198242188 l 1,15,-1
 356.288085938 459.76146942 l 1,16,-1
 409.562942569 525.269928771 l 2,17,18
 603 763 603 763 821.660918567 761.413855264 c 0,19,20
 958 760 958 760 1047.24369028 685.455508221 c 0,21,22
 1108 635 1108 635 1137.34034591 570.539951458 c 0,23,24
 1167 506 1167 506 1167.01562495 423.77949648 c 0,0,1
824.631391492 634.561840315 m 0,25,26
 696.941309474 634.252166526 696.941309474 634.252166526 567.436323895 524.82794389 c 128,-1,27
 437.931338315 415.403721254 437.931338315 415.403721254 301.759454253 200.584077282 c 2,28,-1
 272.5614863 154.522460938 l 1,29,-1
 327.09765625 154.522460938 l 1,30,-1
 471.201148018 154.522472504 l 2,31,32
 1044.98956308 155.026322609 1044.98956308 155.026322609 1045.08006881 415.385941025 c 0,33,34
 1044.98763998 532.6995545 1044.98763998 532.6995545 954.444552728 595.576983352 c 0,35,36
 940.383750744 605.196158892 940.383750744 605.196158892 925.071454006 612.46915472 c 128,-1,37
 909.759157268 619.742150548 909.759157268 619.742150548 893.470814431 624.577898049 c 128,-1,38
 877.182471595 629.41364555 877.182471595 629.41364555 859.966942373 631.908822977 c 128,-1,39
 842.751413152 634.404000404 842.751413152 634.404000404 824.631391492 634.561840315 c 0,25,26
EndSplineSet
EndChar

StartChar: uniFEC4
Encoding: 65220 65220 207
GlifName: uniF_E_C_4
Width: 1332
VWidth: 2952
GlyphClass: 2
Flags: W
AnchorPoint: "Anchor-10" 289.36 1523.78 basechar 0
AnchorPoint: "Anchor-7" 481.602 -236.453 basechar 0
LayerCount: 2
Fore
SplineSet
1167.01562482 423.780985366 m 0,0,1
 1167 389 1167 389 1159.86234713 354.926075793 c 0,2,3
 1153 321 1153 321 1138.16666329 288.531901008 c 0,4,5
 1122.87489608 254.723408371 1122.87489608 254.723408371 1101.591202 224.018321191 c 2,6,-1
 1091.3488429 209.242101995 l 1,7,8
 1119.99949351 154.000976562 1119.99949351 154.000976562 1322.0390625 154.000976562 c 2,9,-1
 1352.48535156 154.000976562 l 1,10,11
 1351.90136719 30 l 1,12,-1
 1316.52734375 30 l 2,13,14
 1253 30 1253 30 1198.11067981 35.1198921214 c 0,15,16
 1144 40 1144 40 1100.98096119 50.0127720865 c 128,-1,17
 1058 60 1058 60 1026.15466374 73.5422074915 c 0,18,19
 991.760784546 89.1082646538 991.760784546 89.1082646538 972.176165733 104.992961055 c 2,20,-1
 956.770014575 117.488585105 l 1,21,-1
 939.239460364 108.205817039 l 2,22,23
 867 70 867 70 750.369007457 49.9369714141 c 0,24,25
 634 30 634 30 475.563476562 30 c 2,26,-1
 -20.9384765625 30 l 1,27,-1
 -20.943359375 154 l 1,28,-1
 140.875976562 154 l 1,29,-1
 157.452157854 154 l 1,30,-1
 166.27425176 168.03354714 l 1,31,-1
 238.374837698 282.725929952 l 1,32,-1
 242.9765625 290.046020013 l 1,33,-1
 242.9765625 298.692382812 l 1,34,-1
 242.9765625 1360.87402344 l 5,35,-1
 356.290039062 1360.87402344 l 5,36,-1
 356.288085938 544.198309952 l 1,37,-1
 356.287896078 460.144551479 l 1,38,-1
 409.508411222 525.203071915 l 2,39,40
 605 764 605 764 821.5691622 761.414427602 c 0,41,42
 957 760 957 760 1047.24369028 685.455508221 c 0,43,44
 1167 586 1167 586 1167.01562482 423.780985366 c 0,0,1
824.631391492 634.561840315 m 0,45,46
 696.941309474 634.252166526 696.941309474 634.252166526 567.436323895 524.82794389 c 128,-1,47
 437.931338315 415.403721254 437.931338315 415.403721254 301.759454253 200.584077282 c 2,48,-1
 272.5614863 154.522460938 l 1,49,-1
 327.09765625 154.522460938 l 1,50,-1
 471.201148018 154.522472504 l 2,51,52
 1044.98956308 155.026322609 1044.98956308 155.026322609 1045.08006881 415.385941025 c 0,53,54
 1044.98763998 532.6995545 1044.98763998 532.6995545 954.444552728 595.576983352 c 0,55,56
 940.383750744 605.196158892 940.383750744 605.196158892 925.071454006 612.46915472 c 128,-1,57
 909.759157268 619.742150548 909.759157268 619.742150548 893.470814431 624.577898049 c 128,-1,58
 877.182471595 629.41364555 877.182471595 629.41364555 859.966942373 631.908822977 c 128,-1,59
 842.751413152 634.404000404 842.751413152 634.404000404 824.631391492 634.561840315 c 0,45,46
EndSplineSet
EndChar

StartChar: uniFECA
Encoding: 65226 65226 213
GlifName: uniF_E_C_A_
Width: 1187
VWidth: 2952
GlyphClass: 2
Flags: W
AnchorPoint: "Anchor-7" 616.833 -890.619 basechar 0
AnchorPoint: "Anchor-10" 580.833 1226.24 basechar 0
LayerCount: 2
Fore
SplineSet
1207.33496094 30 m 5,0,-1
 1167.11914062 30 l 2,1,2
 904.513068854 30 904.513068854 30 609.183291994 238.238707084 c 2,3,-1
 593.76300237 249.11164109 l 1,4,-1
 577.284056495 239.921952912 l 2,5,6
 247 56 247 56 244.666094226 -195.983084373 c 0,7,8
 244 -277 244 -277 274.70496824 -337.513134698 c 0,9,10
 305 -399 305 -399 363.344019757 -438.097922315 c 0,11,12
 422 -478 422 -478 505.752524683 -497.637648749 c 0,13,14
 590 -518 590 -518 698.546010608 -517.788061905 c 0,15,16
 855 -518 855 -518 1020.77519929 -456.005897837 c 1,17,-1
 1044.64658987 -571.09066581 l 1,18,19
 891 -634 891 -634 687.946544281 -633.228851016 c 0,20,21
 440 -632 440 -632 302.737616864 -541.103047129 c 0,22,23
 218 -485 218 -485 176.548906616 -399.482698234 c 128,-1,24
 135 -314 135 -314 134.403295749 -196.139344609 c 0,25,26
 133.999392177 102.449337533 133.999392177 102.449337533 436.472707212 293.156080175 c 2,27,-1
 478.300110474 319.527886985 l 1,28,-1
 435.590481984 344.445581346 l 2,29,30
 303 422 303 422 236.824656931 495.505509499 c 0,31,32
 172 568 172 568 172.228565419 631.439680424 c 0,33,34
 172 716 172 716 315.45174584 778.885368527 c 0,35,36
 416 823 416 823 594.509522823 823.720736395 c 0,37,38
 655 824 655 824 707.672502969 818.870077033 c 0,39,40
 760 814 760 814 801.986763937 804.369067674 c 0,41,42
 844 795 844 795 877.064806723 780.674664666 c 0,43,44
 1009 725 1009 725 1008.28800278 634.632350883 c 0,45,46
 1008 599 1008 599 978.417956816 554.470262013 c 128,-1,47
 949 510 949 510 881.579925489 452.224340578 c 0,48,49
 814.800898176 394.828875288 814.800898176 394.828875288 715.02929183 332.44798222 c 2,50,-1
 677.127812085 308.7505773 l 1,51,52
 889.36862912 154.458984375 889.36862912 154.458984375 1167.421875 154.458984375 c 2,53,-1
 1207.30761719 154.458984375 l 5,54,-1
 1207.33496094 30 l 5,0,-1
596.11658312 395.186255414 m 2,55,56
 641.383375109 420.023542669 641.383375109 420.023542669 668.491420579 435.211148797 c 128,-1,57
 695.599466048 450.398754926 695.599466048 450.398754926 730.266899675 470.799251795 c 128,-1,58
 764.934333302 491.199748663 764.934333302 491.199748663 784.849567408 504.81702576 c 128,-1,59
 804.764801513 518.434302856 804.764801513 518.434302856 826.578073076 535.289695751 c 128,-1,60
 848.391344639 552.145088646 848.391344639 552.145088646 859.463490191 565.406472208 c 128,-1,61
 870.535635744 578.66785577 870.535635744 578.66785577 877.844468052 593.192580191 c 128,-1,62
 885.153300361 607.717304611 885.153300361 607.717304611 885.127553657 621.514481052 c 0,63,64
 884.836863246 636.006445344 884.836863246 636.006445344 879.063196293 647.571117371 c 128,-1,65
 873.289529339 659.135789397 873.289529339 659.135789397 860.411204227 667.345201896 c 128,-1,66
 847.532879115 675.554614394 847.532879115 675.554614394 833.924576882 681.580376043 c 128,-1,67
 820.31627465 687.606137693 820.31627465 687.606137693 796.888265069 691.319329931 c 128,-1,68
 773.460255489 695.032522169 773.460255489 695.032522169 754.553138117 697.285768395 c 128,-1,69
 735.646020745 699.539014622 735.646020745 699.539014622 704.204146837 700.522381554 c 128,-1,70
 672.762272929 701.505748486 672.762272929 701.505748486 651.092160559 701.752874243 c 128,-1,71
 629.422048188 702 629.422048188 702 593 702 c 0,72,73
 554.910213586 702 554.910213586 702 526.161227284 701.27906343 c 128,-1,74
 497.412240982 700.55812686 497.412240982 700.55812686 465.470166435 698.235220419 c 128,-1,75
 433.528091888 695.912313979 433.528091888 695.912313979 410.620642653 691.876515134 c 128,-1,76
 387.713193418 687.84071629 387.713193418 687.84071629 365.894831879 680.87003231 c 128,-1,77
 344.07647034 673.89934833 344.07647034 673.89934833 330.680669264 664.246546741 c 128,-1,78
 317.284868188 654.593745152 317.284868188 654.593745152 309.260330749 640.673143162 c 128,-1,79
 301.23579331 626.752541172 301.23579331 626.752541172 301.327641534 609.15786574 c 0,80,81
 301.208230696 589.817930011 301.208230696 589.817930011 314.243855961 569.443560012 c 128,-1,82
 327.279481226 549.069190013 327.279481226 549.069190013 347.450116057 530.719604318 c 128,-1,83
 367.620750888 512.370018624 367.620750888 512.370018624 404.827544605 488.409975939 c 128,-1,84
 442.034338322 464.449933254 442.034338322 464.449933254 476.884177855 444.712925646 c 128,-1,85
 511.734017389 424.975918039 511.734017389 424.975918039 567.501138592 395.05243072 c 2,86,-1
 581.845168679 387.35571995 l 1,87,-1
 596.11658312 395.186255414 l 2,55,56
EndSplineSet
EndChar

StartChar: uniFECB
Encoding: 65227 65227 214
GlifName: uniF_E_C_B_
Width: 1059
VWidth: 2952
GlyphClass: 2
Flags: W
AnchorPoint: "Anchor-10" 550.493 1189.05 basechar 0
AnchorPoint: "Anchor-7" 484.511 -235.021 basechar 0
LayerCount: 2
Fore
SplineSet
-20.9453125 154.458984375 m 13,0,-1
 266.314453125 154.462890625 l 1,1,-1
 273.065429688 154.462890625 l 1,2,-1
 340.573702804 154.462890625 l 1,3,-1
 295.331642124 204.568008972 l 1,4,-1
 290.803517064 209.582860288 l 2,5,6
 285 216 285 216 279.730212753 222.333031639 c 0,7,8
 274 229 274 229 269.058615673 235.622521693 c 0,9,10
 264 242 264 242 258.780525545 249.465762173 c 0,11,12
 254 257 254 257 248.902759054 263.857912114 c 0,13,14
 198 341 198 341 198.719790787 451.733808809 c 0,15,16
 200 605 200 605 281.638095005 708.262899546 c 0,17,18
 325 763 325 763 389.960694628 797.736955547 c 0,19,20
 475 844 475 844 591.398144212 843.232961765 c 0,21,22
 773 842 773 842 894.037762946 727.6356166 c 1,23,-1
 851.011693814 631.333983281 l 1,24,25
 812 659 812 659 773.523251125 678.377351904 c 0,26,27
 735 697 735 697 695.693144338 707.067370548 c 0,28,29
 656 717 656 717 616.873064952 717.298965137 c 0,30,31
 548 718 548 718 491.681026964 697.659685906 c 0,32,33
 435 677 435 677 392.999054939 636.374480475 c 0,34,35
 352 595 352 595 332.994896391 548.692739346 c 0,36,37
 313 500 313 500 312.60219974 442.511062252 c 0,38,39
 313 295 313 295 485.731960848 203.845835056 c 0,40,41
 512 190 512 190 520.434739593 190.40980776 c 0,42,43
 527.983535427 190.998715541 527.983535427 190.998715541 532.779207104 192.218046292 c 2,44,-1
 931.0703125 293.486153275 l 1,45,-1
 931.0703125 170.454780139 l 1,46,47
 470.674782155 29.9007143046 470.674782155 29.9007143046 85.445453749 29.9785148136 c 2,48,-1
 -20.9384765625 30 l 21,49,-1
 -20.9453125 154.458984375 l 13,0,-1
EndSplineSet
EndChar

StartChar: uniFECC
Encoding: 65228 65228 215
GlifName: uniF_E_C_C_
Width: 1151
VWidth: 2952
GlyphClass: 2
Flags: W
AnchorPoint: "Anchor-7" 584.511 -235.021 basechar 0
AnchorPoint: "Anchor-10" 611.107 1160.89 basechar 0
LayerCount: 2
Fore
SplineSet
1054.80175781 153.993164062 m 2,0,-1
 1171.37792969 153.993164062 l 1,1,-1
 1171.37695312 30 l 1,2,-1
 1055.1875 30 l 2,3,4
 786.713794813 30 786.713794813 30 616.08574828 161.809734632 c 1,5,6
 462.131978229 30 462.131978229 30 97.048828125 30 c 2,7,-1
 -20.9384765625 30 l 1,8,-1
 -20.9384765625 153.993164062 l 1,9,-1
 100.412810286 153.993164071 l 2,10,11
 401.754625666 154.006576331 401.754625666 154.006576331 522.645280008 234.204521198 c 5,12,-1
 480.064482831 258.278297583 l 1,13,-1
 475.790009578 260.694936575 l 2,14,15
 198 418 198 418 198.19623566 561.026331829 c 0,16,17
 198 642 198 642 338.661053142 708.375312882 c 0,18,19
 372 724 372 724 414.351043237 734.034800578 c 0,20,21
 456 744 456 744 507.922913405 749.927648893 c 0,22,23
 559 755 559 755 619.233219864 755.636139403 c 0,24,25
 791 757 791 757 903.170347182 709.934161614 c 0,26,27
 1034 655 1034 655 1034.21089438 565.962993418 c 0,28,29
 1034 508 1034 508 962.671337997 429.42193185 c 0,30,31
 890.621017096 350.585321381 890.621017096 350.585321381 745.572968732 259.606827195 c 2,32,-1
 741.412812482 256.997452195 l 1,33,-1
 699.817982374 230.907924954 l 1,34,35
 829.086236677 153.993164062 829.086236677 153.993164062 1054.80175781 153.993164062 c 2,0,-1
900.026377122 539.888247347 m 0,36,37
 900.016075918 564.147581405 900.016075918 564.147581405 884.474143274 581.40336131 c 128,-1,38
 868.93221063 598.659141214 868.93221063 598.659141214 844.972816432 608.328598853 c 128,-1,39
 821.013422233 617.998056492 821.013422233 617.998056492 781.19840664 623.39536276 c 128,-1,40
 741.383391046 628.792669027 741.383391046 628.792669027 704.199336956 630.263699983 c 128,-1,41
 667.015282865 631.734730938 667.015282865 631.734730938 613.651617425 631.665013304 c 0,42,43
 560.68424404 631.734423113 560.68424404 631.734423113 523.110700424 630.150222786 c 128,-1,44
 485.537156807 628.566022459 485.537156807 628.566022459 446.14420815 623.002447339 c 128,-1,45
 406.751259492 617.438872219 406.751259492 617.438872219 382.682661495 607.571907267 c 128,-1,46
 358.614063498 597.704942314 358.614063498 597.704942314 343.090205104 580.292449099 c 128,-1,47
 327.566346709 562.879955884 327.566346709 562.879955884 327.297359866 538.514293139 c 0,48,49
 327.121296764 524.704999414 327.121296764 524.704999414 332.574697687 510.833273579 c 128,-1,50
 338.028098611 496.961547744 338.028098611 496.961547744 346.160458914 485.903344054 c 128,-1,51
 354.292819216 474.845140364 354.292819216 474.845140364 366.384040076 462.471163939 c 0,52,53
 431.439315126 392.926842047 431.439315126 392.926842047 598.697585482 307.834635925 c 2,54,-1
 600.093093294 307.124674987 l 1,55,-1
 614.045800055 300.026272037 l 1,56,-1
 627.848903069 307.411371739 l 1,57,-1
 629.208847097 308.138994766 l 2,58,59
 778.114272288 387.663855475 778.114272288 387.663855475 859.602907657 469.778888461 c 0,60,61
 873.05956272 483.404455511 873.05956272 483.404455511 880.296141698 491.998897033 c 128,-1,62
 887.532720677 500.593338555 887.532720677 500.593338555 893.769277972 513.6556068 c 128,-1,63
 900.005835267 526.717875045 900.005835267 526.717875045 900.026377122 539.888247347 c 0,36,37
EndSplineSet
EndChar

StartChar: uniFEDA
Encoding: 65242 65242 229
GlifName: uniF_E_D_A_
Width: 2001
VWidth: 2952
GlyphClass: 2
Flags: W
AnchorPoint: "Anchor-10" 948.11 1412.05 basechar 0
AnchorPoint: "Anchor-7" 750.268 -236.468 basechar 0
LayerCount: 2
Fore
SplineSet
716.16015625 628.855985287 m 1,0,1
 791.140106759 621.879083704 791.140106759 621.879083704 848.343934032 621.267003485 c 0,2,3
 960.866509938 620.985214495 960.866509938 620.985214495 1019.96067354 645.17745394 c 0,4,5
 1053.17938259 658.898304173 1053.17938259 658.898304173 1072.69871883 683.636056734 c 128,-1,6
 1092.21805507 708.373809294 1092.21805507 708.373809294 1092.7456689 741.314844231 c 0,7,8
 1093.07812046 798.303972931 1093.07812046 798.303972931 1051.57057516 833.474388788 c 0,9,10
 1031.86419718 850.437184938 1031.86419718 850.437184938 1005.53989732 860.442808079 c 128,-1,11
 979.215597458 870.44843122 979.215597458 870.44843122 945.408924872 875.138728289 c 0,12,13
 846.926634865 890.111579793 846.926634865 890.111579793 803.06736505 934.591888697 c 128,-1,14
 759.208095234 979.072197601 759.208095234 979.072197601 760.921629145 1057.75597188 c 0,15,16
 765.118063229 1228.70467871 765.118063229 1228.70467871 1093.61035156 1260.88202835 c 1,17,-1
 1093.61035156 1192.08747533 l 1,18,19
 1033.73467252 1185.36480036 1033.73467252 1185.36480036 989.070496684 1175.19312589 c 128,-1,20
 944.406320844 1165.02145141 944.406320844 1165.02145141 908.064217168 1148.71768753 c 128,-1,21
 871.722113491 1132.41392365 871.722113491 1132.41392365 852.905735278 1107.72371109 c 128,-1,22
 834.089357064 1083.03349853 834.089357064 1083.03349853 834.139605045 1050.45031811 c 0,23,24
 833.951637069 950.246298681 833.951637069 950.246298681 998.346558632 925.106877037 c 0,25,26
 1086.01003704 911.596757319 1086.01003704 911.596757319 1125.82766085 868.422873948 c 128,-1,27
 1165.64528465 825.248990577 1165.64528465 825.248990577 1165.36439346 746.217169916 c 0,28,29
 1165.05348051 642.829027146 1165.05348051 642.829027146 1062.00364564 586.559627329 c 0,30,31
 1028.59959681 568.289482943 1028.59959681 568.289482943 979.434433801 558.6680014 c 128,-1,32
 930.269270791 549.046519857 930.269270791 549.046519857 865.966674825 549.088848678 c 0,33,34
 849.327251888 549.070364944 849.327251888 549.070364944 831.386097848 549.782273712 c 128,-1,35
 813.444943808 550.494182481 813.444943808 550.494182481 794.618169366 551.909884073 c 128,-1,36
 775.791394924 553.325585666 775.791394924 553.325585666 756.098242157 555.433400323 c 128,-1,37
 736.405089391 557.54121498 736.405089391 557.54121498 716.16015625 560.312663536 c 1,38,-1
 716.16015625 628.855985287 l 1,0,1
862.133789062 30 m 2,39,-1
 860.911132812 30 l 2,40,41
 488 30 488 30 308.848840543 144.219012859 c 0,42,43
 130 258 130 258 130.160135179 485.90762687 c 0,44,45
 130 599 130 599 170.55756449 703.17125834 c 1,46,-1
 274.409179688 668.051757812 l 1,47,48
 249 594 249 594 249.425145373 514.37851236 c 0,49,50
 250 333 250 333 402.448677798 243.396646147 c 0,51,52
 555 154 555 154 841.861411732 154.136719306 c 0,53,54
 1020 154 1020 154 1155.32109624 172.211115191 c 0,55,56
 1290 190 1290 190 1386.79374839 228.240793845 c 0,57,58
 1483 266 1483 266 1532.53858907 327.293239861 c 0,59,60
 1581.82910156 387.831512194 1581.82910156 387.831512194 1581.82910156 471.963867188 c 2,61,-1
 1581.82910156 1360.56640625 l 5,62,-1
 1699.70996094 1360.56640625 l 5,63,-1
 1699.70996094 474.338867188 l 2,64,65
 1700 320 1700 320 1772.77781884 236.944387248 c 0,66,67
 1845.7534405 154.279296875 1845.7534405 154.279296875 1985.68261719 154.279296875 c 2,68,-1
 2020.96777344 154.279296875 l 1,69,70
 2019.9609375 30 l 1,71,-1
 1977.96875 30 l 2,72,73
 1945 30 1945 30 1915.59077422 32.9924422683 c 0,74,75
 1710 54 1710 54 1646.67480469 250.178710938 c 1,76,77
 1447 30 1447 30 862.133789062 30 c 2,39,-1
EndSplineSet
EndChar

StartChar: uniFEDB
Encoding: 65243 65243 230
GlifName: uniF_E_D_B_
Width: 950
VWidth: 2952
GlyphClass: 2
Flags: W
AnchorPoint: "Anchor-7" 310.991 -231.935 basechar 0
AnchorPoint: "Anchor-10" 301.533 1455.33 basechar 0
LayerCount: 2
Fore
SplineSet
578.755950405 639.27744745 m 0,0,1
 701 507 701 507 698.222496632 350.889746363 c 0,2,3
 695 192 695 192 558.664262369 110.887460749 c 0,4,5
 422 30 422 30 135.612304688 30 c 2,6,-1
 -20.9384765625 30 l 5,7,8
 -20.9384765625 153.993164062 l 5,9,-1
 134.782722858 153.993164066 l 2,10,11
 578 154 578 154 578.724490639 375.033759372 c 0,12,13
 579 486 579 486 465.631798273 592.080416805 c 0,14,15
 389 664 389 664 319.862356152 723.528172162 c 0,16,17
 251 783 251 783 190.46126954 830.64701941 c 0,18,19
 78 918 78 918 77.9189453125 1004.43945312 c 0,20,21
 78.0001232675 1099.14380719 78.0001232675 1099.14380719 208.764331246 1148.79974199 c 2,22,-1
 861.37109375 1396.61831064 l 1,23,-1
 861.37109375 1280.29333445 l 1,24,-1
 208.091648226 1036.66856736 l 1,25,-1
 159.745483771 1018.63903477 l 1,26,-1
 199.332093175 985.543475868 l 2,27,28
 456 771 456 771 578.755950405 639.27744745 c 0,0,1
EndSplineSet
EndChar

StartChar: uniFEDC
Encoding: 65244 65244 231
GlifName: uniF_E_D_C_
Width: 1027
VWidth: 2952
GlyphClass: 2
Flags: W
AnchorPoint: "Anchor-10" 254.533 1442.33 basechar 0
AnchorPoint: "Anchor-7" 310.991 -231.935 basechar 0
LayerCount: 2
Fore
SplineSet
199.332093175 985.543475868 m 2,0,1
 456.16190015 770.826273953 456.16190015 770.826273953 578.760921747 639.272082168 c 0,2,3
 656 556 656 556 701.761662111 424.958438625 c 0,4,5
 732 337 732 337 777.533347977 277.406893176 c 0,6,7
 823 217 823 217 883.34032134 185.682494297 c 0,8,9
 944 154 944 154 1017.9140625 154 c 2,10,-1
 1047.02441406 154 l 5,11,12
 1046.16894531 30 l 5,13,-1
 1017.80761719 30 l 2,14,15
 916 30 916 30 835.591279377 70.7544099719 c 0,16,17
 754.688858226 112.159238396 754.688858226 112.159238396 693.037714008 194.721088975 c 2,18,-1
 667.196062235 229.327658236 l 1,19,-1
 643.788104536 193.030645704 l 2,20,21
 539 30 539 30 135.612304688 30 c 2,22,-1
 -20.9384765625 30 l 1,23,-1
 -20.9384765625 153.993164062 l 1,24,-1
 134.782722858 153.993164066 l 2,25,26
 578 154 578 154 578.724490639 375.033759372 c 0,27,28
 579 486 579 486 465.631798273 592.080416805 c 0,29,30
 389 664 389 664 319.862356152 723.528172162 c 0,31,32
 251 783 251 783 190.46126954 830.64701941 c 0,33,34
 78 918 78 918 77.9189453125 1004.43945312 c 0,35,36
 78.0001232675 1099.14380719 78.0001232675 1099.14380719 208.764331246 1148.79974199 c 2,37,-1
 861.37109375 1396.61831064 l 1,38,-1
 861.37109375 1280.29333445 l 1,39,-1
 208.091648226 1036.66856736 l 1,40,-1
 159.745483771 1018.63903477 l 1,41,-1
 199.332093175 985.543475868 l 2,0,1
EndSplineSet
EndChar

StartChar: uniFEDE
Encoding: 65246 65246 233
GlifName: uniF_E_D_E_
Width: 1476
VWidth: 2952
GlyphClass: 2
Flags: W
AnchorPoint: "Anchor-7" 657.902 -660.086 basechar 0
AnchorPoint: "Anchor-10" 593.908 1155.66 basechar 0
LayerCount: 2
Fore
SplineSet
1093.6044542 69.755803671 m 2,0,-1
 1095.86523438 1360.92285156 l 5,1,-1
 1207.86816406 1360.92285156 l 5,2,-1
 1207.30178844 395.22841309 l 2,3,4
 1207 278 1207 278 1274.06254195 216.341713339 c 0,5,6
 1340.70011375 154.279296875 1340.70011375 154.279296875 1464.70410156 154.279296875 c 2,7,-1
 1496.8671875 154.279296875 l 1,8,9
 1495.95800781 30 l 1,10,-1
 1460.3515625 30 l 2,11,12
 1301 30 1301 30 1200.58300781 131.327148438 c 1,13,-1
 1199.98249557 75.5586439227 l 2,14,15
 1197 -213 1197 -213 1069.54550335 -351.13484796 c 0,16,17
 942 -490 942 -490 680.871976519 -489.734378158 c 0,18,19
 402 -490 402 -490 267.019484335 -360.127451785 c 0,20,21
 132 -230 132 -230 132.734940567 37.3035196395 c 0,22,23
 133 223 133 223 203.043426928 407.13501001 c 1,24,-1
 306.515232581 364.486490197 l 1,25,26
 248 203 248 203 248.246100002 38.2058914123 c 0,27,28
 248 -164 248 -164 358.975725985 -268.334193039 c 0,29,30
 470 -373 470 -373 681.80298576 -373.226557202 c 0,31,32
 783 -373 783 -373 859.967151236 -344.346271696 c 0,33,34
 937 -316 937 -316 988.895227041 -259.488172643 c 0,35,36
 1049 -195 1049 -195 1066.99919143 -120.686363868 c 0,37,38
 1093 -10 1093 -10 1093.6044542 69.755803671 c 2,0,-1
EndSplineSet
EndChar

StartChar: uniFEDF
Encoding: 65247 65247 234
GlifName: uniF_E_D_F_
Width: 635
VWidth: 2952
GlyphClass: 2
Flags: W
AnchorPoint: "Anchor-10" 385.751 1530.65 basechar 0
AnchorPoint: "Anchor-7" 279.812 -236.234 basechar 0
LayerCount: 2
Fore
SplineSet
-20.9384765625 30 m 1,0,1
 -20.9384765625 153.993164062 l 1,2,-1
 41.4935260589 153.993166117 l 2,3,4
 185 154 185 154 261.601704113 226.103054734 c 128,-1,5
 338.313476562 298.404118017 338.313476562 298.404118017 338.313476562 434.663085938 c 2,6,-1
 338.313476562 1360.171875 l 5,7,-1
 451.627929688 1360.171875 l 5,8,-1
 451.627940973 428.939799346 l 2,9,10
 452 292 452 292 406.995871305 204.897759565 c 0,11,12
 362 117 362 117 270.351149578 73.4005383786 c 0,13,14
 178 30 178 30 36.2861328125 30 c 2,15,-1
 -20.9384765625 30 l 1,0,1
EndSplineSet
EndChar

StartChar: uniFEE0
Encoding: 65248 65248 235
GlifName: uniF_E_E_0
Width: 718
VWidth: 2952
GlyphClass: 2
Flags: W
AnchorPoint: "Anchor-7" 279.812 -236.234 basechar 0
AnchorPoint: "Anchor-10" 392.751 1530.65 basechar 0
LayerCount: 2
Fore
SplineSet
42.5927734375 30 m 2,0,-1
 -20.9384765625 30 l 1,1,2
 -20.9384765625 153.993164062 l 1,3,-1
 45.1101462876 153.993164072 l 2,4,5
 186 154 186 154 263.990299246 214.124738083 c 0,6,7
 341.496531268 274.386054476 341.496531268 274.386054476 342.080692052 391.033158064 c 2,8,-1
 346.93359375 1360.07617188 l 5,9,-1
 459.739257812 1360.07617188 l 5,10,-1
 459.739281567 391.157559428 l 2,11,12
 460 277 460 277 523.730045971 215.288642205 c 0,13,14
 588.007168464 153.993164062 588.007168464 153.993164062 705.545898438 153.993164062 c 2,15,-1
 738.745117188 153.993164062 l 1,16,17
 738.013671875 30 l 1,18,-1
 708.065429688 30 l 2,19,20
 508.471301745 30 508.471301745 30 416.69597404 158.955526672 c 2,21,-1
 391.82027249 193.908920737 l 1,22,-1
 367.527025727 158.548230049 l 2,23,24
 279 30 279 30 42.5927734375 30 c 2,0,-1
EndSplineSet
EndChar

StartChar: uniFEE2
Encoding: 65250 65250 237
GlifName: uniF_E_E_2
Width: 1306
VWidth: 2622
GlyphClass: 2
Flags: W
AnchorPoint: "Anchor-10" 769.239 1084.48 basechar 0
AnchorPoint: "Anchor-7" 724.983 -336.909 basechar 0
LayerCount: 2
Fore
SplineSet
789.842081496 675.381924594 m 0,0,1
 840 675 840 675 881.711508744 663.27522745 c 0,2,3
 924 651 924 651 958.924977719 627.353860097 c 0,4,5
 994 603 994 603 1023.24304486 567.020615579 c 0,6,7
 1080 497 1080 497 1107.64402747 365.6872195 c 0,8,9
 1129 265 1129 265 1176.73420704 209.550172289 c 0,10,11
 1224.00083092 153.999023439 1224.00083092 153.999023439 1298.39648438 153.999023438 c 2,12,-1
 1326.56738281 153.999023438 l 1,13,14
 1325.93847656 30 l 1,15,-1
 1298.09472656 30 l 2,16,17
 1170 30 1170 30 1092.82226562 149.307617188 c 1,18,19
 1009 7 1009 7 852.092730739 6.86319040503 c 0,20,21
 748 7 748 7 622.534948662 84.1986832561 c 0,22,23
 574 114 574 114 517.698354097 142.777512745 c 0,24,25
 467 168 467 168 429.028403233 167.745124109 c 0,26,27
 395 167 395 167 367.394299934 151.978694582 c 0,28,29
 340 137 340 137 319.911778597 106.817599591 c 0,30,31
 300 77 300 77 285.531021564 36.0124870063 c 128,-1,32
 271 -5 271 -5 262.496306937 -59.6975344726 c 0,33,34
 254 -114 254 -114 249.804877343 -176.361047695 c 0,35,36
 246 -238 246 -238 245.748071163 -313.038174685 c 0,37,38
 246 -492 246 -492 257.334581663 -644.813476562 c 1,39,-1
 138.432316042 -644.813476562 l 1,40,41
 129 -486 129 -486 128.97656243 -341.002043968 c 0,42,43
 129 -4 129 -4 204.727184407 145.374376577 c 0,44,45
 275.818066963 284.643587621 275.818066963 284.643587621 398.127529096 303.041761291 c 2,46,-1
 415.177472521 305.606467363 l 1,47,-1
 421.544553902 321.629530826 l 2,48,49
 563 677 563 677 789.842081496 675.381924594 c 0,0,1
852.123964825 129 m 0,50,51
 924.588262317 129.598878492 924.588262317 129.598878492 963.655550554 174.31096995 c 128,-1,52
 1002.72283879 219.023061408 1002.72283879 219.023061408 1002.35679527 296.894091699 c 0,53,54
 1002.27776785 309.12110197 1002.27776785 309.12110197 1001.26600226 321.303342026 c 128,-1,55
 1000.25423667 333.485582083 1000.25423667 333.485582083 998.315973453 345.600170399 c 128,-1,56
 996.377710234 357.714758716 996.377710234 357.714758716 993.509033827 369.802794333 c 128,-1,57
 990.64035742 381.890829951 990.64035742 381.890829951 986.854491601 393.920753785 c 128,-1,58
 983.068625781 405.950677619 983.068625781 405.950677619 978.354671755 417.97226627 c 0,59,60
 970.088041438 438.338500572 970.088041438 438.338500572 959.150607415 455.706604273 c 128,-1,61
 948.213173391 473.074707973 948.213173391 473.074707973 934.884260214 487.134369829 c 128,-1,62
 921.555347037 501.194031685 921.555347037 501.194031685 905.788262862 512.039659168 c 128,-1,63
 890.021178687 522.88528665 890.021178687 522.88528665 872.150668558 530.286808364 c 128,-1,64
 854.28015843 537.688330078 854.28015843 537.688330078 834.200415314 541.654564323 c 128,-1,65
 814.120672199 545.620798568 814.120672199 545.620798568 792.221861631 546.001913798 c 0,66,67
 628.990658904 548.298569839 628.990658904 548.298569839 543.124336568 308.723404776 c 2,68,-1
 535.767690351 288.197665651 l 1,69,-1
 553.02015122 274.864293828 l 2,70,71
 741.758457989 129 741.758457989 129 852.123964825 129 c 0,50,51
EndSplineSet
EndChar

StartChar: uniFEE3
Encoding: 65251 65251 238
GlifName: uniF_E_E_3
Width: 1040
VWidth: 2952
GlyphClass: 2
Flags: W
AnchorPoint: "Anchor-10" 573.952 1092.2 basechar 0
AnchorPoint: "Anchor-7" 504.594 -235.063 basechar 0
LayerCount: 2
Fore
SplineSet
630.723632812 126.75 m 0,0,1
 711.341345722 126.75 711.341345722 126.75 756.29909083 170.626770821 c 128,-1,2
 801.256835938 214.503541641 801.256835938 214.503541641 801.256835938 293.918945312 c 0,3,4
 801.256835938 328.943242171 801.256835938 328.943242171 795.519753951 360.02331248 c 128,-1,5
 789.782671965 391.103382788 789.782671965 391.103382788 778.097811772 417.905999528 c 0,6,7
 751.425954629 479.592878232 751.425954629 479.592878232 703.391491986 512.375540678 c 128,-1,8
 655.357029342 545.158203125 655.357029342 545.158203125 590.614257812 545.158203125 c 0,9,10
 432.261617091 545.158203125 432.261617091 545.158203125 351.284315234 318.105963044 c 2,11,-1
 345.384375621 301.563123572 l 1,12,-1
 356.922057936 288.320891432 l 2,13,14
 497.695425822 126.75 497.695425822 126.75 630.723632812 126.75 c 0,0,1
270.482864417 162.317847965 m 2,15,16
 156.265236095 30 156.265236095 30 12.720703125 30 c 2,17,-1
 -20.1171875 30 l 5,18,19
 -20.1171875 153.993164062 l 5,20,-1
 8.32773734703 153.99316417 l 2,21,22
 103 154 103 154 190.633280344 259.302276289 c 0,23,24
 225 301 225 301 270.890135882 401.424160541 c 0,25,26
 393 672 393 672 587.412366775 674.532347598 c 0,27,28
 618 675 618 675 645.69442992 670.40244821 c 0,29,30
 673 666 673 666 698.154132317 657.681057583 c 0,31,32
 723 649 723 649 745.175055882 636.26632224 c 0,33,34
 767 623 767 623 786.998898255 606.187246156 c 0,35,36
 807 589 807 589 824.009241349 567.341975855 c 0,37,38
 912 457 912 457 912.474472266 308.606852246 c 0,39,40
 912 165 912 165 852.579528812 94.8483325241 c 0,41,42
 778 8 778 8 645.241311309 7.75680536975 c 0,43,44
 463.80414906 8.00026279824 463.80414906 8.00026279824 314.854926576 163.468980631 c 2,45,-1
 292.036069077 187.286617666 l 1,46,-1
 270.482864417 162.317847965 l 2,15,16
EndSplineSet
EndChar

StartChar: uniFEE4
Encoding: 65252 65252 239
GlifName: uniF_E_E_4
Width: 1102
VWidth: 2952
GlyphClass: 2
Flags: W
AnchorPoint: "Anchor-7" 524.594 -235.063 basechar 0
AnchorPoint: "Anchor-10" 569.952 1149.2 basechar 0
LayerCount: 2
Fore
SplineSet
631.675564291 126.754713161 m 0,0,1
 714.579400184 126.314811605 714.579400184 126.314811605 760.17431895 170.803534043 c 128,-1,2
 805.769237716 215.292256481 805.769237716 215.292256481 804.422599181 296.462934529 c 0,3,4
 802.848175136 360.548342508 802.848175136 360.548342508 778.062168761 417.988620503 c 0,5,6
 760.155153105 458.650852304 760.155153105 458.650852304 732.601983081 486.908454409 c 128,-1,7
 705.048813057 515.166056513 705.048813057 515.166056513 668.816148012 529.938983183 c 128,-1,8
 632.583482967 544.711909853 632.583482967 544.711909853 589.227992444 545.149293255 c 0,9,10
 432.945690466 547.291402311 432.945690466 547.291402311 351.281323246 318.09756987 c 2,11,-1
 345.420601128 301.649253316 l 1,12,-1
 356.828020044 288.429345039 l 2,13,14
 401.864305275 236.237384328 401.864305275 236.237384328 446.52126525 200.854341702 c 128,-1,15
 491.178225225 165.471299076 491.178225225 165.471299076 538.019731504 146.350319421 c 128,-1,16
 584.861237783 127.229339766 584.861237783 127.229339766 631.675564291 126.754713161 c 0,0,1
642.928937806 7.76272124869 m 0,17,18
 471.368857399 7.99949094071 471.368857399 7.99949094071 314.335335593 163.998065961 c 2,19,-1
 291.508042147 186.674913606 l 1,20,-1
 270.482864417 162.317847965 l 2,21,22
 156 30 156 30 12.720703125 30 c 2,23,-1
 -20.1171875 30 l 5,24,25
 -20.1171875 153.993164062 l 5,26,-1
 8.32743232997 153.993164145 l 2,27,28
 115 154 115 154 192.848824919 260.802521601 c 0,29,30
 231 313 231 313 270.893641237 402.43231216 c 0,31,32
 334 541 334 541 412.352496224 607.788596327 c 0,33,34
 491 674 491 674 587.072691385 674.52844745 c 0,35,36
 736 675 736 675 819.398434889 567.326193433 c 0,37,38
 832 551 832 551 842.789105952 533.89755328 c 0,39,40
 854 516 854 516 863.395919124 497.038670907 c 0,41,42
 873 478 873 478 881.176302831 456.748767502 c 0,43,44
 889 436 889 436 896.068470107 412.985059614 c 128,-1,45
 903 390 903 390 908.029849377 365.746768434 c 0,46,47
 929 265 929 265 975.760691418 209.616096971 c 0,48,49
 1022.00081192 153.999023438 1022.00081192 153.999023438 1094.79492188 153.999023438 c 2,50,-1
 1096.96646754 153.999023438 l 1,51,52
 1100.26741016 130.060755098 1100.26741016 130.060755098 1100.26757812 107.174804688 c 2,53,-1
 1100.26771577 88.4190055295 l 2,54,55
 1100 56 1100 56 1096.13817698 30 c 1,56,-1
 1094.49414062 30 l 2,57,58
 958 30 958 30 895.463867188 156.92578125 c 1,59,-1
 870.359375 117.759765625 l 2,60,61
 800 8 800 8 642.928937806 7.76272124869 c 0,17,18
EndSplineSet
EndChar

